<mxfile host="app.diagrams.net" agent="Mozilla/5.0 (Windows NT 10.0; Win64; x64) AppleWebKit/537.36 (KHTML, like Gecko) Chrome/129.0.0.0 Safari/537.36" version="24.8.1">
  <diagram name="PÃ¡gina-1" id="CdmOTnW0q_-iQMVBJ337">
    <mxGraphModel dx="1290" dy="591" grid="1" gridSize="10" guides="1" tooltips="1" connect="1" arrows="1" fold="1" page="1" pageScale="1" pageWidth="827" pageHeight="1169" math="0" shadow="0">
      <root>
        <mxCell id="0" />
        <mxCell id="1" parent="0" />
        <mxCell id="wkWaENmz2FaomDUTFkqX-8" value="" style="shape=image;verticalLabelPosition=bottom;labelBackgroundColor=default;verticalAlign=top;aspect=fixed;imageAspect=0;image=data:image/png,iVBORw0KGgoAAAANSUhEUgAAAUgAAAK/CAYAAAALa1QPAAAAAXNSR0IArs4c6QAAAARnQU1BAACxjwv8YQUAAAAJcEhZcwAADsMAAA7DAcdvqGQAAK7qSURBVHhe7Z0FoB3F2f7fXPe4uxDiQoSgAUJCSHAv3mJtaUtb+v2/fjVaqBdpkeIe3C1YgCQEkpAQ4u7uct2S/OeZ3ffcOXv3XD2795w97y+Zu7uzs3t2Z2eeeUd2ttmhgsKj5ODDD96nNm3aUKtWrah58+Y0a9Ysevzxx+n000/X/nv27KGSkhIqLS2l8vJyqqiooMrKSjp8+DAdOXIk5I4ePRpyvA1Mf3ObMf15CdesWTPXcMBcr4m6hnNSn/PjOpmG/l404WtyXltN1CdsbdT3XDWFN/fVdt5I+9z8nX7RvGamvud0o67Hm+GsVffjnOfDdl3iFWF43Q03f9PPuV7Tb8Kf9/F6UlJSyCUnJ2uXkpJCqamp2qWnp1NmZiZ17NiRdu/eTdOmTaOzzz6brrnmGiooKKD9+/fTwYMH9b7Lv3elPrcbzVav3RiWg+fN/UoLY7t27ahly5b03HPP0cKFC+mcc86hHTt2aHEsKirS4gjH4sgOQmgKJW4czhRIrAPe5iVwW6+rnxP4IzLN/c7thsDndYPPzfvdftu5rA1nOHO7pn1qS7naz+8lke4xkn9jwDkjgd+qaX88YF5/Xe6H93M8Rwpf13ipKZzbPvi5Xae5XdM5gTMsO6dAQhzh0tLStEBmZGRoB5Hs0KGDNuw++ugjbfD94Q9/oMLCQi2Shw4dor1799JpZ0ywfyWcZuoGdOw9+OCD1KJFC+3at2+vT/jkk0/Srl276OSTT6ZVq1bRzp079YmLi4u1BQnrkS1IiCI7FkNTINkxVetYumcWZ3hETG3hogX/Xk3w75rharsWDus8tr7nQrhI5wDmeRjsjxTWeS7G7Zx8HvN8wAzrhvk7wDoW6cLaBm5h3LbdloxzH+MMB3i/09+J27GRqClszb+HfZHvq7E05px8LGNu13a+SPvrex0cHkt2TisS4giRhINAZmVlade5c2fq0aMHffvtt1q/7rrrLi2OBw4c0O6yyy7T53bSrKi45OjD/31Ii2JeXh61bt1an+yVV16hNWvW0GmnnUbLli2j9evXa9OUBbKsrEyLo7NqjUgzHWOu10Rdw9UGzoMI5KXpx9QlTE0grInbuXkduJ2XwzmXjHms2z5zG7idx/QDzmMY5/nM8G7nYzicG5F+qz6Y18E4r4FxXiMfGyk84/YbwDwu0jnq4s/nBzWdj/3qek63MLXR0ONqgq+ZMc/P/lV+2G74PZjhsc7OTSghktnZ2dr17NmT+vTpo/UM4X/729/Stm3btFDCYf2HP/qxfWaL5P/99f/9ccvmTZSTk6Otx7Zt29KCBQvo448/1tXq1atX05IlS7QZCqXFiSCSsCBNkTSF0rQi6+sEoTG4paF4S1e4XlME4gFnHGObHVPlV7Ue7t8wx8YZdIe1CLVaaBM0Ck2BWEK7EK/9+/entWvXak0bPXq03g9/iGqfY/rSEZzTdkm4QIhjbm6udgAdMhdffLFuc1y0aJFud+RGTYgjd86wKDoFMQgE5T68IJbjxiks8fgc400cmxLWHHYslBBIiCIMOdR8YdxBx6Bnmzdv1s2Gn376qdY4GIawNKGDr7z0on1mi+Thw4b+EVVriCOsx8cee4z69u2rTdL58+fTunXrtPKiYwY/6BTEoBKNRIr4CWJij/V7Mq8vXuM/qGnHT1g04aBZMOhg2KGJEH0s/fr1ozfffJMuvPBCLaQIh+p5r9697TOo9PP+++8fhYJCPaG6v/vd7+imm26i5cuX616fffv2hTpkhg8frjttuN7etWtXJZRVyn3kiKXcfDFsYVYerqSjKhxwXnSLFi2pZ48e1K//ADr1lLF0bN9jqU3bdpSnBDtLiXRWZpZuSxAEIX5Bfi8rtyy6IlULhVW3c9dOWrlyBc2Y8QWtXbdG93OghgogVCggrELCKiyaNbM6ZLjH2nRJaHtU+xAOv1VcXKSFsFu37loMoWc4lnu4x4wZQyNHjqTZs2fTVVddpdsnuYa8ZcsWuuyK7+nraPb5558fhQUJkURPdqdOnfTwnunTp2sLEj8C0YMAdu7Shbapg8uUWCI8ftASxvD6v+UsobTE0Iog3kbXe+fOXejK712lRbFnr97UoX0HffGCICQWqJnu2LmD1q5ZQ599/im99PIL2jCDv0aJXooSQGvVEk2zMyY1JVUJpCV+8APQGdSCt27dQt179KSdqiqN41hgMT7yrLPO0sMZv/vuO92rvX37dq13aE4cN94a9pMEscKJIWpLly7VSooA6MHmcY4sgjt3bKdytd2yVSt9AVoI1TasS4Q1XWUlquI47qg+B8LimAsvuJiefeYF+nzaTPrN//2eTj31NOrapauIoyAkKBjU3aN7Dxo37ky6686/0pcz59Djjz5FZ44bbwVgrbE1BFqEWil0paxM6U2ZVcOFoMJxuIMHD+le600bN+ptODbkMGQR7Y8Qzfz8fF0jhgbhWjAsiEm+9dZb/wjPxYsXa2GDokIcMTgc2yyOAGYx6u04mb5I9UMVcOpCKyp4PGRVZw32IxyU/JKLL6W//vnvdMvNP6QhQ4bqIUW4OEEQBMAWXvO85tS//wCaMGEiHT/6eC1669evC2kRXJKqbqPqbYkeNEf5qyXOEQqjzoVj0b/C1ihrDvaj6Q6DyFEbRtPhgAEDtIZh33cLFtAxfY9F1T1Z18k/++wzXSfnOjhOiIC4AGby5Ml6H6uwpeDWUB8WR31xtjiCk086lR595Am65+7/KJP2bGrVqnXIDBYEQXADGtG+XXu64PyL6KEHH9Fu+PAR9l7S+gJlgjxBjyoqYKxZVmSF0qPDqMEqByMPA8QZNt7gUKWGsQeRnDNnjjbkIKAQTvTJAC2QEDWMCUJ1G3VwHIgfdQokxg5hGz9siSKG+ljVZ1SlucPmsNqGav/4Rz+hRx5+TFmPl+mGUrEYBUGoD7ACO3ToSNdec702tK64/MpQFbhSiSJ0CkB30KwHXUIzYLnSJRhtkK/16zfoMAzCwkEcUSvGOXAcRupAo9BGiVo1UL+fpM1LvH8N9YVAooEU4uhk69at+mRl5dY4yPJyiGOVkB4+bF1w69Zt6B9/v5v+fNdfqS/MVPUbgiAIDQWG3LChw+i+e++n3/7mD6E+C2iPtiZt0YP+wGiDFVmum/3KtRA6QVhoGPZB9/AmIQxAiCN+C+d//dVXVFVeKebKlSv164UwR9FgCZHkHzSBAOKkMGdxIaaFyVXqPn2OoSefeJquu+77yky1Bp4LgiBEA7wKfeuPf0pPPfmcNuoY1h+Amiy2oVcQSLRPugHtgkDC0kSvNvpdYDlCE2HUoRasq9jolMEgcQgkxgJZpmm4OAJYixV6+I7V+YIfVjIauriBAwfRgw88TBPGT9Rd74IgCNEGVewLL7hIVbmf1GOxGegQxE3rktIv6BX8YCG6gbCoVsPoQ6fxhg0bQlVrWJBoi0yCSYnubuxgC9K0DE3Ky8voiK5Sw7qEKjdTMmzt69GjJ93zr/v0uEacUxDqws6dO2jaZ5/SzT+8QS8xDk4QagPiNensyfTPf9yjO1kYaJfWJbuHG9uo7UYCmgeDEJoF4xDCyBakFkgEYlFEYCiqExZLLGAxWlgdLvhxmLp3QxxPFXEU6saYE0dSXotMOrZ/L7r4kvPp5ZdfpIsvPZ8uvOhc5Z9BQ4YNsEMKgjsQs3Mmn0t/uuPPuoMZQI8sjbL0CZqFN/wiAXGElQmNwzqLKQQSteskCCMCYAlTFM5pPUJRgWW66lUopT4OXeN3/OFOmjhxkhJHqVYLtdO8ZRatWLHcTlfWq2FIkM2QqHX6aqYH90JA3QpsQWDS0zPo0ksvp9t/+f9CwwcxygZpih2LpRusf6x5nN60OKo0mQRBtOrt4W+8uKG9lcMCI9nBZerivve9qyjN7lUShJqAODJIa6WlJfodXSz1FHrl5dShY3uVxlQqU+m6Y5c2dmhBcAdjFm+68WY6a8JE28dKW4C1LRJcBccSzYzcQQ20SCJRolpsBqwRlWhZj4cPG04/ufU2atG8he0jCJFB1ZkTX2mZ9ZZWcnIKJSehtLZLbOU2b9qiErZKoLZVCUtSEGoCYyV//b+/pS5dutg+FjWJI8B+iCnSItoc8aIMRBUuZEFiBdQmkCyMOCFO9sMf3koDBgy0fQUhMmjntlLQUW0tWqIIQbRKeKQ9bDeDU4mzrMwaZ4tmHWy3bpunzyMIbiCNjBw5in54y62hpj7TiqwJpD2kQRiKGDiOdTgtkpwwOZFiGQns4b2TJ51Dk84+J1TvF4Sa6N6zk15WqjSWrBKiFkOVAPEuPwplVKmxzFXVJVSZsA8JHNUepElO7IIQCQgcmvxGjRpl+1hYI27cQdpCuoNDmkSNGiD9hQQSKxwQS2y7o8Ko8OCaq6/TE1sIQl04YluCaEDniQaSU5L1PKHJyopsk51D/7zqFmqZ0lzPDYDEjvCHDsHyRIl+hB59/GF9LkGIBOZ/xGuJDPSNjtbcDsn7kN5YA5kkdMywQJrOHSvceedeSCeccGINQioI4VgTJh/VE5sCDMvIzMikvl3SKC8rnQ4rAfz761Pojit+pl91xVsMzZRwIo1holS0RUpqE2oDViCmSTv55FP1ttayGhIO9rMo4liuqWBdd9KwyCGAPlkNIChK9yuvvErPBC4IdeHDqR+oBKcSj51Wkebat+9A6Sot9e2RSy2ykilNT3qaTE+8O8Vq6lGCypKIBIzVJ554TG8LQk106tRZv2lTV1j72FBkdLXb6VGTSOINGvQWjRlzgrQ9CnXm7EmT9RR4uoRVqOSoS+jBgwZR5/aZ1KdrW8pUVerKI4dp98G9Whgx9MeyHlGaa1mlG264WR8vCDWBAeRnnD5OG3OgJk0D2M8OmEJZLwsSJTs+k4DPIwhCvbCTltUmhCmo1lP37t3prRlF1CYvk7JSU6ikoozW5G/RbZPWJAOq+mOnSaz369dfrwtCbXTv3oOuvupava7TXARY99ih4MbSKpybVVmQZqBIYKbf0047Q59EEOpDihJAKCNqHrr6rBLfzJkz6PLvXU1bKlrT2gMHqOKoqtJgv5EOrQ4dqxAfe+ppeikItYEJLc48cwKlp1mTT9SEmd6cBqPSOmu4BXvWRM+evah3r6pPIgpCXdm/p0D9tSYjPayq0khrGzZspCeffJJS01JpYP+B1Lx5c6thXBfAVo8ixttCWFFtEoS6gjQ0cMBAylNpiomkb6Y/r+N47fSWTW0CiQ/gtGvX3t4ShPphiR3en00jTGqK9IZew69mfUXLVywLDdIFqBYhPG/v24PhPoJQd7p06Urdu3W3t6qsQyemPwpwYAhl3avL+AIhz5cmCPVlz66D9po1yYBKhloIYSlan+ywBuzCz5p2ykq8hw5Yg3cFoT5gKNnZZ0+yt9xB+oIY8hJ6aApmqJMGS3OHG/h8giA0hvyDJZSbm6ek0WqPhJWYkoJvHCfpzhmU4KmpytLUSbGZDi8IDQF6NmDAIHvLHRZHOKw7R+eECWRtdOzQ0V4ThIazdfMuevP1d1Was2svdgKtSoFH6c93/lVZjsX2tiDUH6Spzp27UPM6TKbDAglM0QxVsdmjJjAtuSBEA7ztAAHUbn8xPfboU7oqDYsR7mc//YUdUhAaTutWrahTR2segJqA9qF5h3UQIgkXGuZTF4Hkzy0KQrS5/LLv2WuCED1g1OXm1fzxQFMU0fbNFiSoVydNRobMyycIQvyQlZUdeqOmNkxjkdEf7aordf0hQRCEWABT53XqUHMVm4WRlyBkQdZnnj1TWQVBEGIdaFa//nV/RRXhIZQslqFebMZUUUEQhHjn2L797LXaYf0LWZBmGyR2ipUoCEKQ6N6jh71WN0wNDKmjCKMgCEGkPuO3YTCyFmKpLUhTHKWKLQhCkGjZspW9VjsYC2lS9zE+giAIcQjeya4rMBi5qVFbkGw9iuUoCEIQMWvIteHUQ7EgBUEQbEwxhUjqVw3FehQEIVEx9c+1DRKqWR8zVBAEISg4tc/c1m2QcKaKilgKgpAoOGvQrIlAD/MBpihKlVsQhESCNc9pHIY6aUQUBUFIVFgY9Vc3lRayHibt3btXbyBAJBUVBEEIOtC9iooKPW4SQomZzpJKS0v1TtOCNBVUEAQhkcCkufy9pIjDfMSKFAQhkYDmcZ8MI8N8BEEQbLgNkqk2H6QgCEIiwsIITcQ6Bo0ntW7dOuTBYimiKQhCogENRJ9MUVERHT58mMrKyigJPTYiiIIgCKR7riGO/MphWIukWfcWBEFINPgjhjxPbhIaJZ1VaxFKQRCCRF1ryWw9stMWJAui2Q4pCIIQFOpq9Gmr0R7qg2VomI8gCEIiAxGFKLKYaguSGyOZuiqtIAhCkIChyHrIOqgEs0oxGbEoBUFIRKCH0D92+lVDQRAEocpyDLMgnRajKZoioIIgJALQOn7VELoIqrVBOpHqtiAIiUJlZWXIKNRCqdcUIoSCICQ6eg5I23oEYZNViEgKgpDIwGpkB0JtkKanIAhCIsHax0toIpxUsQVBSHhY/yCQ1rptQeLdQ1M1BUEQEhXUqC09tGrVuorNsFAKgiAkImwwYnSPrmLjDxw8xYIUBCHRYU0Erm/SiFAKgpCIOMeF6/q1pZFiRQqCkLhA/3jCXOggtu1hPnq33uFmUQqCICQC1dognYLIyikIgpBIaEG0x4VjqS1Ie5+2IkUcBUFIJKB5Jtg2dTAkkKyLzgMEQRASDQgktFC3QQJTNQVBEBIRzOYDoIdoh9Rv0gARR0EQEh3MBwmghzAeZTYfQRAEGwgjiyPQvdgQRhFHQRCCSl31jcdBMlog2QmCIASRuuobv0nD4UO92CZiTQqCkOhAB0NtkKYoijUpCEIiAh2E/mGpe7FZDLEUYRQEIZFhcWQtDHvV0NwhCBWVFVRWVkbl5eVVrqLc9zRSUVERdg2HD4fPuIKSHmEYjGXj4WsmkfyF4GPWkE0ipWWEh6vWBhnpREJiAdH59NNP6IknHqfnpzxHU154Xrs33nidDh48aIeKDItZY4HwffzxR/T0M0+FruHlV16kJUsXh0Rx67at9PwLz1Fpaam+7s8+m0YffjQ1NOgXIOznX3xOy5YttX2ERKImITRxbofepAE4iViQAkA6mD1nDjVLakYjR44KuaFDh1FGRoYdyh1Yaa+//poWtsYCwVu46DuVUK3rOO64EdSmTVv6+z/+Tl99/ZW+zkMHDtD7779PlYetbxrPnjuH/nDHH2nFiuWh9IzzLF++jLZu3aa3BSESEElON2JBCjXSs2dPGjJ4SMgN6D+AMjMz6cDBA7Rx4wbauWsnfTNvLs3/dj4VFORrS23turW0bv260JI/xr5nzx4d9tsF82n//v32LxCtWbuGtm/fTgsXfkdbtm6xfcPp2aOX/v1hSqDHnzmerr/2Opo+/QsqLi62Q4Rz7LHH0BNPPRH2O4JQG0inKEx5PSSQIoyCGyhIkVDYMevWraPf3/EHeuvtN5WwLbKqvi+/TIWFhbR2zRotnhs2bNDhKisP0+rVq+nBhx6g7777jmbO/JIef+Ix2rt3jz7Xff++j+6+51/qXG/Rzp07w37HDdR6cvOa19imeP5551OrVq3oo48/DGufFAQ3OM1BB5G+sNTrplrCo7bEKSQW06Z9Ss88+3TILVq0UPsjnaSnpdHkSefQzTfdTLf97Oc0b/483akzceLZdPJJp9DYsWNpwvgJdPhIJb3/wXs09tSxdNONN9OtP76V0tPTaa6qCuM8FeUVNHz4cPrdb39Po1Q12q2wLigsoIPKaj2gqtObNm2iTz75mHr16kVZWVl2iHByc3Ppumuup69nf62q1sstpReECHCaQ3qEJqLgxXqS+WoNPNwSp5C4dO/enQarqi27Nm3a2HuIOnXqTG1aW9t5eXl0KD9fJayqjhHm0MFDqlr9ra7uzpg5Q7cdwqpbryxMpDnQp3cfSk1N1etu3HPfvXTzD2+hm2+5WVmuv6M+ffrQxRdfUu3VsCqa6WufeNZEevGlFyi/oMD2F4TIsAayFRmyIAXBjb59+9LIESNDrnPnLvYehbMsVVrnZqcdPnJY93yXlJYoET2kXZ8+x9Do0ceHCuTaCuZf/8//0tNPKiv26Wfo0Ycfo8svu4Kaq2p2bZx22umUnZ1NUz+cGhJjIfGoq9mH2Xw4nWBZ7ZMLQKxIodGoJMRpC506AwcM0AJ7wXkXaHfO5Mm6w6WuaQ095xA6OJyPp6WqjdycXLrkkkvp88+n0axZs2xfIdGoa9EIg5FH9mgLkhMxNjixuommkJisWr2a5s+fr9sX4b5b+J3uiKkJqxMlj9asWa07anKyc+ikk06mKS9MoUWLF9Hq1avolVdfoZUrV9hHeEvfY/rSueeeR8uWLbd9BMEdtiBZC0O92CyKIo4CQAJBp0p2ViYtXLSAFi603NKlS6ikpJjatG5NJ51wYsiSQ6fLRRdeqDtNcOzJJ56s17/6apZOU2dPnEQTJkygjz6aSq+/8Tp1aN9BVd+P1cdOnjSJ2rVrp9edJCUn2VX7zrZPdVq0bEUXX3Qxpaak6N8+9ZRTqGvXrvZeawqrCePPot///nfUrVuVvyC4gfTKOthswYIFR//973/TqFGjaMmSJbRo0SJau3ZtSEFNtm+1hmUIiYGZUExgIYYSkJFOzOoJ4PZt9gtLeOo4PtbtXCZ12Q9n/g5whq/tPEJw6di5jetzR8E8YsQIGjp0qDIAFtK1115LrVXhn5aWpmtKYkEKEUGCgug4He9zJjjex5jhgXk+81i3c5nUZb/zd9zC13YeQeD0AR3EeniKVkgCEgQhUeFaD3QQIhkSSHiIOAqCkMhwm3qoeUiq1IIgCFa1GsLI1WsQsiBFKAVBSGQgirAgWRxDVWwWRxFJQRASFegfT37CTY5J3KPIqikIgpDosLEorxoKgiDYsB6yBmoLEmAHe7qJpiAIQiLAHTVAW5BV4ijCKAhCYgINhMHIRiPQ38WGsxRTqtaCIAST2mrG2O+coT40H2SVSEobpCAIwaMuusZheBmqYsOxJwulIAhCEKiPtiEMt0PqTpq6KKsgCEK8wsJYm9YhHMJwuLBhPua6IAhCkHHqnXMbIhl6k8ZUTV4KgiAEFafOsQ6a/TKuFqRTSQVBEIIOdA/OHBuu2yB5QxAEIVFwah4sR57ujK1LrY684TQ5BUEQgopT77jnmoVTW5DsKQiCkMiwFpoGY2igOBChFAQhUdEWY5L1QTp2ug1SqtiCICQ6ztq0tiCxwp68FKEUBCERSU1N1UvWQNf5IAVBEBKRyspKe80iyTl7BRDRFAQhEQmvTR+lJPMjNYIgCIkMjwsHzZolVc3mIwiCkMjAUGQt5PXQhLnsKQiCkKhoUTSsSC2Q8OSlIAhC4Ihg/JlGodNAxHZoHKSIoyAIgcVF36B5pu6xQLIfllW2pCAIQgLhtBh5ogrAbxjqYT6smHyA80BBEIR4piZNwz5tLaraNPQQ29wOqdsggXkC0+wUBEGIdyJpGoujKYrY5vBhbZAcUBAEIdFggYQGsg6GXjVkD94WBEEIOqbeQQPNCSuwDJsP0lROQRCERMM0FLGuq9jsYS4FQRASGW1B6j9GO6QgCEIiYluMoXUQepMGjj0FQRASETQ5sg5qwWSrkYVSEAQhEYH+wYJkY1Fv2/s0YkEKgpDIcKc1W5IhgWTrUURSEIREBNqnRdHouK72Jg0LpSAIQqIBy9EkJJBAxFEQhESGP0ETsib1liAIQgJiGogAXzVkQxHWpH6TBsCTVVMQBCERcNaaWQexRFuktEEKgpCwmAYhtI/1D/5w1XqxgXmQIAhCUHHqHg/v4XXXNkixIgVBSERSUlL0kjUw9CYNEGEUBCGRcNaWoYGmDoa1QToDC4IgJAIsipWVlXoJoIchgRTrURCERAU6CA3Eh7tMYzFsoDhwbguCIAQV0zB0075QJw12ihUpCEIwqRK/mkSxrKws5IdwSXv27NGv12BDrEdBEIJJzZYiU1RUpHuyEQbV7aTS0lJ7l7RDCoKQuED/0tPTtYNIYhk2DlIsSEEQEg3WPSzhzM8uyIzigiAkNKbumTqo36Th9kcTBBIEQUg0TO2DLia1bt1aN0YC3imWpCAIQaI2ow+aBwersbCwUA8YR/9MUk5OTsisZGEUC1IQhCBRm9EHzYPj9kegt+31MGo7mSAIQhDhySrYaJRebEEQEhI3Q5CbG7U4YsJc3mDFFARBSATcDEJziA+cfhdbxFEQhETGqX/YhguzIOEEQRASFRZK1kQ9UFwsSEEQEhk2DrHkzy7ogeLmDkEQhETGaTDKJxcEQRAUTnHEeqgNkncKgiAkKqYOVvuqIQulIAhCIsLiyEJZ7aNdvC0IgpBIsHFo6qD0YguCIChQpQbQQnZaIFkceSkIgpBoYOpHYGpiqA1SqteCICQyEMhQ1TopSa+HfRdbLEhBEBIVVLFTU1O1MGIdehjWiy0IgpCoQBS5HZInrUiCh1StBUFIdGAxsh6G2iDNDUEQhESH9RDaKFVsQRAEAxZIWJNhAslVbalyC4KQaED3MKM4lqG2SFMUWTmlyi0IQqIB3TOr13C6kwZgB4ulIAhCImIKJAhZkCYilIIgJBpsJJrGYmg+SN4hCIKQiEADdcdMUlJIC0OdNKZqilAKgpCIpKWl6VcOqwmkWJCCICQ60EB+DxvO1YIUBEFIRLjTmpFOGkEQBJtqAmkvNVLFFgQh0WEd1NVtvWbDlqMIpSAIiQ70sNn8+fOP/uc//6FRo0bR0qVLafHixbRmzRrXavb2rXvstfgGBUBRURHt2LmL1m/YSOs3bqED+w9SRWWlHUIQEgNk89SUVGrTphX17tWNenTvTh06tKeszEw7RDDo2LmNq6Z16NCBhg8fTkOHDqWZM2fSj3/8Y2rXrp3uzS4oKHAXyLVr16hDgymQBYWFtGjREvp85tc0b/4iKikppczMDO2Sk8MMakFICCorD1OxygdlpWWUl5dDx48aTuNOO5kG9O9HWVnBEMpIAtm+fXs67rjjQgL505/+VBUWbbRA5ufnU7N58+Ydvf/++7VALlu2TInHIiWQa+3Dw4lngYTVuHXrNnp2yss086v5+qX0oYOPpRNPGEVdOnemFs3zKD0t1Q4tCIlDaVk5HThwkDZu3kxffvUNrVy9XmUYoklnjaXLL7lQW5TxTl0F8uc//zm1aNGiyoKcO3fu0QceeIBGjx5tWJDBEkj0TC1Ztpzu/vejtGvXHjrlpFF03jlnUd9j+ihRTAvNHiwIiQwGSJeWltKyFSvpzbc/oAWLllPf3j3pFz+7mXr17OEqMPFCXQXyJz/5CbVt25ZSUlKoUNU2lTZYgyIBL4PUSYN7WbxkGd193yO6RLj5B9+jn/74JmU9DqLMjAwRR0GwQa0qOzubRo8cQb/6xU/oikvOpU1bttE/7n5Qt9UnQuct6wHrYuhdbMDr8VxSONmiqtVPPP0i5StxvOUHV9G5k8/W1WlBECLTpnUruuLSC+nKy86nzdt20BNPTaG9+/bZe+OR2jUNugcNNDUx7LvYQbMgyysq6J33PqQ16zbSJRdOovFnnk7p6Wn2XkEQaiIrK4vOO/dsmjzxNJr/3VL69LPpukMnPqld06B72mpU1iPWsdRv0rBjzPV4Zu3adTTzq2+of7/edJ6yHNGuIAhC3clWInn5xRdS+/Zt6ONPZ9C2bdvsPcGEjUMsbZGsaoMzd8Y7uIcZX86mQ/mFdN6k8dRcqtWC0CDatG1DF513Fm3fuYfmzl9g+wYDpzGIbWgHLwM7ozh6oGZ/s4B69+xKAwb0s30FQagvqppJI4YPo3ZtW9ljh0vsPfGP0xjkb9IALZCmKDoDxzN4SyZfWY+9enSj1q1b276CIDSEjh07UId2bWnXnr1x3lkTjtMoZIOR/UOdNPBwBo5ndqsHWVJaRt26dqZUaXsUhEaBgdM9e3Sl/QcO0QHlgoKbUciaCKq1QQZFJMvKy6jy8GH9jqkgCI2nfbs2VKqMjvKKctsn/nHqHRuK7F+tDdJNUeMS3Je6F7EeBSE6pKWmWPoQFI1QuOkd/KCLWIbaIAMljoIgRJ/gtMCFMHXPua7HQeL9S4bFUhAEIVFg3WNxxBJ+sCLD2iDVLnspCIIQfMxaM0QRw3xMTQy9i40lVsWKFAQhUahJ73QVGyscCEtTUQVBEIKMU++4yZH9HVVssSAFQUgcnHqH+RrMWnVomA8HFAtSEIREwU3voIWsh6FhPggI51RUQRCEoGLqnSmWrIVhE+YC57YgCEJQYb2DGMJhGw5Nj3qp9wqCICQgbEGahiELJQh7k0YQBCGRMIXRtBwZ3UkDDzgRSUEQEglT83jdFEltQYowCoKQiJjWIsPGIpa6DdL0ELEUBCERgf7BmYQN8wmWOIrQC0I0cWhHIDA1D+umHqKqHTabD3AqaLzSTN0cbhYT5wqC0HhKy8q0aCBvBRFoH+shC2XIggRBEUeQlZlJqakptHPnXttHEITGsHXbTsrOyqCM9HTbJ/iEFQWmWMY77du3o8yMdNq0ZZsu+QRBaDjFxcW0afN2atWqhXItbd/gAQvZRG+Z9e6g0KF9e2rbuhWtXbeBdu3abfsKgtAQNm3eQjtVPurcsQO1bhXMr4TqNkflWAexDPuqIcAyCJZkhrIex546hrZu30ULFi4KlPgLgp+gXW723Hl08FA+nThmJKWlpdp7ggVrhKl/IXvSFJAgiAlu8sQxx1PHDm3pvQ+mqdJvl71HEIT6sHHTZnp/6ufUt09POm7YUNs3WLAmOkUyJJCm5WgqaDyDb2JPOut02qasyCkvvkZFRUX2HkEQ6sKevXvp6WdfosLiYjpv8gRq27aNvSdYQBdNw5CngVRVbms4DHZygCBYkAD3Nn7c6cqSPI6mTf+aXn7tLTp0KDgfPRcEL9mzZ682LObMX0STJpym8tFolaeCYTwBp845dRDbYdOdBcVyNGnTuhVdf80VNLB/H3rptffo6edfoi1bt9Fhu4QQBCEctDmuW7+BHn3yWfrw05l04vHD6OrvXUq5uTl2iGBQk96xUIYmqzAJmlB279aVbr/txzRy+AB6/8Mv6I67/kmffPoZ7d23TycG5/0LQqKBPFBZWUk7du6kd9+fSr+94+80Y9Y8Ov2U0fTzn/6Q2rQJZs+1iRZEuxebNbDZ7Nmzjz700EM0evRoWrp0KS1ZsoRWr17tKpLbt+6x1+KTg6p6PfWjT+ntdz+mQwWF1Dwvj0YMG0B9j+mlE0BGepodUhASBGUblJSV0e7de2n5itW0aNlqKsgvoPbtWtMlF06mM047NRCWY8fObVw1rUOHDjR8+HAaOnQoffnll3T77bdTntKF1NRUys/Pp2Zz5swJCSTEMcgCCcrLK2jTli301ddzaeGiZbRm3SYZSC4IipzsLOrbpwcdN3wInThmFHXu1FF/xCoI1EUgZ82apQUyJyeH0tLSdH+FtiD/+9//0qhRowJvQZocPnyEDhw4oHvpMAAWPdxHlJ8gJBpJKUmUl5OrxKK9rkm1bNHCNf/HM3URyJkzZ9Ivf/lLaqHuHwJ58ODB6lXsxYsX05o1awIvkIIgJA51Fchf/epXlJubq6vYBQUF1d/FDlrJIQiCUB+40xZamJScnKw3BEEQEhk2EM2x4WHzQbJyCoIgJBrQP+ewRz0O0olUswVBCDpOg5AtSPizc/3sq/NAQRCEoOE0BFkgGazrd7GBiKIgCIkO6yFT7Zs0giAIgcNhLTqBtYjmxoqKCtvHImRBAqfJKQiCEAjqUEPmKjbroG6DlKq1IAiJDnQQwohXK1kTsR1W4RaxFAQhUYH+8agetiTDWyQFQRASGBZGHg8Z9l1sQRCERMGtxlzNgkQgDihiKQhCouDUOxZF6CHv073YIoyCICQ6pjCy0RjqxRaRFAQh0TEFEi7UScMegiAIiQprINesXXuxxZoUBCHRgO6xswxGJZRus/kIgiAkIiyOAN8AD7Mg2XJ0VrWl6i0IQqLAeodlncZB1iWMIAhCPMOTVaD9MWRFmtahWIqCICQqEEZ8rIt1EIahvEkjCIKggAXJfTIQSayH2iAhlCKWgiAkEqbmYR3CyFoIF9aLLVVsQRASCVPzeN30068aCoIgJDrQQlMPdRXbVE3T3BQEQQgypqUIsG3WqHUVm0URSz5AhFIQhKDj1DnoHxuKbEmGpjvjHQDrgiAIQaEmo4/1DmHgzG1pgxQEIfDUZPSxeGKZnJys1zl8UmVlZSiAIAhCIoM2SIgjnO6kMS3ImlRWEAQhyDj1T1exxXoUBEGwBBFWI5ZwEEz5Jo0gCIINt0EyWiBZMQVBEBKZauMguQ3StCQFQRASDeifaUFqgTSFUaxIQRASFeifaSTqXmysOIVRhFIQhETCTfPg5/qqoamigiAIQSeS9oVVsQVBEBIJ03JElbpaJw3+sPXI64IgCIkGOmhSUlLsLcuaDFmQIoyCICQaztrz4cOHQwYjCLVBslCKWAqCkIhgyKNTA0O92KYoIoAgCELQMXWPBZL9sAzNVCGWoyAIiQzaIFkD+QUa/dEusRgFQUh0IIpog4Qeco+27qQRBEFIdNhqNK1Ime5MEISEBMahaSCaWsj+RieN3hYEQUgInMYhtkPCaHfYqKVlVhpC6oqptIIgCEGEhTEklKbwYT1SlTuSvyAIQjwSyehjrcMyTCBFBAVBSBSgd6bmOQUT22GdNJEUVRAEIYhEMhBZPEMDxYEZQBAEIZHQgmj3yfCsPtXGQYoVKQhC4mHpXkgYuRdbb9mIOAqCEExqqx2Hf26BqVbFlmq2IAjBo/7GX7U2SCioWJGCICQKToPQNBJ1FVssRkEQBAuerIJx7cUW0RQEIRGperPQqk0nmYqJJcTRVFBBEIREANrnNA6VYCaJ5SgIQsLDhqGph6FxkOzJVqQgCEKQcdaUtSDaVWxGbyEgO94WBEFINHigOFNtsgqxHusP4vCwitjKysPKVdrucKhHTIqb6tQWZ0J1kHmdcYb4kjiLHs541MN8nKIoIhkZJNIKlTBLS8uosKiY8gsK6FB+ARUUFFJBIVyR7axt7MvHfuVXXFJC5eXldoK2T5gAIM7KKyqopLS0znGm9ys/HINjEWeJhI6zcivOEA/5+fkq3lT8OOPM3uY4KyyqijOnNSSE46ZzrlVsJ1IahcMZvKi4WCfKQuVY7FCaYz8c4s10R45YH/9B5q5Qx7Oo6nOohFxaVhbYjK/jTMUP32+RWpaUqIxbzzjDMYhvdmVlqoBR+4MI7rkMcabuE8JXVKzETt0/4qHysBVfzjg74ogzLarqGMQ3hBPpDOfEfqF2OH5ZPMMEEjuEKpARS7XVY2ROlQgbG094CEj0xcUllnioJapLQYh/xBkyqFUIFGtBjEac4byhQkqJB+Ku8nD8xxmuv1LFDwpcpDMIm7aYdUa1AzUAnPewElUIpiWWltgePqKehR1GcIfFEXEY9tlXqVpbID4gjDojqkQFi8crEP9lypJEaW9l+vi0KBFnWhhV9RlVPIiiVyDOYH0XFFiWvJe/5SW4DyvOCnXtAoLmFYgjXV1Xv1Wi4gy/LVSHq9hhFiQ24EQoSZe4aOuBMPqZiBD1qApZohw/CRhpBpY12r+QAVHd8wv+bRQu+G1Ov7EOrhOCiHQGoffzuvF88NuIMxTM8RJnfsPxojtpsAHHwpiIkYYqDSw4VOGa0iJB3HNbJarhsfwkEE9oHmhqQUemhyWGZhA0VcQyuD4826aOM1irMAJQ/Y5XC9xLWA9DFmQig0SLhOJ3aV4T+pqUWJcpsYzFAgvtZNzGGCvXh9EFuCZY4rEYZ7oDRl0fCr5YAHEUeo4ojGO5NPYJM91gPexNmlhMVF7DCSQWLQ9YRrA0YB3FyrPBdSCjx6rlAasMNYFYKuxwHagV4LpiselE1wQgkuVltk9i4pZeQgKJZaJZkhBHJIxYb+9DZtdVsibO8Ph5FsdYER83cG0oVEpiwPrG72txVM8v1uMMVW7EWaLgfB6m/nFnTcJ+1RBVw1jP6CbojEDvY1NdL363TFkYEJ54ASMRIE5NGWf4/dKy+Igz63qtOEsEnAYh7p/9sA6R1BYk73AeEFT0GMQYL9HdgEiilG+Ky+YByPEWZ7C+dXXb3vYTPC+IYzxFGZ4vRgTg2uPrSTceUwNZF0MDxdkj6FiDcv0djhJNYPnCkvMTjAONp2E0JrhmWEQVKt78hF8TjMcshTjDtVcqQyLIuKVnNLeFWZHJyckJYz3qB6/EMZ6HNVj3UKKsYH86lZBg0Jse6+20NcEZ3q/nzm/GuGXAeAHPG3EWz8+9PpjPCuush3pGcRDPD7OuaEsiAKUiHpUfb0MgTSDO4rlAYfS4v2LvRcuKs2AIi645xFGbc30xjcKQICZZE4hzOgm1QQYdPGy0RQUFWCloJ/ISWKnotQ4KGCeJJgovKVNVa1SvgwJGegTjfmqvIUMHWRyx1J003J0NTOUMErinWBoXFy0gXl6N30QbbRBfRcMwFq8sYliNiLMggeevq9pxnw5qv37on2n54961BYkdpnIGDVgOQahaO7EypDcWUXlFuY63oKHjzCMrEs8iCM0RTnBPXlveTYVT70wt1AIJT94IojjivvBwsQwiEP5oW5GwFoKaIUCFqjJGW8gQZ36PLvCTciX+QWhXNWHdc2JqYVX9OqCg7dGvHt+mwMqY0RUzS0CC23vJc0tGE0tAglkIA7R5B7FGYQJRdDY5hr1JE0RQVQyq9cigAIhm6Z4IcYaOh2jFGeIqyNYjgzgLUrpwah/uje+P00aYBRm0TIGbjMVJKKIN7jNaFhGqnl5OEBwrWGkjOveJNBZki5ux7jP4aQNAPLUFGTRRNIFllQgJF1Sqe43GsyyP0nliHdxjRWV0ChXEWSKg4yxA9+qWztkPVW2su37VMCgkgvXIoH2osVVGJAi/Xy/DbxYXF+uv9vndMYT04ZZJ6gPi/LDP6Qy/WYgPcinnt0UXhO8AMTXpHt9jaEZxECShxD353aiM38zPP0SLFy+ip556nDZt3mjv8R78dmOtZXT4+PVNHLwJ9M03c+kf//gb3fbzn9HPf3Eb/fL2X9Bzzz1DmzdvarTY1wV0qjRWYLRA+nCtAII4Y+Z0uvPOP+o4u+22n9Jvfvt/9MHU9+nAgQN2KG9BGvPj2TQVyEemDga2FxsPkYXfS/AbJaUltGnTRnrnnbforj/fqTP64088qUXATw6r0r0xHFGJ3484KyoqoldffZl++/vf0Lz58yg3N5c6d+6sLcnHn3icfv+H39Gy5Us9vxacv7ECCcHwI85gYT/51BN011130spVq6hdu7bUoUMH2r59O/3rX/+ke++7m/bu3WuH9g4rzoIpkJwesGTDUX/VEBumJRkErIfo/f0UFBbQw/99iH74o1vonnvvpVWrVlNKSrK911+sT4U2/J79sh7nzJ1NTzz5JA0eNJj+9c+7tbvrzj/TvffcRzfddBOtWbOGpkyZQvkF+fYR3oHvTTcGP+IMz/Szz6fRq6+9SmPHjqV77r6X/vqXv9Of//xXFWf30rnnnksff/wJTfvsU8+blXAt+HRskOA8w5Yjttkv9C42HAfgZTzT2O8K15VSZSV+9PFHNHHiRLr7X/+iRx5+mE444SR7r7801mr2o+qEiRzefe9dys7Opuuv+z716tWbMKMUaNGiBV14wUXUo0d3mjt3Du3auVP7e8kRfCc6xuMMry++8cbr1LpVa7r88u9pa5uNmrZt29EF51+kr+Prr79S1nmhfZR3+HHPfmLqHc9uxnoY2GE+fj3E5s1b0NNPPUs/vOVHNHr0GLXdMizC/QRtag19hjjMjzhDVbG0uIS6d+9GXbp0tX2ryMrKpv79B+ovFKLK7TWNuWfEtR95BlbhOZPPoRtvvJE6dexo+1bRsmVLVbg0p3Xr10dtuFdNBE0gnZjPNGyYD2dsPx66l+iE69NDTE9P1yV6enpGkwkjo+/bXq8/6kgfnjusxDvu+CP98Y4/qcKkue1bBTIfOhxatWql2ya9pnGFij8CmZOTQ1dccSWdd+75ar16nMBqRGHStWsXSk1JsX29IyhvDLk9O/ghH3NeDhvm48fD9ovg3El9UHfdwGeoM7u97iVpaWnUqVNn6tixU6hqbbJt21ZavGQxjRw5QlcfY5mmzi54ZujZnj79Cy1aE8ZPcBXQaBMUnXAzaJxaGNhhPk2eepuARt9yE8dZcXERvfHm61SQX0CTJk2mvLw8e493NC6zq2N9jjNMTrJs2VLd3oiOm4f+ez89+dSTdOWV31MCOZFSfLAg9X0HEOgfCm0MEmdd1L3YTFBKBiH+wPvfH340ld5440265pqr6bjhI+w9ggkG07/3/jv0//73f+h3v/sdvfbaG9R/QH8655zzdMeXUHeceodttPeyJkIkwyarCJQFGaR7qSPWLTf0vtVxTRRnSJRfzpxBjz3+OJ1wwhi67NIrKCsry97rLY1J8/pYn+MMbd4XX3Qp3f+fB+iee+6hm2++ifbu2Ut33PF7X8aOgnjUCbdrrsmPlwHtxQ7u65M1g/u2V+sJjmuKGEOa+/bbefTgQw9S927d6Gc/vY3atm1r7/Wext2z/zGGKvQxx/Sl444bQSedeDL94Ps36jjbuHETPfPM03qUgNeoVGavxQ911Ta2HhEeGlLtkwvmMl7B5SvT2N5KHKzn1rD7xrF+P3ckwlWrVtK9991Lebl59Mtf3E7du/fw9TqaIf038PdwWFPnFQjm8OHH0YknjqEZM2bSrt277D3eoeMsAUD6DKtis8rWVW1jmaTkxHiIJty43FD8jrPNWzbR3//xN53efvGLX9Kxx/az9/hHMuLMXq8viOukJO8FElbh/PnzaPnyZbqTxglEsn37jjoeiwqLbF/vSPbhnpsCxJ+Zf/TzdXoGhcaKRTyCzNqYWzZrE16zdesW+s9//k379+/X4jh48JAmeV6NLlSSvH+tFEN5/nTnn+i/Dz9Ehw4dsn2rKC8vU1XsDZSamupLz78f9+wXkZ49vFHd1t/FZosxSIKS4jLGLujwa1INxa842717Nz355BO0ZMli+slPfkrDhw1XaRAT2OL7Oqbzfmqtxr43n+KD1d2mTRtVgAyixYsX05dfzgh7wwivbs6dO1dZmPNp3Bmn60ksvATpy238ajyCtOWWviw/q8kpVMXG0uvE6CewDPy0iGKBxgqcX1b3G2++Ru9/8L62RJDpH3vsUfrvfx+q5l58cYqn03hFI7MnNbJQqgsYXH/NNddSz5696CEVL//5z3309ttv0jvvvK3i6UG6/4H/6Jl98LaN1wPF0bafHJDmK/O5QftYA9kfy5BABkkcGT9eu3KC+MTvZmT4++ohqteNzex87V6zdu06/WpmUVGxyuhv06uvvebqPvv8MyorK7WPij7I6I2NM7Rh+mF59+83gP70xzvpoosupC+mf0H//Ne/6B///AdN/XAqnXrqqXpGpIEDB3me5tBOHSTDg+MLS9ZA9tNiOX369KOPP/44jRkzRlV5ltDSpUtp1apVrhG9feseey0+QIN2ocqEfoo/fguzr2CWGIiAX9WRtLRUys7KanQGwbUXFXs7jyWqhYif2sC9IA69ypAZGemUlZlpbzWckpJS/XF9P0CaLijIpwMHDyKxUV5ec/1OO6xMP8jKyqSM9HR7K37o2LmNa97o1KkTDR06VDvUZm644QYdn2jPRedYaLIKrZaNzFyxRrKyhvwu7RCHsB4xK42fbTV4oNF4fjiP1z2zHD+1uczMLM+eH+IqNSXV3mocqakp6nz2hsfg+bRq1Zp69+pNvXv30WNG/RJHPAt/XmVsOpAu4KCHcOqerXanaGSuWAPtJUi8QQfVPGScaGBlguicK5ZB4RWtiY1xruTk4KczxJefhX5TwOLImhhmQTJBEsu01DTPrJBYIVVZECgMokW6qq4HscA0QZNEtO4R50n3yYprSmCpBilVsJXI6xjWY76HDZLcTGZTLOOd5BRYV8Et3SH+ELRokqLiq6k+G+EH6FRJi5LFzaSlpyrrKrgFMTrvmqLT00vMAhLrGPIIC9kUzsDP5qMMZavki5K1EGvAEop2tQdxlp6WHuA4i36tQsdZenDjLD0jmPdm3hMEEnrIftBDPVCc4bBBiwhYDEGsAsFigZB5AazuIFresIxRqHgB0lgQ2+h0Woh367EOmsbiCKfFURWiYZ9cQDkIgmZJ4oZRAqIzI0jAYvGqWoc4w3AOP9419gvkEfSge9UmreMsYJYWnn+mz2N6PaEOksa6x0KpRVL7KNgjqEAcMzMzA5N40WvttVWM9umM9Ax7K/5JU9Z2tNsencDSClJtBTWUYAztcdc2U/OwjhoANIJ1IiSQ2BkU8YgEqlZeVa/8BBZQVqY/pXp6eprnouIHqFpnKuvOa/BMYEUGQVRQCONeEgVoIM9NwXqo8lqwqp21gepCPLetYTgP3mbwq60LiQS/59dEFl6A2gPemPErrXMBFs/NE3jefhXCTYWbUYhnBz8WycRSR4WVeOMzw+PBoQ3Nb4uO4ywe23BRoKBpxW+LDr/npyhHEx1nPhbCTYWb+LMfPzdHJ01igAeflZ0VVwkAjw3VHVR5mwKMjUSmiacMj8QOcWyqZhUMJ8qMM0tS11BU3gjamEcrB9WdkAXpVFE3VQ0isCCz40QktTiqjI5e5aZ8PrBcEWfxIJKIJjQNNFWBwqDDBu+Ux0O+YnEMQptzdWo3BJ3PCOk8JJBYsjUZDw8zGkAkc1SCiOUGdTyLzKwsJY6xMdgdlgXiLJYLFiRsTHYRK73JeNMp1gsWPM/snOyAiiNwzzvOGjRv81I/MRZHXjoPCjJIGMjwsDRirWDga4sVcWRQoOC6UHWNtTjja4v265eNBcKD64rFDkL0VutrC1y12sRd08z0y9oHPzisJ5nT2ieSMJpoi0NVYa32oqYv5fFwYP1YGSo2S3RtccCyjZGB0bgGNEEgzmK1RoDrQpzFyiuJujMmI0PHWSzXCPyGdRADxkMWZKLDGSwX1QwlTk0VJ1b1MDMu2kcRR8hgiLOmtIwwxhHxhXiL5WoswPVlq+tsaiHH80KVGkaB5H8LxAPyHJbaelTPSqcmVkzsSPTIsiwjS6BQLfIrOvDKIKzYvLzcmGk7qytWtTZbO1TT/IozLYzKIsvJyYm7tjPUDFCw4Pr9HHIGYYQ487NKGOqQKKGD5kcMQdhnX80diQziAxkOIpmTrTKfEiwvLBP8DhIpLB9kclRXUe2JR3ScpaWq+1CZXmU+r9ondZzB+oEwqt9B23E8xxmu34ozq33SizhD2rXaQK1CLMizW0WkHtqGuEGcQQ/VMjzji0hWUZUZM3Vpn6UyJTI+Bkw3JIHhCMQ3LB8M+NYJVp0XVfugTKSBeNGFi4qrXCX6GIeIOMR9NyjO1CFWnKXo6iCeQ0gYAxJnuA+rzTlb3x/us3FxZmVwxBlqJTiv7qGOwU61WAQayBNWhIb5AIk8dxAvqHqjN1kn4twctbTavNDgjsSMahInaB2xah2ih0SqBwwrQYRlhQyQl5urEq6VCYIa57gvfv8ZQpnHcaYyLMQN9444rRZnyg9xZo0fVHGWxXGmxFbFIfYFO85UQWAXnpzOEA86ztS+SHGG+EScIV3BGkV8wVnvhSfXc5h04oL4NAkTSLO6LUQGkahf5FfiaFmXKjHm5VKL5nnUokVzy6n15sqxMCCRa+tTJeZEJBRnKsOyddncLc6UH+IMmRxCkahxhnyIAhZxpgtXxJmKl0hxhvhEnPGrqM6MLtQNrkEj/nUVO3zCXBHHxoIYlFisHxJn9UfiLDpEalJkY1EVNFUlDTwjHSAIghA0ajIKtQVpr2vEghQEIZFhIxFaqC1I02LkHYIgCIkG9A9NjlyrxnaoDZIV0xRMQRCEoMOaB/3DiBMM8WE/3QaJDRFGQRASEa41Y2kajCDUScPWI5a8UxAEIag4jUJT/3g91EnDgbF0HihEBjHFcQZ3xHamH5xQhTNuJM5qxxk3EmeNx80Q5HexWSS1BWkGdDtICAdtFOUVFVRSWkpFRcVUUFhI+fkFdPBQPh08eMhyhw7RIbWdX1BIhSpMcUkJlZWVU6Ux7jSROIw4Ky+34qzYirND1eIsX/lZcYZ4RZzhGHOsbqKAzIn7xv0jHnScqXhxj7MCHZ+Is5KSUnVMhU6jQs04CxTeZg3EUs8HyYg4uoOIQzyVlJZZYmhnYCsxKtGrPKwFwIxwrKKERyKvUGJaqo4tNhJ5UTEyv0rIxjFBguOsWMVRfoHKwMohk3MGRpyZjeEA60eO2MJgx5kugOw4g1BUVFTNXxo0cF9IK7hPpDPcNwpXxIOOMxUv7nF2RMdnVaFdpOMccYbtCj3nq32AEMKpd2wschzDhV41FHGsDjIrEh0SaaFKdCV2BnUm0rqCI3AcBKCsTGV+JRiFKhMgEQfFSkLclKlCA/FVUFikMnepLYZIcHageoBDuKCBUITOq+IPhVIQQJzhfnBfLIg6zhoSYQodZ3ZBgwKpEOdVgosaDH5LqBloIYtlWBtkQzJ9EEE8oMQuKi7SpTFKdSS4aIPfgVWgEzEEGEIZpwkY94IMiPuA1eeVpafjDJapssCR8SEsXjwbP9DCCNFX94H7MWf3jyY4J6xIXSCr56OF0oPfiXcgiIgrLLkgCXsXW7AaadlitDK5vcNjDh8+ooUS1Spkei8yilcg88H6QQaE5eMXeFYQFlRHYenHEyiAEWeoTvvZLo3no4VS/TbSdyLjzGOwGtmP1/WbNOyZyNVsxAEsOLQvwmJsKlBylahMDyss1gsvXCsyODKb2ZbtN4gnWPqIs1ivQuL6cJ0QqaZ8vnheMAJQwByNUwu8sbDemaIIBwy/8F7sRERnMJVgUd3hiGlKcAVW22eRtjRiEWSwmIozdQnc9hmrlhEsbV3FVdcZG3F21Gr7VNfkp+Ufa7D+YVo9LuhDAskbTjVNFDijQ4hi7d5R7ca1ofc8lq4NFjauKxaFiKuQlgjZnjEArgeWYywKkZUHVGEcZ80U0YaNRc5rsPaT8Mf0TCRr0irRYzPRMngupaoaGyuWGjIRBAjiHavoqr96rmXlsRFnpWXluioby9V/PE/EGYatJSpm9Ro6CKer2JyIYiEx+YXu1VMJIpYTLYOngvbRprYkIY5WRo/9dIIrxLU2tSWJKiyGh8VD3kLPth6fm8CWpFMLw8ZBJor1iCpFrJfobpSVlWprpCnQA5jjMM54MH9TgN/F78eT4YFrhSXZlB2VTQnSN2shXGg+SCzj6UE2FEQA3u6I9R5iN/B4MPDa7wyPuEKcxZs4AqRp/TaJzxleF8JxYjk6gSWphx+pe0gkWBRNLQz7LjYvg4rOLCqjx/ODxz34KfD695TlGI8FCsOFol8Cj8H+8dIUEQk9LlcVLPFYKDaUkCjabZHagkykCEBPdXlF/DdCc4bnB+ol6BxCe228w1aw13GG85epOAvCpCQYpdBUTTp+wmmCDURs83pYJ02QQQZBiRiUW0WVEa+MeQmEEZ0MQaFCFY5ed0Do5xKgnuBy9fyDUEDWhFlzhh7ytrYgE0EccY/WO7vBspYx4YVXVV/EGSyhIKUP3AosYq/SAc4bb6+J1gbaI0t9qq34jds94RnCn53uxTYVFDi34x1Ud2L1jZTGgLYur6xIWFpBtBxQoHiVFnDeIL6RgnQQxF5tp86xKPI6CL1J47YMAuqWtYgE6Z5MIGTRtiIRZ+gpD2qcoQocbSvyyFFM8xac5ggniTADEAsm0j03PVrdNQHmcOWRQJZ+DDJ6tNu8KsorA2kJMV5YkYizWH67qLHAiqxMgNl/kJ/ChNK0PoJWtQbotQ6qJcQgs0ezdE+IOIviPeI8QeqYiYSuVdjrQQUTVkAHOW1oCxIepmdQQGmQCHPeWfcZHYsI7ZqJMEAY1l607hNt3IkQZ7jPwwGqWbjpHfzYaIS9GKpiY0fQLEhUE6Pd1hSrQCCjUcBVqvPE8wDnuoK4ilYnFOIsEUBeClJBwIahSbif/cmFaGSsWKSismmnMMNv+/X7SLiN/S0c76fFzfFTk/OSaFjd2npvQqvKr7hikKeCiBmPeKa8HuhOmqbsaNi7by+9/MpL9OKLU2j37t22r3fA6mtsbzYShF9DewqLCund996h119/LaJbunSJHdobohFn0ThHQ8D8jStWLKfPP59Gb7/9Jm3evNne4y1HDh/RAhIUkOYBW424N7Yitfvwww+PvvDCCzR69GiVIJdqt2rVqtABJtu37rHXYh/cKD57yRHgJxjAPWXKc/TY44/rzPPSiy/RMcf0tfd6R2ZmBmVmZNhb9QfiiG/i+MGuXTvp8isu11/bi8T//d+v6eKLLrW3vCE7K4vS09PsrfqDzhlMm+cX6ChZuPA7VfC+QCtXraQDBw5Smzat6a67/kLHDT/ODuUd0IWc7CxKTU21feKDjp3bVNM0aEPnzp1p6NChNGTIEK191113HTVv3pzS0tJ02qxmQboJYzzSVO/CItKXLFlEL6gE7Ldlgd9rTIHg5/XiGzJIgGedNYEeeOABeuSRR6q540ePsUN7R2Pv2c84Q5PAZ59Nozvv+hNt2LiRLjj/AnrowYfo/vsfoL7HHGOH8hakryAOZ4Lu4d6c+SfUi20ugwCqAo0Ri4ayd+9emqLEsWvXLtSrd0/b1x9Q3WucQPqX8PML8vXy2GOPpVEjRtPIEaOquS5duuowXoJe+8bEGdKZX6xcuYIeefRhatGiOf31r3+lm266hUaOHEW9e/WhnJxcO5T3HD7SNMZHtHHTOzMtYD2skwbLoIhkU7STwJr4+JMPaemSpXTLzT+iTsp89xOrcdneaABHfYwzWJCgVatWlJySrNebgsbEGfKLX2+XwHp86+039bvkt/3sFzSg/0A9Zq8pCOooB2gfnKmDYVVs3hnv4Baa4rWoZcuX0euvv07nnDOZjjtuBCU187cPzHp2DbtvHOvns9+/bx+lpaVS87zmVYWy/4/MLhQaGmdWvPnB1q1b6LvvvlPpajgNHjJExxnEvSkMAT8LUi9xPjvOA+YMZ6FPLgCfnrUP+JvZQYGqMk6Z8ryq/rSgCy+4uIkasXHf9mo9wXF+xtiefXu1BbR37z7dC/vXv/2F/nTnH+nFl6bQmrVrfBtOomLMXmsI/sXYpk2baPv2Hbrg3azWn3/+Wbrjjt/Tn/50B7322itaQP1K842Ls9iFtdCqVVjDfUIzilsuQDfuU2IBlYcr6fPPP1Ml/AK64vIrqGu3bvYef7FuuaH3rY7zKc6Q8GBBorp437/vpUcfe4y++eYbmjN3Dv373/+h//3f/6EZ06f7Mii5MbesBcmHOMPvbNu+VTfhLFjwLf32d7+hN958QxUka2nxkiX0n/v/Q3/80x90G6UfIunHb/iBaRwC1kKeE1Kvs1paNx1+gFA3Nm3cRA8/8l8aO3YsnXzyqTDL7T2CGxC+Vq1aU+tWreiaa66h+/9zPz388CP0HyWON990E+3evYceePABWr1mtX2EsHPnDr2c/fXXNHHiRHr4v4/Qs08/R48+8hjdcMMNtHjxEnrs8Ufp4MGDOpxQfyCIVVpobTuq2MEoGTQ+iVRBQQG99PILlJ6eQZddegXl5OTYe/zHepYNvW91nE9xhjFmV191Db344st0/XU/0GNEO3boSH37HqsE81q66qoradu2bfTZZ596nibN9F9//IkzxMHBg4f0+qWXXU5XXXkNdezYidIz0qldu3Z08UWX0ITx4+mrr77WVqTXKNvKXotvzLTF61giTcBh3XXC3CDgxx1hiMesr2bStGnT6PvXf5969epl72lCGnjjSAJ+pgKIJHqwnW21KGhOG3u6zvhLliwN9XZ7RWOSvp/Z5vBhq7nhpBNPogzHywC5uXl08imnqKphM1qxcrnt6yEB0QtT91gQeTYfJmyYT1DQop/kfQ/ylq2blRX0YihCZ331JU2f8YV2M2Z+oapFO7X/vHlztd+6des8jWt93/Z6/UGcxUbCb62q33ibAZ+4LS0tsX29QceZkSHqQ2OOrS8ZGZnWisvv4Rpat26jCps02rd3n+c92xDioOB8fsif3OwIqg3zCQpoaPWa9evXqargdhVvSXT/Aw/QnXfeGXJ//vNfaN3adTrco489rv0WL1nsaeJFwm3oM8RhuA8/OHToEK1bv5b27nV/dRW9pEiguBevr6kx6cS6Pu/zDH6jW1er42///n166QTTkGFW89S0VM+vyY+85RdOg6Uq3Vku9NlXbPDOIJCcXPV1Mq8YMmQYPfzfh10dXgEbNHigDvfb3/xW+514womeJi7ufWsoiDM/2LhxA1133fV6Mg+3AgOTe0AI8vJyPW/TdVap6osfcYbrwxtHqFp/++083Zttgu1NmzZSeVk59erV2/N0nxwggXTCgoklXBKPxmdx5ADxTnKS928ZtG7dWiXcfq4OHQ7Nm7fQ4Xr27Kn92rdv72nixT03KrP7EGegU6fONGjQAPrwww9p1epVYWkO72d/8OH7dODgQTrttNMpPT3d3uMNjc3sfr3N0q9ffz2hwvTpM+ibed/QUfttFsQdCpy33nmLOnRoR4MHDdb+XoH05dc9+4GZX8x7Y/9Q6mAP84B4BtXNILWV1IXGvrLnh9UNULBcdunlekKRv/zlLnrzzdfpm2+sdtp///teeuftd+n0006jk086xT7CG3CvKSkp9lbDgMD6EWctW7aia66+WtcS7r33X/Tqay/T3Llz6P0P3qV/3f0P2rJ5q7LKv0+dO3exj/AG3GtQBBKFi9MghDVu+iXxYFz2dB4Qr+jEn9y4xN9Y0NGA6ZT8SFA64TbSAoyGYNQFZPKTTz6FfvPr31BaWjo9/sQT9Ktf3U5//OMdesD4+eefRz+59afa4vYSXEdjmzxwvF+CMWrU8fSb//sttW7Vhp586km6XcUZBtbn5xfS//zqVzTp7Ml6dICX+FWI+oHbfeB5wh86iGW1+SCXLVum54N0I57mgwSYO6/Qx7n6TBDBe/bsDg2Kdg7NiDZpqamUnZ3V6MSLt1uKS7ztOTZBlXr79m0qk+frxNmmTVtVBe/ki1BnqOp7VpbdO9wIiotLqLTMv0++FhYW6AlyMWluRnoGdVTx1aZ1G3uvtzR2ztGmwm0+SIC0hvkg4RYvXqzng2zZsqUefqbTpHkQrwfFikQm86vjwQnisl279rq9zWtxBKmpKa4JoL5E6zx1BZ0waK/FtF14z7hbt26+iCPuMUXdazTw+717TG02YMBAGjVyNA0ePMQ3ccQbYqk+PJumAmmCLUcmrBc7aMAi8SOzNTW4z2hlUlQXU5pw+jG/QNthtDI74ish4kwbHMG6T9Y9CKPpAPaFLEj2DBppqWmBFH8TWH0QyWiRnpYe/DiL4nhBnAfpLOhgerqgpgu+L26DDG2bG0EEFiQEJKigpz49yg3ziK+maprwA1iPaLONJmnpaYGOsxRlOQa5es1AINlYRO3aqGIH04rEfUFAgloIpKakRr0ZAXGF8YdBjTP09Ea7qoj2Oa97kJsSpIdo1lJiEaR3aCCW7NQ9W4oJbQxqhoCARNtiiAXw7DCjixcgvoLYrgZhhLXnBSiIg9ZGB3T+UdXrIGJpX5VhiHUYjVgif4UmzA0yuL8gWkT4XCmqPl6AuMIwmKDFGe7Jq1flkKGCFme4l0xVCActHTC4L743Fkre1lVsePIOXgYRWEMYvxWUB432oGi3PTqB5dCYb0bHGrCKvbaEcP4g1VbQbNA0nw9pGrgGwLoYaoMEQS0lGGT2IHTY4DFhwC4sFi9BeoBFFO02zqYAHSiIM6/TuI4zZXEFoaptGRXevgvflLgZhDwRCJ4jnLYgqwiuBQlww5kZmXGdeHEPWZmZvokWRBi/57UYe4n13DN8e+74HcQZfjdeCcJzrw2354P75XvG/rA3aaCV8fxQ6wIsiXh98Hg2sILTlFXnJ7AkrDiLv7SBOIPlmOpzDzNqKvHapINrzlJxFoSaQ024WZDcQcMuTCATBSTe7Kz4KuFxqWhz1JnO9vMTtK3B+o6vOLOqu3qYl+3nJyjM8PvxFmcoDIM8ZImJ9FzMZsewKnY8PcjGgoZnTO4QL1YRZr3xow2tJpDh46XqiGvEO/CYzKGprldfg7L2LZG0PWMYXG+mer5B6pirCdY+UwOxzukFS1XTDG4bQ22gtzE7O9uzYR/RAg3lqPI0VUY3QebRBUsM53id0ZU4WsNTbM8mAtcCkYTwxMLziwQMBdSqMhJEHAE/D/O5mHqoq9gwJ2P5wXkNhstAJGNxKAMeVnZWlraEYukZ6YIlJzsm26jQxqzjzOd22prAs8P1oGCJxQ5CtDFnZ2UnRLW6Nnh+XDwzLZB6S8EeiYiVQFTpGUNCZAl3lrbYYkkcGX19Ks5iZQA+roBrBHqsY+xFmX19WVqIYiLO1DWgfdYyEILdIVNXUOhDB7mqHRJI9gCx8PD8BtYaqrE5KgEjkpoqCnAdaGtERor1yQGs4SzqWpXF1pSWEZpIMpVYI868erMoWuD6ULCgyt2Uk1voZ6euAy7Wm5i8gg3CmgxD117suhwYVFDVzlXVR3RG+JmAdWmurEX8NtrP4qVtGNcNiy0vN0eLpZ/XjXYzdIDkqt9GFTZeCnZcJ9r6cnOs6/azoxC/hQIY6Uz37sdJnHkB3zuWptaZ/mFv0gC3gIkG7htVx7zcXJ2QUP3wKirYYmyel6tK89hso6oLiDM0UeA+LCvcu/tAHMEKy8vN0wVZvBQmTnDdsOCa5+Xp+/GyQMbzwHPBb8VTAewXSL/QPqdRGPrsK0hEi7EmEGmwKHOys/WnAWCtWNXvxqklMgKsLlQJYf1wgg1CcYS4QRsb4kxbKaqgQbWyMXGGY5FOYfGY542XIVq1gfvD/cCixP3hPnG/jY0ziCJqJTkqvnDeWGn7jEWgfYgb08F4DCtGOPJ4KVggPtAeCGsFpTAyKHdQwLpEYkY7DkQOmdZy1jb2IaHqgdZ21QZiG8oIKkwQwb3rsaYqnnQGVQ7WEjIs4rL2OLMm40C1HcfqOFdxj3hEmCCC+woVnIgzlUYQZxC2VJWGULDWGmcqfnEMiyLah9E5FNQ4ixbI42wg8ts0IGygOKuo6SeEg4RmJcR0nflR6qP9DZYgEjW2LWdlamsfqp1W2yJEI9EaxRFnEEU91EVlWMQV4iXHJc7gzw5CgWo7jk20DK7jTBW+iDNdKKs0hCafWuPMHuKUiHEWDZzaF+iPdvkF4g6JUVtFDod9ErPVQbygoHDGF+JR0qI7EmfRxymIOr8qx/4hgWQPsR4FQUgUzIKF16GJvJ6Qk1UIgiAwTuOQmyawrDZZhQimIAiJgFttGfoHf3bVhvm4HSQIghA02Bg0jUJe53bdsG4uM6CJiKYgCIkENE+Pg3SKn5tIRhJOQRCEoIDv0Ziz+WgL0hQ/qWI3HI47lDqWq2rHEKpTFV9VcSbxVTMSZ97DHTQct9JJ0wAQZyhtysrLqaSklIqKi6moqJgKCouosCjcwb+4uIRKy8qoQpVOLJyJBG4X91wZirOSUJyZccXxp+NMhSlTcYYSHccmXpxZIoj7Ly2rirNCjjNOa844U/GbqHHWWBBf3PaorUf0Ytv7QiCQiGR1EC/l5RUqkZbQofwC7ZAoS0pLVUYup/KKCp0wKythplumekVFpfaHOEIkCwoK1XH5OkGXlqrMb39iMqgggyNuilXGRnzlh+KsTMdlpDhDJkf8IK7zVZwdPJSvj4NgHlbnDDIcZ7jf/AIVZ+r+EX8cZxUcZ7o6eFgXumFxpo9DOlNxrY4rV/44p1B3zIIlib8Dy4g4hoPEiJIZiRUJDpm0MQkOkY8EjXMWFhZqq0kn4qPBSMRIWrg/xJXO3CUqzhqZSXXhpIQBgolCBgUMhMJMyPGMlSYq9H0hzrSwqW3UNhoK4huCCouTz4nnouxKO4TgBuKNNRDPxfVlzaAkvMYAYUSiYmvv8OGqF9ijBTIAMgYyfmEhxBdCEp9xj6jR96LiC3Fm3QvizA4QJcyMj99B4RKv6RXXjevHfeB+cF+NKUgigXPieeB3YGFCfCWPV8FRYQojsKvZrhqZsEAIUR2uyuTeJyQ8EFOQ4806Qi0E1UBLsPy5dvyGZamW6EyP+Isn9PNW1x2y7HyKMzwf/C7SeNCbeOqKWWnm54AlnK5i+/FwYh1OPAWq2os2w6ay5JBxYE2g88cLayKaIM5QiKAKh2p0UyQj/dxUgYKmCsRZrKdlXF9paanVtKILQnuHj+jnBstVXQOeX6zHmR8gDnSnjGEwaj+YkU7TMtGAGKKzBaV5LIgSngNEGhZZrFpGiDNYb2hjjIV0g2vAM0ScOdvVYwXUTlD4FceIkCOtI83HSrpvSqCBeCZmPGjBZHE0hTKRQK8oEgjaGWMh0Zqgl9Jqmyq3fWIDVM2s6nTTWI01geoq4gzNFLEEepu5+STW4DbdeGumiDbQP4iiqYWhcZBYxppAeA0yOjoVYjHRMlYpj3GUsVEVQkZHnMVyZoIFiTiLhc4I/D63+8WqZQt0m6iKMzzfRMNMI8hvbEVi6dpDkwiWJBIr2mBgpcU6eIAYKIz2oqZEd4rojB771TFdsMSAJYnfj5cqrC5YYDAksCXJFiRAvkvIYT4688RZu4sWSQxKb6LqNgoStDfGW5yhva+pRBIFCsa7xlN+0m3LCVrdhjDiWbFAYhkSyESwGgESgB7iEAeWoxMtksjwPideHWcqo8eD5egEgg6R9DvDwxrD0CfEXbxhxRmed2IMA2Jh5IKM17VAmp6JIJKlZaW6bSpe0YlXZTy/XrlDukBmiWeLAhkd1jenda9hUY7n1yJhQPgZZ01JJO2Dv+7FToRIAKhqNXU7XjSAJVfq01AR9FTHWi96Q0B1V2d4e9tLkMZiueOvriDOgpBfIsH5J5I4gtA4yKALJUp19NIF5R7RFum1JWxZEWX2VvyjJwhRmd5LICoYwxoEkFdwL4lS1QZ8rzxgPOyrhm5KGhRQEvK9BgVkeK/uCeVIYyfmiEW8rDZqQQlYtRTPPx7eUIoGpv6xHoYEEgQ1EmAJNVXvr5egtPOqClRZaU1HFjTQlupVWkB8BfH9ZnQKJsrQn2qvGrIoBtl6RBta0CwhpryiPOpVIKQIiEhQC0wv0gPiChZ3EOMM91SuCuKgpgfzvnid9TApLS1Nr2AHPIMWCRCPIFpCDDpson1/aKdDW1pQQY0i2hYR4iseh0HVlQpVo4jHoXE1wSLIS9Y+UwPDJsxlkQwSQbYeGdxjNAs2WKVBKyidoGkiWveI85SVB9N6ZHBrQa5VAFMwcZ9wYW/SBE0ccYOJ0HaCAiBaw0qiea5Y5ogyDKLVNAHLMRHePME9BsnYYLGvSfTDBLKmgPEIqgRBrvYweGyo4kXj+eE88fj2R305ouIqWs0IKFAClnVc0YVnwKrZJjAQ2fF2UnJycmiDMdfjGViPQRP9SETjXnF8U1jcsOQgMn5bJ2hXa2zyQJz53XOtf1M9Jzi/0zdGNwQFFkPWO8Sls1bR7K233jr6xhtv0PHHH09Lly6lZcuW0YoVK1xFcvvWPfZafIAPbXnZsHzo0CFasmRxnRJpSkoKDRs2jDIzs2yf6JObk0OpqSn2Vv2BQGF2cL+EqrCokFauXEEbN27UsxU1z2tOffr0Ua4vpaWl2qG8A2m8eV5u2NCO+oIMhTjzQ6jwG3v37qGly5bS9u3bKKlZEnXu3IUGDRpELVu2cs2z0SZZxVVubk6j4qwp6Ni5jWv8dO7cmYYMGUxDhw6jRYsW0XXXXUetWrVS+ShV5+9mr7/++tF33nmHRo0apQVy+fLlgRBIZHJ8+tLLhLthw3r60Y9/RPkqImujTdu29MzTz+rI94qszAzKyMiwt+oPLBJkdj/YsHEDPfzwgzRnzjfqGR2hHCXuBw8e1AXIueeeQ9dde72Kq9Z2aO/Iyc5SYmyN5GgI6CDDZLNeg3Q8d+5s+u/D/6W1a9dRekY6HVVpHHNN9u/fj27/5a/UcoDnIonzI84gIPFEzQI5RAnkUC2Q119/PTVv3lynifz8fGr25ptvHlVWpBZIWI9BsSDRvoQZnL0USMydt2HjepVQI//G6tWr6N777qHzz7+AfvmLX2lL0ivS1UPNVom3oWBSXkyE4TUQwrvv+Sd9/vkXdPVVV9FZZ01UAplLO3fuoCkvPEdffjmLbrzhRrpWiWRjxKsuZCihycrMtLfqDyalwNszXrNmzWq6449/0Jb2TTferGsjsF6/+moWPfvcs9S6dWv6x9//qS1Kr8nKyqSM9HR7Kz6oSSAHDx6s4xMCee2114YsSHyWOeyTC4zbieINJB6vqz3Z2dk0aOBgFcFDXN2AAQNpz969lK2so/Hjz/JUHAFmj2lMB8uRI/60pa1fv5amT59Bo0ePpGuuuY569+5D7du3VyX5UPrJrT/TluO0z6bRnj277SO8A514jUknfjRH4Dc+/uRjVWPZSN///g90gdKpU2fq2rUbXXjhxXTFFVeogngNzZg5Q9cCvCZoHZ+mBnLTAdYR72HvYnstKH4SCx/iRzvRZ599RsOGDqN+x/azfb0DVdWGPkMc5kdmB7t379ZW1/HHj9GFDINE2aVLVxo0eKAS0fW6DchrEGcNBXHtR5zBqp82bRr1PaYPjRo5irhjFaQrS27cGWfqmsPMmdOpoKDA3uMdR30qSP2AxZH1jztp8Fy1YHKAIIHMXlO11w8Q2bNnz6bNm7fQ5EnnUGYjqnF1xbIeG3rf/hWQnMEjWSJInKmpaWFC4BWIs4betz7KhzhDWxiq1m3btVdCmGP7VtGiRUtljY+m775bqMJ6X6hgiFRQ4GcPHdSCaFiQIKwrij39yijeoUr2Jr6H/fv30+tvvEojR47QvYx+0dDbxnF+RVmPHr1UFbGTsnhm0CEjQyPdbdq0kZYsXkojRhxHbdu2s/d4R2PSOgphP6Ks6hrdfy0lJZnaqbhCgQMx9Zr41wcL3IfTQHTeW0ggnQHjniZ8iLrx/OtZtGXLNpo06Ww9BMMPrIfb0PtWx/kUZz169KCbbrqRNm7cRHfc8Xua+eUMPSLgvffeob/85c+6uvj963+gLSOvaXRm9yHO8vLydFV627ZtrhYirOCS0hK9zlVEL2nCrOUpLJicJrAMbBtkU4K2sw8+eI+6detCw4YOj7sxY16DHsLTTx+nOxfmzv2GfvWrX9E1115Dd951Fy1ftZJ+8pOfKat7sIq3WC+0/ckvaKc9XlWh16/fQAsXLgwTQayvWLlC9/wDf9JaMHTCFEMn8Md+1yp2IKzJJryHRYu/owULFuq2R/TO+oV1yw29b3WcT3GGTP3ddwvoww+nUo/u3eiHP7yFfvmLX9DVV19FGWnp9M47bymLcoMd2lsad8v+xBlEb9KkyXr4yWNPPKYt7r1799LOXTvpi+mf03333UMHDx3UYWFpek0g9MHGFEmsmw7+ofkgAa+bfvEKbrApgPX4ycef6LFiJ598CqWk+DmgFg/WXq0nfkbXihXL6Z577qGOHTqo5X107TXX0/nnX0g/+uGt9O/7/k3r1q2j++//N+3cudM+wjtUjNlr9cfPOMOwsR/96EdUWVFBf/jDH+jqa66i6667lh588AEaN24cnX7aWD1mFONJvaYxcRZLmMJoap+5HjajeFDQJYC97jcrVi6nWV99RRdccL4vg3ZNGlsoJPmQ45HoPp32Ce3bt48uueQyHUcYH4oea1g/qFpfcvHFNG/+PFq46Dv7KO+w4qxh9+1nOkMcTTzrbLrn7nu1xX3muDPpmquvpr/+5W+6prJ12zYlogNVwezdq6whfEgnfmAKI68jnk1/Zb0n6Q0roQSHpGT/2/0wFOOTTz7Wb2eMO2O852+BOIHANfQ54rhmPrT54dW81atWU8uWLahT587VrhdC2eeYvqoafoTWrV9n+3oH0n9Dk75fccYgPeF1wquuvIZ+9av/oauvvtZ6GWHPHlqzeg0NHz4ibFypV/jTzuk9Tt3DOpp/WBxBWCdNkMBL9f4lXYu1a9fQnDlz9GtL/fr1r5b5vaaZzuwN/03Emdcgc6WkpmqhLHf5+h/SYYn9uiNenfQaFKSxHmc1gdfhPv7kI219Hz/6eF8K5eQmMD68wO25o4CGP7skNimBcxnP6EHGPt4HCppPP/2EDuXn03nnnue79Qj44TYUHWcegx5sjHHct3efqkZ/U+3VuOKSYv3KHHqw/Xj7KCW5ca9/+hFnkcBY29def4Vee+01uuiii7Q16TVIXslJTXfP0cZpGGIbeRkO69qC5EDOZTyDh+in0G/cuIGmz5hOQwYPpoEDB9u+/pLSyJK9sQJbV04/7QwaPGQwPf/88/T8lGdp2bKlumNmwYJv6aEH79evZ06ePJkGDvI2HnGvjbWGrDizNzwGc2aiXfajj6bS4088Sj+97Sf07LPP0jnnnEvXXH2dTz3YSY2Os1jBTeeQJkwXdqfwCAzqVvCGgR/ACpoxczrt3LWLJkw4i1q29H6AsxM8uuRGWkN4/n5YRJhk4Ve3/w+NHjWKXnjhBbrt57fRL2//hXK/pC9nfUWXXnIp3XjDTdTS44Hi0bhfNBkk+WRRQSBff/11+stf/0KffPIJtW/Xnv7f//tfuvXWn+jZfPwA99uUVnM0YRE04SZH+ENAm73xxhtH33777bDpzlauXKkDOYm3CXPxYSa86O+1PYyGXUxHhQTcvXsP/eaD32Ci3Jzs7GoPvL7gI/H4uL4fFBYW6MlyMalHaWkZ5eTmUNcuXalbt+6+WEN6WEwjpodjkMYwVZzXoCDGq5iY6APvZLdp00Z3yjT2mdcHzDeKeUfjjbrMB7l48WI9Ya45H2TYd7GDVMUGKUo00HHhNShR0SmDsWpNIY4gNSU1KhklNS0656kLGLOHYT0TJkyk8847n844fRwdc0xfX8QRpDVi9nUTdDr5AfoLMDXcwIGD9OuamGTYT3HEb6WqawgKbjpnaiCcns2HN/yMbD9ADyMSVdDRCTdKnyhIUWIflCpUTeAeoyVsVpwFo12uJnCffjVb+YVT85xDmMK2WD2DJJTpPlpETQV6hqM53MSP4TVNDZokojUwHpkqLTUB4ixgecntXkxDUVuQaD+DhxmYhTIIwIIMWqlngueGQiCaQDyCbEVqQYtyIZCWnqrOGxzxcAILOd6+Q1MbkXSO/XUHnKmWQcQSkOCW7hCzaDcjIGEEOc7wxcRoj+XD+YJsRaanpUe1luI7hgFoAt0ztQ8GI2CjMWyyiqCCki9opR+wxD9dL6MNRCSI7bcs/h5EGaWnp+nzBw1tcat7i2si6BwLIYAWmnkJ26FOmiCDe8zM8EZImhJk9MZ8B7smkCkyVKYIXJype/Kq+QDnRZwFCZ13MjOi1l4b60AL2YEwCzJomcEE1hAyR1BAZsS3kb0EVndagCxvpAGvP1eKts0g1VZQACdCpx2A/sEwwBIO2qjrAyyMLJZBFcrMjIxAVBvxfDBY1+s2IfxOBn4nAENYkPARZ16nbfwOaitYxjsohJFngoqZFkxDEWAb+7UF6dwZVLSwZGXGfeLFdGp+WSkQYXxY32th8RJcO+LMr8IRvxOPb5uYIM5QtQ7yaAZT93C/5jbrYpgFiaUzYNDAYNfsOBZJvGWSke5v5oMYo2DhdBJP4Iohjl5XrZ2gqu2HxeoFuGI87yA1r7jh9mxYF1gLq1mQWI/Hh1ofkOFRdYi3+0TPstXZZHv4CDILhCbu4kwJo1+vLjrB70Io4y3O8L510MUR1GQI4pnBuZpRQbYgGQxbQBUiXhIvEiyquk1l+SKeYIXFi0jiCtEp15Q9sIgnWJGWSNqeMQyuF4ZDPBaE0QD3zNM/sgvLbYkgjAwePzK81SYZ24lBV9dioFkACQjV+1i3vnFpsBx1gdLE14l4gkg2lRVbV/SzTTBxdLtP+HE+CwkkB0yUiDHBEIbsrKyY7KnF80CixfXFSpspkggykdWOG3vpBXGWqYQR1xcr6VlfUwZfk+0ZQ+A5Io0FcaxwTTgNQt7GEvEA5/omTSJFEkCbJOZShKUWK6D3EBnKstZszxgCcYU4i6Uxf+g9xvyOfnfI1AU8Q1iRmKIsloaaWXGGtB/8Nse6wBPmMmFmiamgiQYLkmVNNt3QBhROaDtDRo/1titkrmx1nU3ZNgpgAcGqRZzFkmC7gfkUcZ0o+Jo2zpJ0+2xuTnZMCbafmIYgW43OZ6K2qz+kRLMgmZA4qUSDDOdnAsZvsyXb1CJdH9DGp8VJxRnizs9qN+IMlg9m1W5qka4PuE6IEwoXXL+f+Q3Ph9N4PI7kiCamIYh4YJEEbEm6pqhEtCBNeHA0Slc/hBLCiMxiWUDxWZpb40uzVJzl6AzoZcbDuWFd4/ngN+N1lmvLmszW92HVFryNM1Tx8XwQZ3heQnVCwmjn+WrvYrMTrGo3hDIv10pUKO2jZSGhWoMSPC8vVwsjhvEEId6tpoosfV9osoD4RyPOEDcoPNABw+dGHAYhzripAukMPd7Wfdk7G4EVZ9Ygf46zeKmZ+IEz7fAQHwb7wwSS1xPdgnSC0gRWkWUhQdAsyxKihgSH/YhMZ4TrCFb7EAaJ3uoxtxKrruIgM6h9zuOCAKxw3SmhMj6sFizReYIMW9c4gyDiGC24SjwQ7+hpxbmDFme4G9wzRi3AoszNhaBxnFkTGKOgcbtvtzhDfFtxZp3D6/f2gwLi0NRBPd0Zg3URx8ggfjAcCJYkLEuInE7MtkMGhp/ln2P5hbZVdVAlVogGRDFRpo+y4ixZVyFhyXCVsrY44304BoUTzmGm1SCD+0QawX2Hx5kSPGNZU5whvhMpzhoCtM7UO/66AghVtUUQG4dpIaL0hlUJh3X4IaEH0eJpKIiGusQZW5iCJZghC1HiLGogrsz4ghayHxziM2R3mwEFQRCCjtOCxHfHeRt6CCuyWhskq6cgCELQMbUO+gcrndfhlBVpGZEsjlgKgiAkGrAYue2RDcUkmJXsIeIoCEKiwNYj655uc7QNRh7yE2qD5EAilIIgJBIslGw9sv6FCSQQcRQEIdEwNQ8aCAdLUi/NnbzOiioIghB0nHoHHWTXbMqUKUc//vhjGjVqFC1dupSWL19OK1ascBXJ7Vv32GuJTVl5ORUXl1BBQSHt27ef9h84SPsPHtJ+FWjTVRGL3jAMCm+el02tW7Wkli1bUuuWLSgzy5rCjNs6EgVOcKjGHEZj+GHl1DbiCv8sqsagYewo3hxJSor8BkmQQVyVlpapNFVMB/MLaL9KZ3tVOjt0KJ9KlP/hw+g7sAaU442sFs1zdTpr3aoVNW+ep19ZxFs5gkXHzm1c01CXLl1o8ODBNHToUJo1axb94he/0JOf4I2vgoKCcIFctmyZdiKQ4SCxVlRU0Np1G2nN+g1aFNeu30xbd+xSCdVqt6gLzfNyqG/v7tSlU0dq27Y1DR8ySL8BEVSx5HirqDxsCeNha1kf8MYRChvEUUoKXqXDu93BjC/ETWlZGS1cvIx27tpNO3bu1uls9979dojaQWHSXqWtY3p1pw7t21BXJQD9+vbRIppohYxJJIHs2rUrDRo0qJpAYvB9YWGhCGRtFBYV0bLlq2j2N9/SomWrqby8wt7TOJCQO7RrQ2NPGkXDhw6mjh3aBybjI6PDykZcQRSjCeII77TjdU8esxYEdu/ZS4uXLKNZc76ldRu31rsgiQTiqF+f7nTyCSNp8KCB1LJFc3tPYlEXC/LLL7+k22+/XU+Iglc18/PzqdkLL7xw9KOPPgqrYq9cudI+PJxEEsh9+/fTt98tpumz5qqSfA+VV1jDoaINHlpLVSUaNqS/EsvR1LNH97jN+JVKDMvLlDAqqzFaGTwSKGBgTUIsk1VpH4+2EeJo+46dNGv2N/TNt0to7/4D9aqR1AdY321bt6KTxhxHY0YdR+3btQ1MgVwXarMghw0bRjNnzqSf//zn2oJE8xiq2K7TnZl+iQbaEb/8ai49+MgzNOWVd2nTlh2eiSNAXKP98vOZc+g/Dz9LL7/+Dm3fvtNzgYkmuNaS0lIqKizSVUQ/rv3IkaNUpsS4sKhYPzOvhMUL8Mz37ttP7039lO576El6/+MZtGvPPk/vobLyMO3YtYdef+djlc6epk8+m0EHVbpLZCBzrHVYosCAccIaqP3cVNXNL+ggcW7avIWenvIqPfn8a7R6/WbdmeAnEMqpn86k+x99mmbPnU8lJaX2ntgECQhtjBApXKvf8QUgxmVKlNFehGo9J/hYpUIVtgtVVfqRJ6fQq29/SDt37/P9mrds20kvvPYePfbMC7Ry9Vr9DnJiUjWDOEBaMpuEsC8JCdxJrCeyaIOe52++XaBK86fo62++s3qim5At23apxPsKvfrmO3TwUGyW8kgjsBYhjrGQwSDORbAmS0p8sWAbQrGysj/46FN66LHnacXq9bZv04A4WrR0Nf3rP4/R5zNmUam6tkTE1DpYkHDsh2USemsY3pFIFiQy1NvvfUhPPvca7dl3wPZtetCeN23GHF3V37xla9iDbGqQudhqjKXrAlztRvzFErt276Enn36B3nx/mh6mEyuUqvh64bX3acorb9L+A7GT/psCpGWkbegfa2BSkHoC6wvGMb702tv0wSczYirRMmhnW7lmg7I4ntNVoViwjFAFgQC51TxiBVi0sCabuibAoIB76vlXaM63S8KqcLEC4mvmV/PpmRde173pQcZZoEMITT/TOIR/kpnpEslyPHgon155412aMWuebheKVfDotu7YTU9PeY1WrFrTpBYbrLKi4pK4aLOCEBXHgEhCHJ976U1aumKt7ROboIliwaLl9IxKZ3v2ol3U3hEwatI45C0WTDgYj66dNEEHDfqoVn8x65sm6VhoCNuUSD77whu0bv0G28dfUJCWxIk4Mni2EEn04DYFu3fvpWdffL3J2xvrCkRh8bLVKp29pqrbdR+cHq+wGLIG8ra5nmSa/LwzyMCi+PDTL3T7Xryxbeduesou4f0E6QKvvMVKlbU+aJEsKfa9eSK/oFBZY6/QyjUbbZ/4AK99frdkJb321geqtlBs+yYGpjgivWiBdIoitp1+QWL2nPn0yedfxe09btm6k1545U3CGz5+gFhCZ4yXY0G9BhYkOuP8euYYdvT+h5/S4hivVtfE7HkLadrnM+OqxtBYIIwhy9EeRK+WVaPpOQBcENm0eSu9M3WayizxO6QBEzzMX7icpn/5tS8dJRXlFXp8YbyDuEIPt9fA8pi/YJGqoXwd14YGCpWPP59FS5atsH3indo1Dc8LNWpT/8IEEsTzQ60JWBBvvYeBufHfS4dnNPXj6bRuvbfVN1RP8YZMENIEbqG0rNTz4T87du6i9z/6XIlx7Pby15VD+YX0rjIogvHGTfU07Jau+U0aJqwXG2Bn0EQS97Pgu8X07aKglIYq8RYU0dRPvqDCQu+q2qgqxuKwlIaCYVMYEO1V+kZcffr5l7R5207bJ/5Zu2EzfTFjVqDSAeOsKcNYRNow00eYQAZNGJm9+w4oMZnue0O912B2Iby25gXokInWzEWxBO7Jq2Fdq9eup2++XWxvBQMUKh999hVt2x4c0a+JaqJpLzVBtB7xgOctWEibtu6wfYIDGtA/n/E15ecX2D7RASmgvLw8cAUKU1ZeFvV0DtGF9XiooND2CQ5FJcU086s5Ok0ECWcaYP3jdI/1am2QCORU0XgG05bN+WaBvRU8NmzeRkuXu09P11AOVx72pQOoqUDBEm0rcuOmzbRk+Wp7K1hAR2bNWUDbd+6yfYKBU+fQ/oi0wf7QxtBnXwErarRL16Zk5ao1tH7TNnsreKDKOOOruVEVtPIKWI/BSQNOkLyjaQ0h7ufMWxDXoyNqo6CwiBYsXByoWoVT5yCImJuCLUltQbpZi0GxIDFxK8ZzBUnw3Vi/cat+pS0aIK4wtCfooDc7Wj3a+w8epJlfz7e3gsuiJSvpgLrXoOBmQTpfnAmbzYcPCIqg7Ni+k7Zs3W5vBRdMtLFsxeqo9DSi6hnUtkcT3GO0rO41a9YH2npkNm7eTlu2BLc25tbcWG2YDwiKBblq7To6cCi6HRixCAq0ud8uavQEu9p6VKIRbHu7imi0Q2JOzGUr19hbwQYW98IlwRkq5wbyABxroOu72LyMZ3APy1euDcS91AV8GmLf/sbN54eo8vN965KSEmV9raHPv/iMPpj6Pn319SzaunVL1Cy72kDab6y1jCnz1m3YbG8Fnw2btuqp5IIILEgIIxyni8DO5oNpudZv3GJveQ/iEZ8orc15BQqCLVsbV/05evSIb9Xrffv20eOPP0JXX3MV/eY3v6G//OUvdPvtv6Trf3Advf/+u1o8vedoo9sh8W2Z7TsT52N2+CzIXvXsggwbVcgLKs9WZVpeD4Jo7t27V8+W7DXp6ak04YwxdMsPLqEf3nBZrW7yWadQVma6fXR02bJ9R6MEzuvX8BiI34svTaGXX3mVzj33HHrwgQfp2WeepX/+45/U79h+dPc999Bnn0/zXKyRDzCkqTHgq4SJUksBBw8V+D6blFfguZlah2122uDBMB97XxhBeOB79u73fJIFROJpJ4+iK6+4gIYM7k/9+vWu0Q0Z3I8uvXgS9evb0z5DdNmr7hltYg3Fr9fJNm7cQFOnTqXBgwfRj354K40cOYqOOaYvnXLKWPrpT2+jnJxsZUW+p61Mrzl85HCj0js+gNVU5OZkUWpqVScryMnKUOmrB7Vu5c33r1Fo7dy1296Kb1gczecPPzj4aQvS9tcEQRgBZrzZf/CAnpHESwb170XnTDqDdu3cTf9+8Bl6dsqbyr1B/7rviZD776NT6JXX3qe7//0kvfXux7pUatE81z5DdDmgqj+NmbHGr7GPy1cspz179tLZE8+mVq1a2b5W4uzdqzeddNJJtHjxEtq6zfsmksZ8ahVjiPcfaJphL21bt6Cf/vAqGn/6mDCR7NmjC938g8vp+JGDbJ/oY804HgytwH2wUJpwe2RYFTsoHFGW0IED3s5A0rJFLl1y4URKS0ull1//gNas20Jnnn4SnX/OeEpOSlaWxW7avfcgnXTCCLr4wrMpMyOdDh7M9zRh7dt/SH+4vyHguo56XKVlli9fRllZWdS9R49qiRNj0QYMGKgHcu/Y4f0QLX3fDXwmpaVl+pvcTQFEMTMzky6+4GwtksnJlq2TmppMebk5lJ6epre9AJ+qDQJu4sh+vAybMJcDOw+KN2AJeflNacTP5RdPpB7du9JHn8yghUtW6Qid9+1i6tSpA91y4xXUo2sH+v7VF9DYU8bQ2nUbaeNm798FxyS6lYcb3gvth00Aq2vXrl2qGp1DWZlZtm84LVu00Mt9PrR1mem/vmCYULRfWawr23fupUeefIm2bt9Bl108mSaOO1EVzK4tZlEH06AFGU4TWIYN82Eak2hiAWUTUKVHQ0WSkprR+NOOpzHHH0fzFyymj6ZhdnJr34yvvqWXXnmX2rRuSb/+1S104pgRNHvutzTl5fepzIe3U8rLMci7Yc9OP3MfnvthJeDoGIGlCOcEhU9qqmX94FMJXtOYtH5E9/p704zTuVNbuvDcM+iyCydEdCcdP5z27LEKkUshkuNPrNYm6QV+TDzsB05DENtwSBO87toG6TwwHjnikT2UnpZGxw0fqKvRCxevUJZqVacI2rMWLFpBW7fuoFatWuqE9PWc7yi/wJ/PI6DtFcVDLINLrPUK7eR3NNbfB1c3g39e0KljOzpz3Mk0ccLYGt2I4YN1dTorK5NOUIV2Xm62fQbvsNJZ/BOpcOSCG/sD2YuN/JXUzJvqBl7re/eDz3V1doJKwO3bVXUyZGVmqFJ/HPXq1Y2Wr1yj24XQTtmzeyc7hLfg9xpVuAWgYPQVWBnuWajRrFm7iZ58+hV6+PEXIrpHnniRZnw5R9dOdu7cTa+8PpX278+3z+AdKXZ7Z9BArzXyj1mrDrtTzlxxb0Gq60fniVcsX7WBpn70BXXr2okuuWCCsiYtc/x7l55Np516Ai1SluU/7nmCXn3zferSuSPdcN0l1LF9a/to74B163yftK7g+v196rXbXn6kw8b8Bgok7hyJNgcPFarayCqat2C5q5uvHF48GD1qOB06lK/FcsnytZ5ZtCYZGRn2WnzjfPbY5uq1th4xDtK0Fnk93i1IWI852d5WNT769Gv6Zv4iGjViKE2acLKOVLRPzp33HT353Bva0vz087n06uvv6w6jJB9K3by8bD1dU4NxJBgvSElO0VUY/ZpfhPZvnoIvIzNTL70Ez6yhoK00TRVKTQFqJVdfeSGVlZbS48rSXL7Kv8/LtmqZZ68FC+RhpEsWSD0Okuvb8IQLAijVW7Vs7un94J3lN9+ZRlu37aDJk8bRGaeOoo2bttPqNRtoYP8+dOLxQ+n4kYOpWAnldwuXUXdlbfbu1V33NHrVtNa2ZUvKaODwDsRVY8SirqSkplDbtm30+7yROmEOHbKGaLU2xkh6RWPSPYZu5WS798R7zZ69B2j2nG/p6Slv0tLl62xfUvFaotLhVtrv4TC3ju3a2GvxjZtxyAYG18RCE+aageNdKHH9LZVYeN2jt2PXXnr9rY+osqKSrrrifLrisnOVO49uuP6ykLv2qovo4osm6fXx405RVad82uXRlxVbqEIhLb3hrzE2tHpeX/r3768ychFt3bIlLN0BlNrr1q3VCbV9h462r3dYBkLD0jviq11b75tO3ChQQvjCq1Np8dLwmYTWrN9C//rP0zRr9kLbJ/q0adM67jUCmPfA69BDpEE4EDZQnBOrm7LGG23VQ0SbnNcsUgn0wUeepxdfeYdefvW9Gt2Lr7xLDz78HK1c7U11qJ2yzNLTGi6Q6Jn3g/79B1Bubg5N+2waFRaGj6nbtWsnzZgxg/r160ddu3Sxfb0D99yYvN61s/ciXh8wzAujJxrzhlBNwOjo0K6dvRXfOPUOSxSYrIlYhrVBMm7KGm+glMvO8r4NC/G3cs0m+vSLucrNqdWtXLPZs0KnW5eOjcrsXnU4OOndqw+NHz+evvlmHr3w4vO0efNmOnDgAK1Zs5qefPJx2rlzF501YYKqinubEZG2U1IaVyh07NCeUuxmqkQATVdt2njf9OEHeP7Ii6xxvM35E0vXVw29ysB+kpaaSgP69ba3gg/ut0vnxg0nQpXRj8yenZ1NV199DZ122lh69tln6Sc//THddPONdNvPb6OpH35I11xzNU2cOMmu/noH0n5jmxVaKsHo2aOzvRV82rRq6UvbsF+46R+j0wfXtQEHrumgeAH3MKBf34Qp3QcP6EPN8xrXu4g4S1FC6wddu3Sj//c//0v//Oe/6LzzzqMTTjiBrrj8cnrwgYfoBz+4Ubchew2sx8YKZG5OLh3Tq4e9FXxgdHj5nrefOA1B57buxTbF0DQtg0DP7l2pbUCqAzWBTD5syECVcBs/zyTamPwoIPEbLVu2olNOPpVuvOFmuv2Xv6Jrr72eRowYSTnZOXYob0lNaXxhAJFFQZwIoNe+/7HBuVdnOnfTQn8anZoIdFoc07u7vRVcsrMzdSaNxjCd1BSMUwx0stCgUInWKIeePbtRx/bBGPpSE3379KDOHTvYW8GERRLpQzu95cAPC8IPcIMnjD5Ol3xBZuSwgXpsYbRoqsHPfoI3rZA+okFudjadMfYEPcY1yOClCLQfBwW3mrJz2GNooHhQ6dWzO/XvG9zOGgxUPun4EVHNnKmpqYG2IvGKHjq1ogXy0HHDhlBenj9NA01B5w5taXD/Y5XxZHsEADdDkAtN7NNtkKyUbvXvIIBXDk8aowQkoBl+YL/e1KtXdD/hALFNs6ccCyKpynqMtmHQrk1rOnH08MDUvkxwT6efOoZatrTm6QwKrHOm3kEgsQ2H+w6pBnuAoD3kQQP60bBBx9pbwQHW45mnnezJgHhUs4NYu0Daxr1FO40jY512ygnUoV3TvFnjJbinMaNgZAQrPURKA3iWsB6hia4DxYMGPgI1acI4ZRV5P5mon5xywgjq06eXvRVdYHFHo1c81sA9oSPKCzp17EDjxp4YKAMDhe9F555FLVp48xGwpoS1D8/L1EGsozBIGIEEvXv1oIlnnhKYhvRunTvQGWNPimpbmpN0VRVFe2RQQKJv6GQedeWE40cGqrYyYmh/Om74kECJPmMKI98fLEf2x1ILZG03HwQRxZCOs848jY49Jv4H9WKg7sXnT6QO7b1/FS8zIyNqvb1NCYZAZWZ6fy8tmufRuWefGYgpwVAInzNpvCpUgjsKhMWQQfow9bBOA8VrE9B4oUXz5kpYJsV1OxEGJk8efyoNHTzQF+HC70FY4j0NoGrtpbVt0qd3T7r4vIlx3aSDeQwuOGcCdesS3NcoWefMtI11nlEc64F91TASxx7TWyfeeBwbiecyavhgmjTxTF+rvmiHgtUar8kCnTJ+WkGoyp80ZhSdNe6kuOzYQDo7f/K4wFatGee9YZtFM9RJYwqk03IMIlpkRgyn711ybty9pz1i2AD63qXn62qv3+A3/Zg+LtrAasS3gvzO6CjAzjvnbDr95NFx1UQBQT9/0hl0xtiTPevMikWgfXAYKI60EuqkMVWTE1HQhRLtkaecOJquvhxiEx+W5Kjhg5SoX0CtW3k/iYMbSBv4Fkk89WxDpDJVVbGpBCpLxdfFF0yiM045Pi46B9EpN2n8KXTOxPFNUgj7Desclqx9LIzcWaPSTlWjZNCF0QTVrtNPPZGuuOQcapGXa/vGHshYJ4wcQldedgF1aN/W9m0akFZgjWWoQoXTTKyCVwnRjtbUwpSXm6vbvSeccZIumGMViPnkCafR+edM1G3OiYSZlrEOBy2EC0s9HDDWE3+0wLT+Z5x6En3/6oupc4fYmyUZQ1ImjjuZrrvqMj3xRiyAtJGVmRmzIolLQntjdlZWzFRt81QBfPEFk+myCyb6MolzfcnLzVEF8Dl07qTEsBxrgoWR0SkokSxHJ8hEI4YPpZ/cch2NHDrA9m162rRqTt+/6hK67OLz9OcJYg1kpOzsrJjqhNDirYQR1epYE2/E18TxZ9BPbr6GunVub/s2Pb17dKGf//j7NPbkE3WtKpFwSyPwM53upHELmEjg/rt27Uw3Xn8lXXvF+dSuTdO08wFUCU8ZM4J+8ZMb9aDjRn3G1WPQAZKbk63bJZs6DaFKDUsIHUmxmppRGA8e2J9u+/ENNGn8qbq5oqlonptNF04+k35+643Ut0+vmLG2/YQNQ9NA5N5rdmGz+bgdkCggU8FSG3/GWFWi/oDGn3YCtWzuX9sk2qcG9uujLYxrrryYenTrqqyz2E+03C6JSUFwD34KJX4KBQjeSUeVOpas2UggfjDA/5ILzqGf3XItjVC1Fq/f7jFBFf+k44fTT394PZ1/zlnUqmWLJi/c/CHyPfL9Y8mOcR0Hmcggw3dX4nTV5RfRz350PZ05dgy1btXCs8b+7KwMLYw3XnupEsfraPTI4TqzxxNINxBHiCSq3V4LJc4NYcxSmR3i6MXkE16DcaWDBw2gH914Df34pqtpxLCBygL2Zq5FxE0LVdifOGoo/VQVwD+45grqf+wx6jkF5zXSxmAahtyLjTjT7vHHHz/65Zdf0siRI2np0qW0YsUK7dzYvnWPvZY4ILJ27dpNS1esojnzvqO1G7bQ4crDdKSBVjbycVJSsrZOjx85lIYPHUi9enSPq+EzdQHjycorKqi8vEJXW6IBXhfEZxLSlLgEbYwe4mvTlq20ZOkKmjXnW9qz74D+dGtDa3PI3KiBdO3Yno4fPZyGDupPnTt1jAsr2ws6dm6j48QEcdutWzcaNGgQDR06lBYvXkzXXnst5eTk6EI3Pz+fmj322GNHZ82aFSaQy5cvr3YykIgCySCTl5WX0769+2n9ps20afNW2rZjp0rUOyi/oMgO5Q7a6jp2aKM/y9q1Uyfq0aMrde3cSXcoNPazo7EOEiFe3apQAoAlMv2RI4eVvx2gBmDNI5MnJ6coQUzWmbuZ8osvW7F+II5Ky8po+/adtGHjZtq8bTtt27ZDLXcp/3I7lDto6sD7012UwyuCPXt0ow4d2unCNx7GYXpJpy7Vh8i5CeR1112nBRI1FHyzvdkjjzxy9Ouvv9YCuWzZMi2OYkHWToWyjpCQS0vLqKioSIlkof3BdrzHeVRnblg7WaoKiM4DDLLGoPRY6NBoKpAg2VmN4baf+gdUhUZb2M2aKRFU1iJm/tbVnASOL1jgpaWlOq0VqDRWqNKaZZUjnVlWIqwdNG+gDR1DnDAEK9F6pGujLgK5ZMkSuvrqqykvL083PxQUFFCzRx999OhXX30lAikIQmDp2LmtLnxNnAIJC9IUSBg+YbP5CIIgBJG6yhx30jAJM2GuIAiJS111Dk0/bDTiGBFIQRACjyl6jNMP26haYwk/LZAciD2BeRJBEIR4hyWN9Q44dQ7bGG5lDksLCSR2mgcLgiAkAqbu8TpGoWDdtYotQikIQqBwkTTonFProIcQR2sYmlo3zUk3sRQEQYh7XLQNeufUPAim6Rc2zIfXRSgFQQgSTkuxJlj/YDzKOEhBEBIWthjdLEmQxJ84BBxIRFMQhCARqU4MzYPeseaxBrJ/2BvsIoyCIASRuiob914DLZDwYJxmpiAIQhCIpG1Oo5B7r+GPZVgVWyxIQRCCibu2uQkni6MWSFMU3QILgiDEP/XTNtbCarNoihUpCELQiKRrbC2a8Db2yTAfQRACT10qxxBG54szYW2QgiAIiQYbiViaFqXefvjhh4/Onj079E2alStX6lnF3ZAZxYNDRXk5lRSXUklBERXmF1K52jZLz0QCH1FLz0ijnLxcyszJosysDEqRL/4FikifXOjevTsNHDgwbEbx3Nzcqk8uPPDAA0fnzZsnApkAQAALDxXSlnWbaMvaTbRjw3Y6tPdQ3eofCUBSchK1aNeSOvbsTN36dKfOvbpSlhJMcyicEJ90VALpbEyEQDo/uXDNNdeEPtqlP7lgh9WY5qUQLPIPHKK5076ml++fQtNe/ohWfrOcDu05KOJocOTwEdq/Yx8t+3oxfTTlfXr1oRdpwaz5VFJUbIcQ4haXdM5VahOzMNTvYpvfyRVxDB4VZeW09JtF9NZjr9M3H8+mYmVBHj0iz7k2EEf5qgD5+r2Z9MYjr9KaJavocGWlvVcIAm56Z/pBLMOmOxOCxaH9B2nmB9Npxttf0IFd+6QAbACwKvdu203TXvmY5kz7SrfXCsGB8wSWsCahh2EiiT+mmek0OYX4pPBQPk177WNaMmshVZTW/MF5oXbKiktp3idz6cv3v6CS4hLbV4hnzCo2lhBGtD0CCKWuYmOD1VMIBsWFRfT529Noy+pNto8QLVYvWEmzps6givIK20eID6rrm2kpAmxj2CO0ENVrbIdaJJ2BhfgEGXfeF3Npw+J16qHankLUQNvkym+W0cKvF9DhShlDHD/UPTNAC7X1iDZIUxjFiox/1i5bTUu/XiQFnodAGOdPm0NbN2yxfYQgAP1jDcRSiyT+mEjGil8wlGfhzG+pokyqf15TVlxGC2bM180ZQnxjah70ENtw2oLEH2AqpxCfrF68knZv2WVvCV6zZeVG2rR6o70lxBtumsdiCV3UFiTvZNXkAEJ8UVZSRsvnLpMxjj6CDLRi/nIqL5NRAvGKm97BT4sjLEhnFVuIT9AeVrD/kL0l+MXurTtpz3ax2uMVp/UIUWS/MAuScW4LsQ+GJmxZu1GGnjQBpYUltH3jNntLiCec1iNbjfBnHXSdD9LN7BRil8MVlbRl9WZ7q/Fkt8imCVdPoHNvOpcm3zA55Dr16WyHEEy2rZfe7HjEqX0wNFj7WCSTKirCrQ5TPYX4oLSklA7sPmBvNZ70zAzq2rsbFeUXq8y/PeSKC4xJG1QSMdMJ1l3TjSOcxt4MP97YdgZX/jWdo9o+RTX/6kGiBuIe77wL8QW0zjQGeZA4wBL79GQVpqcQfxQVFOFp21vRAYllw7L1tPCL70Lu4K4D1GNQDxp62jA6/uwx2socOnYote3alk656FQaf9UEOnbUsbqaArLysmj0WaN1uOPGjaDU9FRCejvujBE0TJ3jjMvHUYv2LSi3dS6NOedEGn/lBBp44kAac/YJlNMiR58D+0++4GR97gEnDKTk1GQl4Ok6TP8xA+iMK8bR2ItPo1YdW+nwmLLsmBF96cwrx+vzdz6ms7KIc2jk+FGhMDmtcui4M0dQ87bN9XZjgQVfLDP+xB3QO6fmsWDyUnfSOD2F+ELXAqL86JBwWrRtQR16ddAO4tIsqRl17dOVTjjrBEpLT6PiwmIaefoomvC9s6iyvJIq1XWcOPEkVRXvRClpKTTusjOpY/eOdGDPATpmyDF0ohLBlIwUGnbSMBo8ZkhodpyxF56mLNaudHDfQeo1sDeNUufMzsumvNZ5dObl4yk7N5sOqX3DTxlOg08aTGmZaTT6jNHU77h+VHiogNp1aUennHeKFuABxw+gMePHaP8jSuRPv/AMatulLfUc0JP6jeyv76uL+q1Bowbqa44GR44cVc9AZvqJNyLpHtJI6JVD/GGwDidCGV948bxSUlNo8AlDaOwFp2k37NTh2g8c2neI5kydTbPemUX7du2jQ/sP0dfvf0Uz3pihRLJSC2v77u2pU4+OtHTOUlrz3Rpas2i1Esm+2voDS2YvpumvT1cWYQq17diW5nw0m775aC7NevdLnThB9/7dKbdFLi2YvoBWL1hN2zdsoz6Dj9H7UGWeN+0bmjt1Li3+ajG17dSOUtNSqd+I/rR26Vqa/f5smv7GdNq6fou2aDev3kw9ju2uRbRr3660c8suKjoUpUHeKv6PHpXRIDGNoXNOWAO1INq1n9DSrHczzm0htklOqprTM1rAuprz8Wx657G3tZv1zpehN3TKS8r1eEs4CGLRwUJtweIVPNRImqnE1apTa0rLSKeTJ59M53z/HC22OgE2S9ICCOsTtGjTXPe+Fxwo0NulRaUhwW/ZvpW2Hs+68ix9jh79elJyinWvhysO67AA7X9I0NiHGcAP7Nqv/XF9EOH1i9dp17xVc21NtuvUljau2KDDRAMrY0X/GQhRpA5GBM+Nq9OweqZIh1omOUGK5RifpGdkqFxqb0QJJX9aEEsLS7Urr2HKNLdUgynWUM1958l36aV7XqIX/jmFnrrrKau9FNgHlRaX6oSZoiw7JxC+Pdt308v3vqzP8fzfn6PXH3jN3ludw0cOa/GFMDMde3ek5u1a6E9L7FbnGjPxBKpUYXZs2GGHaDxJ6vrT06t+U4gPnIYgClnWQG56tOxIG7Ec4xO013HVNVqgs6Nr3240YMzAkGvZvqW9t3a2rNyi2+WOP+t46tCzA404cwSdeuGpoWo6s2vjLj2/4vHjR+sOoFMuOFV/MAlsWLZBWYTZNGbSGGrXvR2ddN7JNPyM4/Q+V1TaXqeq14NPGEy9h/ehQScPpnEXj6PmrfO0wK9W1fwuvbrQzs07QhZrNMjMydSWqxBfOA1D6B+EkbFqBnZdW4hf0PbWrlsHe6vxoLMFHSsdu3egAaMHhFyrDq0o/2AB7d+zP5SoDu49QPkH8vU62Ldzrx4OVJxfTF+++yVlZGbQCWefQB17dKIta7foqvveHXv1FxUBtud+MkdbfaPGjdbVZF16q397tuyh2aqa375rBzpx0kmU2zKXdm7coavyu7btUlVzq2ME54Klidm/l369VLdVHnfqcdT/uP604tsVtGO9ZS1uWr5JV+c3rdjkbvY2kLZd2ukCRYhP2DA0tRB+SOPN7rnnnqOLFi3SXzVctmwZrVixQr5qGGegrW3BrHk0650ZIeGKFSAcGVkZ+l3xSPMndj22q65qw8rr2LMTnTjxRHrr0TfpwC5rbCesTvRco80RIlgrKr3jNxGWmwbQq95jYE8acfoI+uCp96kQ7aZRAJlq/JVnKzEeaPsIsUjHzm2q1ZCRV/DZ1wEDBtCwYcNCXzXMzMzUM4sXFhaGW5CxlrmEuqGH3/TuThmqqhdrQKRgUdY0uewxw46hiVedTeOvmECnTD6FlnyzxPocrQ06gmCR1kkcgUrGENOQOCqBPWHyiTT2/LG06rtVURNH0BxDobp2tLeEeIfbHrX1iCq2qapOhRXihzYd21KXY7raW/HFzLdm0scvfEQLv/qO3nrsTVow7du6i2EdwLk2r95E0179lJbMWmz7RoceA3pR89Yt7C0hdomsbabumV95RYdfmECyBSmWZPyBmsCAUYMpXVUt4w20Q+7espvWLlhLe7ftrdHabAiwCjYt26TbIDE8KFpkN8+mvsP6h7VdCbFK7ZrGusfPU1uQphiyWIolGZ906dWVeg+xB1ILnjPg+MHUrmM7e0uIZWrSNFMDYTWaPdlhAinENxgec9ypI6lVx9a2j+AV7Xt0pCFjhoUGrguxjZvOuRmEznVXgRTRjF/adGhLJ00+VffaCt6QlZtFp10wjnJb5Nk+QjxSm/ZhPUwgeb0mc1SIfXr07UWnXTKe0jLSbB8hWmCWoTMuO4s6dJGe66BgaqBT+5LUbnu1CvMAIf5Ata//8AF0ygWnh6YNExpPi3YtaeyF46h3/956aJUQ37AYOqvVcNBAuCTzJXu3A4T4BMMVBo0cQuMun0jtu3fQE0gIDQO9ml36dqMJ35tEfQb1lbiMYyIZf/Bn3eN1PPfQk2bVFIIDrJyex/aic6+/kEaMG2VVuaXsqzPIE1l52XTCOafQ5GvPp07dO4vxEOe4PT9THNGDbWqhnu4MOBVUCA45zXPphAkn02U/u4pGTRhDLTu0loxeA4ibtt3aK2E8mS79yfdoxKmjKDMr9t5SEhoH65ype7AaTS0Mexd76dKltHLlSnkXO8CgQMSUY/t27qEdm7bTgd37qaSwWM+8k6gFY5KytDFEKjM3i1p3aEMdu3eiVu1a65mEeNCwEN/U9C72wIEDaejQofpd7KuvvpqysrJC72I3u/fee48uXLhQJqtIUPDWSnmZNZEEZtBJRJBxkpNTKD0jTc/tKASP+k5WgTb8agIJCxICCeeGCKQgCPFIXSxI1KQhkGxBFhUVVR8ojpMkalVLEITEwRRMaB620aSCJe9LglIKgiAkGmwIsjjyOi/hkirtT2+amMoqCIIQ/1TXNNY5pzhim9dlPkhBEBKA6s2GLIKMKZRY1wPFzUC87jxQEAQhkYA4YtB4kjmDLiuoWJKCICQi5rhXbUWabZBiOQqCkOhAJFkLXdsgsVPEUhCERATax1roOswHO03hFARBCCpsEJqaxwZikvn9BbEaBUEIIm4Gn9PPKZK6k4an9xEEQUgkTIOQNZD7ZKCL6MBOMnttBEEQEgkWRhZLLNu0aUPNmzfXLqyThpGqtiAIQcJN0qB9TiuShz2yLrpakG6iKQiCEK+4SZq7IWi1Q/I+bUGKIAqCEFQgdm5S6K57ljjyvqTy8vKQYrorqiAIQvyCeR2VuNlbkYH+oUaN8CUlJVRcXCyTVQiCEGz2799XZ21DGySMRnyaBE4P8zHbIcWKFAQhSOzYsSOirtUknFobcSAHEnEUBCFobNi4PqIQmpqHMGYvth4HaQqkIAhC0Fi1aqW9VkUkzUNtmvdhGapbs5LWJJYwOQVBEOIFaNaKFdW/0hpJ77BdTSDZAweZJqeTktISe00QBCH2KSwsoD17q3+N1RRCBttcxQbQwrBR4s4DnJSVldprgiAIsQ+G6pSW1k23IIiwOFkHUd1Wru492EWFRfaaIAhC7HPo0CHtGDfL0aTaq4a1iaJJfn6+vSYIghD77Nu/j7Zv325vVTcCWQjddBD79EDxuork1m1b7TVBEITYBrq2edMm3Q7pBLrH4gh4HRak6R96kwYnY6F0HsysXLHCXhMEQYhtoGeLlyyytyzcdM3UQOc3usJmFHfiPNmMmV/odxQFQRBincLCQvrwo6n2VnVqEkte6h4a03o0gZ95kk3KXN25a6e9JQiCELts2bKZdu2sWa9MfcM6DxRn7Qt10rCnKYrO5br162jlyhWuYioIghAroKq8cNF3YT3YTqBrTsfwelgbJOBtMzCLZnFxEU2d+r6e5UIQBCFWQfX6nXffporKCtsnHFPfTNhIZMLepIkE9vNB77z7Fm3bvk2vC4IgxCKYoOLtt9+0tyzcdI79zKUZLjRK3FTNSCdCF/j+/fvpq6++VFZkVW+PIAhCrFBeXkaffPKxvVU1+Js1zhRDc8mY2zW+SWMG5H2YTPLZZ5+hPXv36m1BEIRYYtPmzfTWW+HWIzD1DOvsGGihqYegWhskYx4IrG3L74vpn9GMGV/QkSPSFikIQuyAzpkPp35AC76bb/tUh4WRHftBA83+FfiFWZAMHwTC1+0VxbPPPUNbt0lbpCAIscOatWtoyovP2VuWfpkapnzsZZW2OfWOHQQzJJDswevm0iQlJUUvP/vsU3rnnbfCRp4LgiA0FRUVFfTiC8/TokULbR9+ddDeUGCdBdDaDhdQvDhj1qbDOmnMgOY6Y1bCEf7xxx+lBQu+tX0EQRCaBgjbzJnT6ZnnngoTOODYDAHjkAWS9Y4NQNbDkAWJpdsB5jZLJp9k5aoV9M9//Y127d6ltwVBEPwGYrZx0wa640+/p127qrSIdcoNU9dY93AeFkbeTsJJOBDMUadQMgjMqNPYa0SfTvuEnnzyMevbs4IgCD6DKc0efPB+mj9/nu1TBSsV65npWOeggVjXn3lVSxO1bXlAHDkgDgK8BOY6fjUl2VJnTF7xt7//hd566w0qKyvTfkJswiWkuPo5IXbB231Tnn+WHnzofl3NZizrUVmD1mY1oGdw0DunQPIzx7LZs88+e3TWrFk0bNgwWr16NS1fvlwvERjOTCgYJB4OpgeyusXz8vLoycefoUmTzqHU1FTtJ8QGeHYbNqynhYsW0tEaZm8SqpOalkojR46mjh06hhsJQpMDg+zFF6fQL26/TQslY9WKke5tD0XLli1DosjGYFpaGnXv3p0GDx5Mffv2pRkzZtAf//hHfV6ILT7X0OzVV189OnXqVBozZgytXbuWli5dSqtWrdK90xBI7tWBO3DggF6aYBvhQJcuXeief/1bi2R6err2E5oeWPkvvvyCaxVEqJ0zTh9HF15wocpUUvDHCkjTr7z6Ev36//6fMtz22b6oCaMGbFmBZoHmFEgYcRkZGVoghwwZQn369KFp06bR3/72N91cCN3DspnyPPrkk0/SGWecoayMDbR48WJasWKF7jKHSLJAggMH9qt12I0KQyjNoT6dOnWmu+78C1100SWUnZVt+wpNCZ7PZ59/Rl/PnmU/PKGuIDOdeeYEGnP8GF39EpoWNtReUgX+H+74HRUUhH8GBsLnNOLw3Jo3b67FkavULJC9evXSAonlRx99RHfffbeeAQhGn7Ygv/nmm6N///vf6ZxzzqHNmzdrgYQViVcKTSsS4EAtmEeURan/KY7iK2BJYSKZk5ND//OrX9MPvn8jtWvXLkzJhaYBBd7Bg6gB2B5CnYBF0qJFK70UmhZoz5YtW+i/Dz9A9/37Htu3imRUre1104JEIYcmQIgjHLZRw83KytKWI6rYsCQ//PBDuvfee2nfvn1VAqmsxaO//vWvlcV3EW3btk0LJBw+lQjRg2MrsqCgQB1YqQXyiEtOM0UyKSlZVUsuov/9f/+nLmCIvihBEISGAMGaM2c23XnXHTRj5vSQ0cZYnTIAuqSEUf+3LEa43NzcsOo1BBKG3DHHHEODBg3SzYMff/wx/fOf/6S9e/eGBDIJKspqyw2XOIHV0GnV2dnh5Fql1Q9i2wmOwcUAvKf9xpuv0dXXXkmPPPpfWrlqZbWbEgRBqAnUfBYvWUx33/NPuv7719AX0z8P0xFY9ikpPFsPeqct/dHiqPZBs7jt2NQys5rN4opqOJ8bS7gkVlSIJNYhkFBXHIRtCB6LYXq6Olky+9s/pv6Z7Vrw5wsGq1evpF/88mf0vSsvoeenPKuq8ZsiTmIpCIIA0MS3dt1aevSxh+niS86n3//hN7Rp80Z7rwV0SMmgWrP0CTLFxh7Wk1UtFmGsjhtLr6BnLI7QOTiso+e6VatW+ndxDjhYkUmoFnfq1EnPwIuTmQeZAgk3fPgw7Z+m91kWpr426/q0gmPj6FFlbRoiCZYtW0Y33fwD+sGN19Fjjz5My1cs178pVqUgCACChG/vL1q8iP5z/3107XVX0i9vv402bQoXRgCR08aZ+s/2mdYp23CDPrEQogOGNQyaZgpkZmamXmIIY7du3UJDfOBgvSbfcsstf0R39tatW3VXONoZDx48qHfigk0BQ2MmGjCxD5poXthR3VljKSUWWEM7JATWPAc+/PXxJx/RlBeepz17dlNZeRklKbMYVX1cPODzCIIQXGCloS+jWOnPmjWrafr0L+ihhx+g2267VU+GY37wn4G4cTOeFpmqhdaNJOVYANmNHDlC6c5m7Y8aMqrV2dnZuuMGxmHbtm31EMdTTz1V74fuwXCEaDZbtGjRUQjkgw8+SOPGjdNDfVauXKnEa49WczRUwuyEKJ577rl6otxZX34ZUlh2LIK4aUM6rVX7DvDD1v4qoN55ec2p7zF96ayJE2lg/8HUvkN7atWyFTVv3oJycnMoMyPTDi0IQjyCfI+xiwWFBXRIGWD7DxygHdu30eKli+jDqVNp85ZNepQMtMSJtvyUsRVSQlNU1LplUFkWoimOMLiOO+446ty5M3300YdqX6q2GNE506JFC2rdujX179+fevbsSZ988gn97ne/C+kdLEkIZrNvv/32KAL+7Gc/o0svvVR3o69Zs4Z27typLxjVYPRo46DvXXEF7dy1W7+VwW/bVEA8ldpiHT3cEErWQESKmzWI3bonPMKEuy2VOHbs2JFyc/O0ZdlZqXzXrt2pQ8cOyr+THmvZuWNnat++vY4QQRBiAwjcjh3b9Xertu/YRjt37NBug6om7969WwlQkdaVnTt36GUkIIioLtcG64tZdWYHy3DIkMG68+Xdd9/Txhj0BJYjBBJDEI899lhtRX722Wf6LRpcI7QOYo6x4XocZJs2bQiDxdFIiR+CFYkhP7Ag4WBhQiRx85YQhr9hY1qF5rogBIFIBb0QG5jPBuumg57BQTBRtcZwHwgmBBJGGMZBwmqEaI4dO1aLNgQSTY1nn302JUHs8vMP0XnnnUvz58/X5icC40Rw2IbqcmMmfghKzT+M9gCzI8d0kahpf03HCVVIPPmHxLX3RNIEpx+Hc3OsRXDQJugUHLc7QsfQ9giHdegblnhz8PTTT9dCyQYgxBFogSwrK9dVV4DSEgKJk7BIwmGbRZLHSrJIslDyRTov3OmYSPsi+ZnLSNS2nzHP57buxBnG6XgfLyM5c7/bOi+d67wN3PbV1TX0ODg+lpemP2P6mWFMP8b0i+TPSzOMm7/patrndJHCRvKvzUU6jnHbx47389K57uYYN3+3pdOPcW6b1LbP3M/bkfwiOcbN36kpgNdNQWTHVW0essjiCGOPHbQMuoZaMZYIh44ZOLMdtNmMGTOOYiccXjV89913adSoUbRx40ZtZqINkh1XtdGAiZPgZKy4qHJztRtg6VbdZj++UeAMh31uxzpBGDOs8zjedvst9qtp2zyW/UGkY52YxwPndrxi3ndNcdCY+w1KXHlFTfFeV8w4dq4zbuev6Ti38E4Qhn+jLuEZPo6PwZIdCyU7th5Z29hyhPEHgYQoonMGteabbrpJiyh30KCafd5551m/gckqsBMnQ6MlGiqHDh2qhRAvhWMJYWSHxkunSHLbJIskHMDNcEQA8+aqIgjrerUa5rG1wec2fwM4t+MRvq/aMO/fXPI+YJ7HLRzD4YFzH+N2nJc09vf4ntzutbH3YZ06/Pxu562LXzSup6lxuycnbn6gNn9z6SaMsCJhQcJBHGEtsgXJ1WsMaYSFib6W22+/XQ8pgjhC29AHc8stt1i/8f777x+FmuJkEErw+9//niZMmKCH+kAI4aCucCyQpkiyQEIsIY4sloggjqRIDxz+fMNmGGd4DhfpPLECX6Pb0sTNL1o09Nx8rXWBw7kdE8kPOI8z/Z1+jJtfUIh0b/AHNd23GYbPw35OatrnpK5h+dr4t2vDGaYh2+wghryEc1avzSo2CySW7GAMYv7Hv/71r6GROtAzGIFsPYJmSvSOfv311/pEODl6eBYtWkTvvfceDRgwQB8IAcTBfBJTIKG6bEmyc1a52QFnxLttw+HmawrLYXi9Ibj9hom53/wtXo8m/FvOpXOfk/r6Nxa+pqaE74vvka/J6c9EigvncSa8D5i/AXi7Lv6mHzDXgRkO8LaJeb6mItI1mPfihnO/uc3rTr9Ix/A+FkcIolMcWSAhjiyQcDD+4OAHSxIDwzGDGYb5oKYMDYMBiKbFH/zgB/r3QDMlZkc/+OADXTfHyXECdIG//fbbelYfzHbB1Wg4CCI7UyBNkYRAuokkcC6B23pt4Rg3P6/AQ6n6PTws6/f5ATJufvUh/Hfc4fNzOD7G9G/INTjPC/hc5tLE6ecWpqkwr9vE9ONrrem663pPZjjnOlOX80SCz9OYc0QDvjfzvhjnPjOMcz1SGKc/+7HFiHUWRmyzOLJAmlYkHK9jiZoxZu+5+OKL9cw90DE4WJL4ogIGjDPN1I0cve+++2jgwIFaYfGDOBHGRr7++usE6xKfY4DQQfRYBE1RhEiyP1wkgTQdw+s1+ZvgfAAR5Nzn3K4vOJ7Pi2VdcLsOEOn4+py7PkS67mj9Hp/H7V6bkvpcE8cDh4/F+4klzHTDzz8SbvtMP143l25+vHSus2OBNB1bj6YViXWIobmNJdoXMffjtddeq7+AyEYfrMd169bp9kgTLZBYefbZZ/UrORBHnAgnx8DxL774gl599VXds419LJTsWBBNYYTjcJEEEg6w4AHTH/C6mx+DbUScWxj4A+cxXuK8Fidu+9mPrzca1OU6vML83dquI56J9jPzirpeJz8rDus8zrnfpDY/Xo/k59xv+kEEeZtFkdchfOYS2sXbph+ue+HChXTiiSfquW/xpiA0i2vDeI3ajZBAMp9++qkWQpwcIokOHJikmIocViVmxsAhEDbTmcJoOjMs1tkBt223JVPbNoAfR6zbfidu4bEdyd8L+Pcag3mOaFyn2znYr7HXCjh+o3EuN8zz8u84l/GCGe/muhvmvZn321BqO9Ztv+nnvAZneGw795lLNwfRc3MsiAiDdQ6LSScwm9gNN9ygJ9yBnnFttyZxBNUEEpt4cRuqCwexRCMnOm9Q5cY7i/gCWIcOHULh4ZyC6LY0Hfz4eMDbAH64Od7HSzecYSNhhnOGj+TvpKbjGd5v4uYHIvkzzv21hY8GOL/1O/g9a7sxv2les9s6lnWFw9b3uNqoui6cs/qzddu2wodfE3Duc66b4c39Jk7/SOG8hH/PvN5I1Gcftp33w+tOP3aAhQ+O17F0W2eHajP6UTBnw6233qoFEb3U3DSIJV6lvvrqq/VvuOEqkE899ZTuBueqNkQSDlVu9F6jyj1v3jxtUfbu3Vt3m+M407mJIhzgfc514FzHjZp+JryfMbcj7XOey/Rz2+8k0jmA6V+X3wLmtvN4JtJ5zTBuIJzzPG7HVA+n/4b8avsdLzDvkdcbivNcfD+1ndcMX5drqOt5Gef5zePN3zTXQaRtPh6Yx5qY4ZzHgNr21wTC1naM2z7Tj9fNpemcImhuYx16ggkn8GVWDO35/ve/rw067ozh/hKII/x27NihhzVGwlUgIYLPPfecFkQWSCzxg7Am0eONC/r22291GyXmkoSYIjxmBkK1HMcgDM4XSSydjsMz5roTZ9hogfOC+pzb7Rh4OU/B12yGN/3Cj695OxI1nQ/Udg7zeGCue0VNv+Hc53ZtWEYL5/nM34o1GnvvdTmewzQkHqxDqp6dEz4nY25jvTaHa4HgwQqEKELwAL5SOHnyZD1LD+a2hZ5h/DaaACGMEEpUu3kweE1EFEj0aOMLX7AkIYoskljCYmQ/hMMPYyJdTJWGXiKoMr+Fg324Gag7RJQVH0sT+LktGWsbQmqtR3pQ5nEIw2Gd52sobr9b3/NHCh/N6zQxr7ku8VHX6/Dqek28io+Gntc8FusmtZ2zLr/b2Dit6/HO+6jtGOyHQ1iG/eA4P8MYqg3uQMFxJjg3nx9L7teAgxBiCU3hdegRhiR27dpVD0eEpYgpznANEESEw9KsUqOKfdlll+nfgH7VRo0Cad7AM888o0URF8VL/ACvcwOpKYQA5+OLY/OWb5r3mw7gd51Vb/hhG0u+LjO8Mywv4fhcvG7ug3N7uOb5GA5fVziseS9u5+B9fI24Hqy7XQMT6Rymv3lewPv4fnnb/J1Iv2n64zg4+MHh/vhc5j6AJf8e4DiGv3kMh+d1OKQRPjf7cVzCwd8ZV+a53ODjnOu8xPk4/SKtwp+vAZYH0rr5m/Dndb5P9ud7Nf0BH4P92GeeA+vw42OxDQc4jBmWMbf5ehnTH+C7UUfw6Wb7PPg98zcZ7GOwz9wGOC+eEedpaADihzGvg68PS87/btfJYQCeA7ZxXugMlqjFwuGVQexHWDgWQZwXOsNaw/7QtCuuuEKfF/tAVAWSwbyRLI5wuEgWSHYc4SY4F/xwfj4vRwaWbr/FmOEiHe9GpH1u56iNSOGcv4FtvneswyFOnImPMY91/gavm2FMzLDO+AZuxzvPH+nc5rU4w2Ed92PeJ2Mex/C2eQ7nOYHzNxjnunms23mA6VfT78NhnQUAnZFIz+wPsI79qCXxfdd0Lk7ntWGeg+FzueHmb/rxsfzbvB7pfLVdY6Tja/Pj45w4/eqyDWeez1yy0LKDEMLhGbE4olBDNfvHP/6xPg54KpB33nlnWBWblxBKOKdAcmLBudgP25ESEcLhBnmdlwjL5zFxbgMOZ57fGc7tXE74HOa53NZxL7hm5/l4n9s5ALZ5HzD9I60z7O8MB8fhsG5el3kuYG7zuunH2ybOc7iFAc5z8boZ1tzmcIx5PJa8DnjdGcaJeQxjbpvH8RLtVmbG4TCIRwws5szF5zF/l8Oa5wU1+QP24zBO/0i45SE+hxuRfi8SnHbgzN/BuvnbzvOwP8IA57F8PudvO8OZmMeZDtcIB4HEki1GVK15sm/433HHHfaZPBZIJ3//+9+1KCIsSl4WSTisw5/3A440hv3xu5F+jy/Rub8uxwLsM8PwuulnHs+/x8uajmPY38T0MxOLeT7A4Xif6c+Yx7iFMbc5YTsxj3PC5+UwZljnPifwMzMMwtUVPrcT52+yc/4OhzPvmf0ZDsP7edsJ/DHLtDPj4NzYh/FzyIBO+HxY1gfzOPN6zOtksG7eO2Meb+4zt537AB/DmGF4H+4bmOHccJ7LDd7PYfm3zHVemph+WGeHa2NRhIMoci81lubrgk7qJZBr166tdlX4YYhaXeGIZBFADzjfBCKAHW4C/jg3lvADvM7bOA8fa4Zj4AfMYxi3bZyLr42BP5/b7VrMdV6a/oC3OYxJpLDmORn2A7wEHAeAjzH3A/Y397mFA8795vmdx2DbKUYM7+OCz9znDFcb/LvmEpjrwHmuSGGxDnBvZhpieD/gfXBYR3g0+qNg5/0A/ggDiwR5A3B6Mo/nbYBt9uNz8zpjho0E9nE4Bn41HQPMazJxO5ebH4A/7zPzZG24nRPb7I+leS5nWAA/0+GZYMnPgs+FbbQtNkavaqLRFiSojyKDhvwGQC85eqzqgtyH3EddkfuQ+3CH6P8DG5PFA+3kLtQAAAAASUVORK5CYII=;" vertex="1" parent="1">
          <mxGeometry x="400" y="428" width="94.71" height="203" as="geometry" />
        </mxCell>
        <mxCell id="wkWaENmz2FaomDUTFkqX-9" value="Tela que fica na frente enquanto o desbloqueio do &lt;b&gt;SIM &lt;/b&gt;Ã© feito de forma automÃ¡tica" style="rounded=1;whiteSpace=wrap;html=1;" vertex="1" parent="1">
          <mxGeometry x="330" y="398" width="100" height="170" as="geometry" />
        </mxCell>
        <mxCell id="wkWaENmz2FaomDUTFkqX-10" value="" style="shape=image;verticalLabelPosition=bottom;labelBackgroundColor=default;verticalAlign=top;aspect=fixed;imageAspect=0;image=data:image/png,iVBORw0KGgoAAAANSUhEUgAAAUoAAAK+CAYAAADEwleXAAAAAXNSR0IArs4c6QAAAARnQU1BAACxjwv8YQUAAAAJcEhZcwAADsMAAA7DAcdvqGQAAIZqSURBVHhe7Z0HgNREG4Y/j4Ojd0Qpgh6ggIC9/BZABewNK/aOFSt2xYKggoJiBawoIogIghUrYgUBQQGlCNKbSjkpyp/323y52Vz2Cp3N++iQmckkm93bffabmSS7w1/LV6yXDWTUF59LhQoVpGzZsppKly4tJUqUkIyMDJk3b55MnjxZ02+//SaLFi2SlStXytq1a3X9+vWJh91hhx00/ffff0EdcNsAtAHudlG42xhuW6yPejyrN1AOr0f6999/ZdWqVbJu3TopU6aMZGVl6bGCVMdUFLAP91jcYwC23s2H61zc9bYuv+1T4W4b3g+wvL0WbjvgtnXrgbuuRo0aUr58+aAObfG3Qpo5c6a+7uFjcZf54bYFbvtU24e3iSJqvdWl2tbq8bzc18zFtrN6219RiHp8PObq1aslJydH1+F9nJmZmfR47jaWt+M0wvsNE15v+3X3H34slI1wWxfUI+G54DOJ9wXK8E/16tVl9913l0aNGkmDBg2kbt26Urx4cVmzZo36B5/fFStWyN9//y1z586VE08+xd9raoosyr69n9c3c5UqVfQNjVSuXDk9wDlz5sjIkSPls88+04PAuqpVq+qBQ6iQSrFixfw95T5ZN1m9LcN1IKrOQJ29wC75vehFAfvAH+bPP//U54sl/li2zn2c8DGkwj2u8LZF2c/2gD1PI1x2Cb8O9jqHX5OoPJbhdi72uO6XnCUrG24+vD+scx/LbbulyO+xU9Xh81irVi39fOKza8/Llu57uiBStdmYbVO9juHn6rZDPUQI9yxYsEAWLlyoeXjngAMOkFatWskee+yhbSHL5cuX63p8hlsccaTWp6JIonz15Zdkp512kkqVKknFihX1xca30cSJE+XFF1+U2bNny6677qoJksSLjQOHWJBQtoQn5f4xwmVbWjLcdYabd0lVXxSwD/vjhLF1htsmVXsjvE/bV9R2qQi3jTqWou7TxbZ1l8Ddn7v/8GOF17mEywVhj+/uH1jZrQ/n3cdy85AkykjIu2XgtjVQFz6GomD7DB9XArzXC//apDo+F7dc2P0WFuzPfR4b8rpEvw7RhNtZ2f27IRBDGUtEyUiIJP/44w+ZMmWKeqldu3Zy2GGHaT1kCVH+9ddfGl2iJ3z9jTfpfl2KJMqPPnhfBYloEkt0p5988kmNrA455BCtg6lxABbmIiS2sNgE6eaB1bnl8DJcB6LqDNThhQu3D7/YRtQ+oiioXdR6e9zCbluYtvlhj5cM9le4N2R4++j9bX3suKJeq/Axh4/fylimytsyav8u1qYwbYuCHQMIP59UhNsUtQxSPU6q+qJQ0D7yWx9eZ2UskUyYkKQliBLdbiQEeBj+Q48XAd4111yjXXSIcunSpSpNiPKMs87W/boUWpTvDX9Xw/TKlStrJDlq1Cjp3bu3tGzZUushTYx5/PPPP0mSjIokLRUkS8sDt96WSHhhotoBN58fhW0Xpij7tz8q2NDH25TYMYWPLT+K0rYgirqv/Nq76wrab6p1UfXhuk15zEZR9xlFYbd32yWy0duF94dyYV5XtLF8FFH1bl04n99jot7WWd56BRZRhkWJLnipUqVk55131m75xx9/LMccc4ycd955KknIEtLEujPPbqf7NnaY+tvMAj+133/7lQpyxx13VCu/8sorMm7cODn++OPVwDZRA0kiuZEkEoToChMvAJIrSuSBlW0JovKFrQuDeryo7vpweUOw/UZh+7b1UY8dXhZEuJ1bzm+dV/JSwfvfnKR6jqnqNwbsMxV4rPzWbw+4x1+Y52Pr7XVO1b6wr0t+7aLWoS7qON1yfvsE4baWwqK0rjfGYCHKkiVLaoIsMYSIAO/999/XwO+ee+7RCR7IEt3wxYsXS4sjWvuP4j2Od9Ap35m9evXS7jQSJmSw4759++pA6aGHHqp9/vnz5+sDoMuNiNLtdtvYpEkSD+WK0pKRm8cy+kMTbo8XqKB2mwp7vPywx3XbFXQs1ja8bVH3hXap9gHc/RhYn6pteF9G1D5tP+7+gNs2CvdxQGJbvC8SZRDVJqoctTTC64xwO2Drw/VhorZNRX5t8388rEv9vDaWjdmnbWu45YL2l2p9UY/D2mNpKRxVQpKQJRJEibNzkGrWrKkz4mPGjFF/PfDAAyrJZcuWaTrjjDN032CHlatycp+pwzNPP6VyxOAnxiSx0wEDBsivv/4qLVq0kEmTJsn06dM1ZDVR4pQDSDLc5caL5ybDzedHYdsVBPaDF9KWbp1RmDb5gbYuUfu2PIjar7ULLw1326h1bhlE7cetA+FtjPD+3PZR+zOsXRSpHqsouMdhhI/BCB+jbZuqvRH1GMDdLtU+ClNv+wf57c/qCrvPqDYFsaHb5Ycds+Hu3+pz61De8OfgtkfeUpQwIUuMUSJh4rlevXrqM7S/8847dc4FwkRCvv2VV0mxW2+7vdN/3oGF0+xZv+u5kYgmq1WrJmPHjpUPPvhAu9tTp06Vn376ScNTmBc7hCwRUbqydIXpRpVFTYRsDFHvoe3tfYXjdWWwPRB+jVG2ZOTW5eaT6zcsWZAG75iL0MuFm+AoDBFiCXfhdW3YsKGe7w2n4VQirEc95FqvfgNJPoPUAZLE+ZFIABM3bdu21THJ8ePH67ikDX5CkjaJY3IMizEdSJfnsTnYll+bsGC2x7/j9ibJrYk5x5IJE6K0E+3RE0aQB4/BZ7NmzdLhxI8++kgdhwARkSc8OKD/69Gz3u+PGK4N0e1G9/vpp59WYeIEVcx247xJPJCNSZq9t8c34JYGrxHf9FuedJAl3zubBryGNo5pkzxwG0SJscsffvhBevTooedeIgjESemRovzy889UlLApLHzXXXfJZZddJj///LPOEi1ZsiSQ5N57762TO9avr127tidNN/xNmNwNgTX/7zpZ77UDaGsJ6ww8iYZ7NJJa3j532y1bDjrwYKnvhcFVqlTV2Xe+aQjZvoFHFi5cIAsXLZTvv/tWxo3/Ubu/E8aPk6XLlvqtEmCcEZ/5xOc+8aWxww4J4dkMt5syMDbprUM7uGXVqpU6l7LLLnV0Yho+c2V50EEHyX777Sdff/21nHPOOTp+aT3mPKIc+dGHQTSJJWa+cckixIQTNWFbPBjkBxHW9Ew8Z/ZsWe1JE+3xwBZhunJMpIQwE1JMCNLKRsWKlfRJ3Nrxdjn88BZSrdqO/hpCSFyAE8aN+1GeffYpGf31VzJ37pwkT3j2k0xPhIlsQp7upE3xzOKeKBMSRB3A9pjA+eOP2VKn7q4y3+tiYzsTLc6vbNOmjZ4G+eOPP+osOK7Wge/yjFEi9MR5RngAyA3dbJgV45GY8bbzJE2G8+fNlTVeuVLlynogKkSvjGgTbd20bh3GLrFd4ppMtLUnX7lSZXnppX7y86Rf5dtvxkrbtmdQkoTEFAhs7733keee6ys/jv1Jfvh+vBzRwrke21zjOwQuQi8VXlm92vPN6kSPF2OSSNbuzz//0lnu32fO1DKSBXQ41RHjk3hsdLfRQ4YH9cY3/sMGIATFCjTAICfuwIHwGDtAl9sdkwT2wGu9ejyYHpx/gGvWJFLSk/HySMbBBx0ig98aJhMmTJYTTzhZHx8HSgghINOLDnfddTcZOGiIjB3zk1x//c3+mgTmFAzlYagP+dWr4SBPmDmJwA5eQoJalixZqmfyAHgJwE1YjztUobuNm2fgyh1EoNqN11YezzzVS7747NPgDj8QFu4EhD47+ui44QXkhx3azsFxxx2n68zKCaMnThFCPhFBesnbxhVko0aN5dVX+suwYe9JixYtNZIlhJBUIICq63WZ77m7k4wf97Ocf96F6itDZektoSf4aO1az0frEkEbArl/0aP1Enq3ONHcsMgSCV1tRJK4cuebb75RUWr33G+rooIccUImRAm5YVAV3XD00bEDPHhYlDj3CGUcQEKOiCwT3Wp0sW1i519fkrDzVVddKyM//sKT7Ak6PkAIIUWhdu1dpEePXjJw4BDNG+s8OcJTAN7BcJ9Gk4gqPS8heIO+pk+foW0MtEWCJHFGD/aB7XBpdpIoMcNt0STkhZlsXN8NG0OU6HZDkmEwhY6drl6TOI9yzRpIMleo//6be+DY/3sjPpYHH+iS9E1ACCEbwqGHHCZfj/5Bjjn6WL8m0Y3W6NKXH/yD4A1R5RovkEMwByGGQVs4DOvgPZwaiUAwqeuNiNJmiGBQ3Jkcly0iTMXAJmRpD+wCEWLnCHNxQG7E6Xa1a9asJRPGT5Z9993PryGEkI0H7nrxxX5yX6cH/ZoErn/Qs0UZvoIo16/PG/QBuAuiROSJWXDc/AdBXZIo1ZxeNAlZYoYbA54QJQY3EyFrsiQBose1etpP4i5BOABPp0kHeeABB8lnn30VDKASQsimBEOG1157vXTt+qh6zICHEPiplzx/wVeoQ8QYBdqiu43gD6dIzpgxI1mU2LlFk8hjlhsNLKJ0I0UXzGr/p11tRJuw9A6elhPrwH777S9vvDFIqlSu4tcQkj8LFsz3vlg/kes6XKXLzz//xF9DSP5cftmV0vnBrn4pAdylXkII5zkMZRsOjALOQ2AIDyJIRE9bRYnfwUGlDlr6kysmR2wEw4YxaWKBCDJB4rQeOwicB/n6awOlQoWKWiYkP4448jCpUbOq7LPvnnLOuWfKoEFvyjnnnSlntzvdq68iB/+PwzakYC67rL3cc8/9finho4SjEn6Cs3AaUSogSUSdcBzy2F6taGemI6IEECQaYokQFSkcTUKqIBHSahbG1O0AZsu/+Hy0XmVDSEHUrFVNpkyZ7L+vEpec4X25A97c+v7aQWb9/ruKFJeiEZIf113bQc477wK/5MnS6/XiPWXJpBmF+c+cpzPfuITxtVdfkcaNG+ssN8JMGPT222+Xo48+Wu+qgfOJcFs1k6MLQlO8kdd7q+wUIAh30MAh0rx5C6+UdxscCGbRMdMOoaYCg64rVqzUyydd8CRwKMWK5Y5FhEFE/NJLffVs/QQ7yN577S0tW+b/a2tkywNJGvjbYoYSf2C8c/z3qtSpu4vMn7cgeDvN/WNxIkO2GIsWLZThI97VywlXrVwl/3pRWamSpaSi9/ls2eIIadKkqd8yf3ABy/fff6uXKIfBUN60adO8z+4LWm7f/iqpVau2eqmo4PzvAw/cW+bNn+fXJIYY4TFIEJdcR4FJHPzETXZ2towePVpuueWWRESJg3AliCeCHUJokCaW+eJtmru1yLnnXuBJsqWXc2sT5OSskj59ntPrN197/VWZMGG8vyYv7747TJ55tldgdsgP2/Tv308vqUwFbp3U84nHpM3Rx0izpnvLXs32lmOPOU7/yGTbAl1q+/v+s/offa/hC7BYBk5TS5yqhjTr99mJL0c/ykRkSbYM+Pt8/sVn0v2xR2X8+HGJn37xonoMyy37c5nMmDFdXvSCkpdfflHr8uMfzy1PPNlDLxeMokvXzvJ872f1NB4ktH3++Wf8tUUDgdiQd0bkGfqz91sqsB5f2HgvYpIIwlVRQpKIAm18El1tyxckSlMhdgxwGtD993XWfBQTJ/4kdXfdTU468WQ5+6xz5M2Bb+iBQYLLl//ttxKddZ/jfXO5jHjvXb3+87zzLkx5HfjSpUvkueef1nvNlSldxotYS0pJL2rFGfZk2wIn9ibeQeu9D1iOL0eIMfGNr2NDECOS9x7FZWk4TxfDPSjXqbuz7odsXiCK4V7QkmqmGODvhTv/TPp5ol+TF3zGH360iyfJ3AgvjPZQQ6zy5Lqh1K9XX846K/eHwsxTbmAYBd57eE4IGPE+DUSJSiRrhDeovVmtPgqscdfeecc9wc1+o6hWrbr3gv3l7XedHgCu4cTj//jjGC+N1TZ4vM8+HymnntJWywCyXu690IgmPv74Q33Ro/hy1Jfarcc+8A04cNCbMnDgAHns8W5+C7Kt0KhxPV2u895jxbw3pErRey+s9b/NMQCPZTkvMkB0gHV4o+NsDPx97U1PNi/4PF922RUFyqVRw0ayjxfIRIHzsHv06B4pws0Nzq+sW3c3v5QgcYZONHhv4X2HhPcketgqysS3eOJNCiBH5G0DLFO/SF4brz1o1mwvadv2dM2nAtdY4oTO++/vJE8/86ScflriB3zQVbcxi8FvD5JDD2muNjfwAs/8faYOE+Bx0LXOr/tNtn3+8yNDDLRn7IC34npPmMX05gbFvKiyapmy8sg5V0ilzAp6ea2NL/31F74k8cX+n7zwUh/dF9m84D6wRx55lF/KC86RvujiS72/T6In6oLu9pNeFxrd9K0Bus+33NzRLyX8hkkVeC0Vtg7vNxUmCtiRC6bETZRuiib3Ae++674CB12//PJzqVOnjnTq9IBcd+0NXjf5WX08Y9mypbJg/gIvgiij4xi44mfOHFwmuc4LoxtIPS+URre7WbO9ZfbsWf5WZHskcePm9XqDVYCJPUwONKhVQsqXzpJ/PRF2HdRP7j3rOu0lILLZwRMo3pv4QKJ3kX+MQzYlxxx9nOy1195+KRdMAuP+DZkRk6uQZK+nnpD5C6LHJLcUJ510qmTvlq159VU+bxystwARASR6LoH+8eazpeXR0CSYCr+plC9fQQ466OBEIR9mzJwh1avvpI9RoUJ5FSNmtw2UcTPgsV43fNKkiYJbJeEGnhiQxTiWHc/KlSt4vfh2zIcfvu+9Cb03j/+exfsB74ssL3JsULecVCxdTErozVeLSZ+h/RJDQJ5YTY14IyP7sj87SjY/kMYZp5+lN/I2EGSddWY7qRhxrjROq3m852N55hq2Brjy8JZbbvdLBWPuw/sSSxWlidFw5WhmTQWuyAGPde+pB1MQrY5qLV988ZnOnn3w4Qd65U7p0mXk+x++kzFjfpDddqunEz1ICPUxNoW7DOEPUqdOXRk8eJB8//13ems3jG+S7ZPWrY/WW+/ZN633ttQPYpM995Sa1UtJvdrVpJTX1V7337+y8M/FKsjVa1brexWbqGS9uvMvuFi3J1sGRP2XXHxZEKS0PfV07ZaHWbF8uXTv/oj+zMO2whFH5A4d5Oc0gPWWgIrSxiTNniZOt2EqsG2FChXk2GOP92vyZ+eda+hlRrjhxhEtj5RTTk5M2DRrupc0bdpM8wa62Dfd2DE4nqOPPtZLx+jv59x80y2MKLd3/LdWYswIt76arsMyb3++UqqWLyWli2dKztrV8uvfs3XsMnEzA69b5L8nkW/QYHfNky1H5cpV5MYbbpY2bY6R/fc/wK/NBacI9Xzi8a02JpkKXPxy6qmnaV7fcykw71nS+RuccD50yNvet0J9vQgcUkK09sILL+jv206ZMkXvoIHbDZmwXHDPSowb4ucbotZvaVZ7f6QZvyffa86oWaNWvjPyZMuyS92d9CIFjEMjYsRvnNStW8eLNtvoe+7b777V7jberABRZOIep/8FM99z5/DE860FXv+ozzzmHHBObH7gN20wQRdm4cKFsmIFThvLBWJOdXJ4Ufn116ly4EGJmfkqVapEHj8mpvbff3/9rW98eePkc40oYUx7MwI1qL8Dtz4VN95wyzYhSYAxrj12bxiZKMlti1kzMcCfuAkLrvLAe23GjJnSt29fKV6iuDRu2Fh7K7nn+CZmIBOTj+s36GoNsulI9ZnH36Vc2XL5pihJAvywF3qMbtpUkgT4/a/qO1b3S6n95tYjr6LMT4b5rQN4EzePuBSJkMJgZ1xkZZUQXLqI9xtmGb8a9ZX8/MskPdfW3oPoLqG9lX+fmfrEZUKiwFVfVZz7T6SSvVuPL/JgMscmbZBPfHsXDgzk7uzMghFSFGZMz50RzcpClJG4yAHvR+tmI6Eucalt4v06h9d6kw0A753TTjvTL0WDNuZCLOFDNSLeiNbdtga2geVTgR/7IWRjwDhjWa87tt77Dz0URI2ZmfiN5gydxME3evHiXuSpb8UdOC5JNoqjjmzl56IxB5oPdegHK9xKK7vL/KhTO/fXzAjZUKZMniGv93vTe8/5vRn/PZn7Dlwv99zVyYskF/llQjYMnClRMiv1XcsM14n6rkS3xo0kreutb1S/LhX/O+R/fo6QjaNFiyNUhJpmL5Inej6jXWxEkEjt21/jtyRkw0GPpV69xFU6+QH3obeNZRBRQpQmSzeyRMqP3Xdv6OcI2bQUdN8AQjaUnXbOf17F3AcXYmxcRelO3mBlUSZzcO4lIYRsT+R3w3AXCxoDI1oFlu5dewqialX+siIhZPuiXLn8AzzXh0BFiYIbRRblPn9FkSohhGwL7Nl4Tz9XMNrLtgxkafZE2cXqCSEkHcCvLBQWDSQtA+xcSje6xLqwOAkhZHsGP1hWFHKN6BGOHClIQkg6UqVyZT9XMAgcg663SVHDTD+yNMICJYSQ7ZnyFSr4uYLRKxf9fACjSEJIuoOfHCksQUQJ3KjSjS4JISTdcOdhCgI+1NZF2YgQQuJEIEpEjkgWVVqZEELiiOu/YIwyKqI0aRJCSNwIu08NaXfIMEySrlUpTUJIXAj3qDMWLFicJEGd4fEjTLeeXXFCSJww58GDGfWz6+QWQl1wypEQElcsUAzucF62bFmtxM0wkPATtJAk6lyrEkJInID38PO7Kkr8HCR+JxnmBPgBc+BGlMgzwiSExJGMnJycPBJMJUVGlYSQOAHn6bwNIslUUqQYCSFxR8coYUsTokWSW0uQGB8dP2G8XyKEkK2LBZE6Rvnnn3/quCSkiTuWV6lSRWXpSnNzyxMDpj16PiYXXXSRLFu21K8lhJCtBxyobkRh5cqVWgkgS/zwzpaMKhFJPvFkDxkwYKDcc8/dUrFiJX8NIYRsXRA8qijXrFmjFbAnrtJxsdBzc4H9P/xIF+nX7zW57daOcvJJp2y1rj8hhIQJRAkxIZkUMXhpsrLl5hAmpHzffffIwIFveZHkPXLqqaf5awghZPNS2IDs33//zRWluwQmRiwLu8OigO52t+6PyJB3hsppbU+Vhg0bytRfp8iUqZMjE05jIoSQTUVhgz/4T0XpYhtvDjm6TJgw3utuv+5FlevlzYGD5IwzzpTTTz8jZZo9e5a/JSGEbBngQz2P0i8n2XVLjFPus8++cu89d+tBnHfeOfLRhx/KJyNHpky77Zbtb0kIIVsGBIzB/ShNjCZEyCssx80RYWJMErJEZPnmwAFStWq1lAkDqoQQsqUJIkqTIORoaUuAxz3llLZy+223yQsvvCjduj3sryGEkG0D+DADJ3oDSMuECYOGI0hXnptapGeddbbccvMt0u+11+XJJ3voLBMhhGxt4Dq9hBEZSwCCDI9RhglLdFPQrt05cuutt8qgQYNl6VJemUMI2TbAGToZJUqU0IKJ0pZgcwgxP84+q5289957Uq1aNb+GEEK2LsEJ5zZRAklCjq4gt7QsS5cu4+cIIWTrAy+qKDXjjEtaHvVuhEkIIXHB3BeIEmOSSGExbulokhBCthXMf4EoAQpYgYRZZxMmZUkIiTNJ51GiADnqWehe3nAjTEIIiRvBTTHcCBJYZGlRJiGExJnc0NHDZBkVRVKYhJA4or1sZOxnai2SBAlXMqokhMQX+C84jxJAhqhESpwehNrUESYhhMSBYIwSIrTLFk2YLlF1hBCS7sB9OuuNO4ejgGQrDGQpSUJInHAdCFDOyMrKCkQYlqJlwxsSQkic8KLK3MsVDTuPMlxPCCFxQ+8ehAxk6EaNdj9ISpIQEnf0fpTIuJFjWJpunhBC4gacqKK0GW+t8LrdJktKkhCSrhTWb8F5lCZF2xCitEQIIelIYf0WXJkDCpIjo0tCSFwJJnMMN7J05VhY+xJCSDoBDwYRpYtJMb8IkxBC4gAcmCeiBG4ZNqUsCSHphttjdonynYoS5wml2gjkt44QQrZHUgWAYd+hnDSZY9iVOQD1jCgJIXEmY9q0aQXKkBElISSuwI0Z2dnZiUzENd8UJCEkrpgLg663XY0DsHSv1AnLkxBC4oAFivCfijIsRlyyY1gdIYTEkUCUBoSIZOIkhJB0pbDhX3D3IIsasbQUhlElISSdKOyAYnCtt0kSuKK0CBNEyZMQQtKdIKIErhwNV56EEBJXksYoDZOlRZquPAkhJE4EP1ebCkaUhJC4g0AxjyijokdGlISQuJJ0417DPTUIgqQkCSFxRidzcnJygssXgXuVDiGExBm4UCPKrKwsHay0SRtXkhQmISTOwIkaUSKCRDJMjuElIYTEDfgvz6y3jU9aV5zjk4QQEjqP0sQYFUVSmoSQOAIfqijDYrSuOOrzkychhMQBNSK63CZCiBH5XElSkISQeAIH6jwOCjYmCUyQJkyvqdYTQki6YQFiKrA+mMwxOdrSJnVyZckxSkJI+lEYr6FNEFG6snST7Qh5QghJF4ritmCM0jWr2xUnhJB0xARZkOvQTkWJhraRO7EDCmNbQghJB8K+s3LG2rVrg9OBAC7XAWgAgZptGWESQtKdsOfMgxnIrFu3Lqi0ZFjerSOEkDhgPswoUaJEUtSo9vQjTMqREBInws7DUGTwmznhcBO48iSEkDgQ9p3N2QSDk26D8IQOIYTEkTyiRMESVhoUJiEkrqgkM/xLGA2LKt3zKNn1JoTElaSI0qJGV4pWF7WOEELiQvHixfN2vS1PCCFE9PRJFSWiRTdixN0ywlCehJA4AvepKF0xQpg4b4hdbUIISczZqCjdSxiB2w0nhJC4goAxiCitYKBsESUjS0JInFFR5uTkaNfbFaKJ05aEEJJ2pAgCwy4EGVlZWZoBqESy8yi3BUmuWbNGIHPc5Wh75OGHu8r9D9wvv8/63a/ZOqxevVqPA2ns2DF+bTxZvfofBgAEoaKfyQXvC/e9EYjSpGhi3BbeQJiOHzNmjFzR/nLZb//95MCDDpR999tXrr7mKhk3blzkrDx47/335PY7b5euj3T1a3KZPGWytD39FGnesrk8/MjDRX6ej/d4XNoc00aOanVUkUQzdNgwGTRokKxcucKv2TrgNcNxIM2cuXWlvTUZOvQd2f+AA6VXryf9GkJyMTEadtvJpFkcEyY+VCYS2zC8g83F4sWL5LTT28rFl1wsX3/9jV+b4MsvR8mFF10op7Y9VZYsWeLX5rJg/jwZ/u5w+WrUV35NLosXLZZfp06TZUuXyWuvvSYTJoz31xTMn3/+Ka+++qrMmztPFi5cKCtWLPfXkC3JypWrZP78+fo3SMXSpUu1TdT7499/18kj3bp5ufXy4ccfJSpJbMnPaVgHByKQhA8DUbrXd0fJcUtEmosWLZK2p7WV6dNnyG677Sb333+/DPMiso8+/FCGvvOOdLq3k9SuXUtmzJghF1x4gSfVxf6WRee111/zcwWxXh57rFtwz06y9Rg9epS0btNazj3v3KT3q8tdd9+lbTpc38GvyaVYsUx5qHNnOeboo+XKK9r7tSSupHKaSRJLOyMoEKUrRXeM0jbYEgx6a5AsW/anlC1bRp5+6ik5+aSTpc4udaR69Z2kbt1d5dRTT5Xnn+stZcqUkVmzZsnrhZZdLjvsgKe8g3z37Xc69lkQf//9twzzolSQ2JZszxx+2OHy8MOPyLHHHufXEJKaPKJ07Wp5E6S7bnMycOBAXZ577rmy8841NB9m5513lo633KL5/m+8UeRJnlKlSsqeezaWpcuWedHqO35tasaOHauhN+S8117N/NpNDyZbVqxY4XUvVxb5OW3Mti6I0v77719NRQWTbjgGJBxPYcFjrlq1Srf7559//Npk7JgsisT70erWr0/ctCC3nHivRtWB3OeYHJHmts+tRy8Cr+mKlYV/Tniv6Dah18Ee1z2WMPjb2bZ4LfJrSzYf7usOB+Jvp6K0FbbECsuj4ZaIKPGY1pWuUKGiLlPRpElTKV++gnalMCZVFPChbNmiheb7vvCijlulAsfUs2cPzV991VVSunQpzW9K8OF48KEH5fDmh8sRRx4hLY9oKYcdfpi88uorBXb38aHqdF+nPNu+2u8Vv0XhmT17thxy6KGa7rn3Hv1QFwYc/wsv9tXHxTEg4Xhuu/3WAuXyy+SfpVXrVtKiZQs5wjv25i2ay7XXXaPPy0Dejuuuu+/WOoxRHnb44VrXo+cTMnny5KDNN98kxrUnTZoU1I0Z84PWgRtvulHr7ru/k1+T4KOPP9L6M848Q//umLA78aQT9DU94ojEc3r++ed0XSomT/4ldxvvdcDzee65Z/Q16v5YN93/V1+N8lsnM+DNAfoautvecOMN3vs771gr2bLAfypKzfjdbWDhZligmxM85pHeGxL07dtHli9PPWFSr149GfXll5qqV6/u1xaeE044UYplFtMP3Ow//vBr8zJlymSZNn2G5vFhQdS0KRk/fpy0Obq1vDngTR0GwP4RSUDm3bp10/HauXPn+q2TmfDTBDn2uGNl8ODBui22g5iw7aOPdpOz252t+cKwYMECueTSSzwprdBo+6477/b+HonZvvzQibfTTpMePXr6x7Ba1qxNnM41YsR70rpNK5k48Se/dS54Pz3a7VE5++x2Oi6NY1+zdp1u9/nnX8gxxx4tP/44NmgLWSKZeN26td7jQV5WRkQHouoAHgt1q1cn/y3/XZeIBDHU8kDnB+Syyy+XP/6Yo+2RcGy9nnpK7vW+RKJ47fV+3mvezvvC+SPYBq//U08/I+dfeL7KHPsPf/mhDf5WnTt31jye45o1q/XxPvnkEznhxBM8ueadnCRbFjUi3lR485kokXfHKbcU53hdbrB48RK5+pqrVSSbg4oVK8qpp5yqH6Ann+iZ8jkO9z7soGnTJjpOuilFOXPmDLmi/RX6XA8/7DB5e/DbMuaHMZr6vdpPJ7MwaXX5FZfliXqXeFHGZZddJsuWLZMjvegDE17jxo2XH77/Qfr07u1tu6tGVNdce41GM/nx999/eZK8WGeK99l7b3mi55NSsmRJf23+3H3PPTLDex7Z3rG+7Qn7x7FjZcz3YzzxD5BmzZrpePPNt9yiXUmX53s/r2cRlC1b1pP6o/LN1994246R90aMkKOOOlL+/PMvLyK93Vsu0yGPL7/4UlOne+/V7XfccUf5whMq6q695lrZfffdgzYHHnigtmnUqFFQt88++2pdYcDr8Nagt+Qa7/038uOR8v133+tk4qmnnKLrh707zPu7TNe88eO4H3XcE++nli1byttvvy3fffu990U+Srp5zw9nXHzv/W3C4H33wAP3698Kf+9XX3lFfvD+/j+OHSfDhg6VAw7Y3wsYVsitt91a6C89smmxIFJFGY4gTZBIJs8twb7eG/rWjrcIfvAM50ued/75cv7558ngtwfL77//vslEhW/14/zB/I+8DwOimjB4Yw4dOkRfm3vvuVfPpwpHIRvDCy+84D1GjkbEjzzyqGRnZ+tj4N53TZs2ld7PP+8JvYLMmjXb60q/6m+V4KWXX9KIA0Ls8lBXnfDK8P5O2PaAAw6Uhzo/pO1++OEHfd1SgWGLM886Qx+jfv368sQTT0ipUoUfXvj555912fHWjt7x19PjR9pjj4bStUtXfe8gIrZ2AK/r66+/rvk777xD2rRuI6VLl/baZkjNmrXkwQc662TevHnzZPjwEbqPChUqaCpXrpxuh79J+fLltQ7Hm5mZGbTBawCi6goD9o1jv+jCi6VatWqCCzLwJXmvnnFR2wsq1stHH33ot07Qv39/XeJv2aVLF++LI9v7ssnSY2ztPb/uekpSXtBrGu59OYBLLr7Y+3LZS4p7x43nXKdOXf3bZno9H0S5iEjJ1gGBZND1tqUJ0i1vKfB455xznkYn9eolxDFu/Hjp1KmTdkHQJfvs8882+lSdf//7V5o0aSLlK5TX8pdeFz7MBx9+oJENJo8gAVDQmFthQSQ45J3ERFKPxx9XUYSpVm1HOeOMMzX/+OM9VIwAH66XX3pZ85decllk9NeoUWOpW7eOrpsydapfmwyEddXV7WXOnHle1FZWnn/ueR33LQr2d8gslqlLl5122kkGvjlQU4MGDfxanID/jj7/xo0byTFHH+vX5oLXom3bUzU/zovUtjQ77lhN2rRp45dywXsT7wXww4+5x4Xn8v7772v+wQc7S+lSef+WTZs20/2Gccc7o4Y6IOo3ByRew1133dWvJVsS+C+IKAEKUVI0iW5JatfeRQYMeFOGvD1Ebrj+eu9bNRERLPK6MB06dNAB8+nTk7s/RQFdJEQZd91xp5b7vtA3T/cW3Vlwyskn6WsDNpUop0xNRAcYAmjQYHfNR9H88MN1ib8LTnoHixbnRr+NGzf2c3l5o/8A+WTkJ9LqqKP8mlywP4y1/fxz4jgGDRwoVapU0XxR2GWXXXR5i9cL+PTTT/R1NfAlB0GiW4znCSCGl19OSL5B/dTP+/DDE5Nt06ZP0+WWJfX73d4Hq1bkTjbNnTtHl4hsGzVsqPkoor4MEe02b36Y5h/q8pDXc3orz1AJxuPxGlaqVMmvIVsajSinTZumb3CTpCvGqLotRXFPjnXq1JGLLrpYvvn6a++D31/OP+887YpgkL3dOe0iJwoKw3//Jr7JDz74f9q1+uOPP2TM2MTkAZgzZ46M9yLZcuXKyllntfNrRXL+Kfi8y8Iwc+ZMXZbxPjwQSiqqVs2NQmxy6y9fmKBc+URXNAp8MDEGiGGMMH369vEi5kT3EVFLpcob9iHs3r174lSrpcukg/eFdsSRLeXyKy7XiZpff/vVb5UL3mc5OYlTgHC5KWa8o9ItN9+sbTB+u61jwzZ4HxUvUfguPsDn6sEHH5KDDjpQ/76dOt0nzVscLpddfpk89FBnmThpYmTwQrYc+BshZWBsDBn3D2JitOXW/mPhw47u5M033yID3hjgRT+VtevYq1evDTo2nHsHMIZ00MEHaX7oO0N1if31eqqXfrMfdNDB2sbAzOim4B8/Mt3Bj1BS4Up0nR/xulFbxgaeAI8vAkQoWSWz9IPet0+fpG5gYamxcw158YWXpMtDXbwo8HCvq19KT8/BRA1mw2+66UbvS2i23xrkDutA4lW9KDYqoYvbuFEjyc7eTdtuy1gEiGjT+0hpvihUKF9Bnn3mOf3Sadmipfd3qSzffvutvDFggLRr104n8xDMkK1HMEYZxgQJtpQkMTOK01Rwyk5+j1mvXn2dXAGjvUhz8ZINv4wRz/P2W29XIX340YfeMSzXCaPRo0fr+jPPPEOXmxrIAGCML7/n+s/q3BOwS3kSAiWdyZaCZrRTgUj28ccek/u9CAb09kT55ZdfaL6oIJI67rjjpNeTveSD9z/Qa+0vu+xS7VZ+9PHHGvn/+VciCoZI7L2FccD+/d/IN0HC2zo2wYS/5YZ82QBIttVRraRnz57y7rB39XXs0OE6qVwZ0vxOzr/gPJ3QIVsHBCcqSvuwuoLc0rz55gA55thjdNKmoFMhdt01288lTkjeGGrUqKFjaTjvDSf94kRjDNDX86KZ/fbd32+1adndH5fE4+Q3kz91yhRd4s9SqVJinK+a0x1fuHCBnysaGOfFKTNt2hytp+MAnIISdSOJooKZ4WuvuU7PDYUAMCFmkx3FMjO9CD0hlqgzDbZHdvbePwDvw01xsxR8BhFRX3LxpTLk7be9L6ISeorQZ59/6rcgm5uwBzGfoaK0FSZM+2ZEGeu2hED3228//VaGsHBLtPywyRBQvlxu13hDadu2rS7fGfKOnhsITjv9jGDwflOz6667eamuTg716dvbr83Lu8Pf1WV2vexgCKBq1apSp05iEuXTT6M/PIg0MV54wIEHyCeffuLX5lKiROIepHh+Xbs8LDVr1tRTlW69tWO+Ea7Ly6+8rCeU33Dj9X5NMpgcsvfN0iWJq6dQvr5Doj3ONJi/YL7mo1gZOvdyW6VWzVo6qYWo4/X+idOewuA9jXH1MMNHDNfXEMnOanCpWLGSNG+emNiaPcsdwiCbk/BnAOUkE5gU7Q1uy8J+eDYGjEEeeugh+li33nqrfPvdt5GP+8svv8h99yW6jK1bt9LuycaCcyqxn5m//x7cwuuIlomrhDYHOMfvogsv0nzv3n3k62++1rzL6/1fk08++VTHER/r9pgntcR4JYYJ7rrzLpUcZIXXyQVfcm8OfFMnQvABbdqkib8mGoz/9ujRQ7vK333/vXR7rFuh/t7NmzfXx/j0088iZYzzIG0/ONXLwAcfk3QQQ8eOeU9Gx/F/8slIOfW0U4NI1MC4JsDzcsdqXexUpU15cUB+4O+BexOAvn1fkO9/+F7zBr78uz/WPTiVygU9mfnzF2j64IMP8rzuC7wvEtxrADRuvKcuyebHvAfwN0FKiiiB+8dy826bzQHkgZON8aGCrHDlCQayX3nlFXnnnSEyYMAAuevuO+XMs87UGcLq1XeU667NeyutDQFXf7Ru1coviZxw/PF6HuDm5LjjjtdresEVV1whXbt2kfc/eF9GjBghd9xxu1d+WD+Ep592mt45yWXfffeTgw8+2Isc18mVV14pPXo+rmOsw4cPl5tuvlEefvhh7S5gHNKdOU8FhgLae8cA3uj/howrxBVRdevUlSOPPFLFhkmbLl0eknfffVc++ugjPd3q7HZn6rrddt3V+wJMnAID8JxwuzyIGVcTtTziCL2uHZfrvfvuML1N2g033qhjcmXKJJ9Sg9cB7xOcKnXzLTfpcM2o0LXTuMkz+O233+TpZ57W983GnEpWGE44/gTv2Opq/pJLLtG72uPqHESYZ3mvAy6YiDrpHSemn332WXqxAK6vv/2O2+Sdoe/IyJEjpV+/V+X8CxK3EkTEetBBiUlHsvkJew/vYxUlMibCVEJ0N95cIKp7a9BglSROlv7uOy/C6d5Nu8OdH+osQ4cO0zdc48YN9RxLO49vU3CKf4kaIrWLL75E85sTPI/uj3aXCy+8QKO61/v39yKsjnLb7bd5Xe7hOkmCK1c63nKrv0UukMUzTz8jZ5xxuv69XnjhRbn55pu9D9rtGoWWL1dWnn76aU9kec+hTMU555wrJ598snbbL/A+oAsKMf756COPetud48kvU+/kdId3vDfdfJNOSuTkrJaGjRrqTZLD5xDuu+++8srLr0iVqpW9x1uj17Vff8P13vZ3quzxt3/Bi84OOyxxHqmBsbtz2rXT54xI9sHOnfMMP5xx+hmyxx67awT37LPP6vtmc5+PiS9anI2BK4vw/nnt9dfl3k73el92XeX3mbOk8wMPeuv8u2E5Hy+0ve3W2+XKq67U9wCuj7/77rv1ZhiPPPqoBgy4FHOA99oW9rJSsunB520HT4Dre/fuLXvuuaeeMoJvfERseLNj3HDixIl6TiG+oaMkOnVK4pzATQ26ZHPm/KGnRqxctVJKFC+hH5TdsrOlcqXK+iYLg2uDlyxZqhIKSxQTROgOAnT98ORd8GWBa6vxHHFVS9SVEliPdjvvvJP34S/j1+aPbVOrVi2VXxS4lBCXqM2bP9d7/Aw99gb1GySdmhQFvrwwAYO71sxfsMDrdhaT3bwoBVF5+Pjs+QGcOxm1b3SH7SYcuJ7aZnTzA8eASakpU6Z4xzDP6xL/J1W8L7w9GjaU6jtWj/w7Gegez503V375+Re9lRlugVcvu75GZ6nEAAH+9tuvMunnn3XfTZs01cs/XfC3xvXXOBkcr8P/Dv5fcMI2nh+eJ7rx7g1V8J6HmPC+wOsf9V7HseasytFjw7huGBzb9BnT9W+JLwBc+tjE+1zhiifc/ARdbHzBHXLIIf4WuSBKxrmnOKf3X28/FSpWlIZ7NNSeTfi9SjYN9RvUifw7432xzz776P0K4L6zzz47IUpcd9zQe2PjzQTJoNuDcav9999fRYnrrre0KAlJF/BlhtunAVzxhWvzydanIFHingsTJkyQ008/Pff0ICTDNnbrCCHRoPeD06tw56EoMN4IcKFETf90IrLtAw/CgehlB6J0CVs2yrqEkARDhw6V997D/Tdb623YcOHEsj+X6RVQjz/eXfp6PTYME1xw4YVeN7polzmSLU9U0JgRPn/LlaIZlRCSmjPPPFMnIMGdd96pF060atVKjj/heHnRv9PTRZ4kLzjvAs2TbYVc10XJ0cD5zhmYYMBsMwao0QAD0rhqAuepYePwRoSQZNA1u+bqa/TyQ5y5gJ9xwK+FYnb/mquv1t+Cuvba6/hZ2uZILUcXXHXl9QgydIYTkzg2Q4kTeg1GlIQUDD5omC0/95xz5fHuj8vbg4dIn9595PLLr9DzVO2zRbYv4D8Ek0l/vagIkt+ChJC4Yd7DEinP1xxkaVEkGjCiJITEDdd7gShxMrKNSSJZ3sUMSwghcSIQJe64jXPBMJEDQeLOLxigtkYgLE5CCNmeKSj4s8ARgaSKEpM3GGzGpVKY1MHlXdiJNQSMKAkh6URBwR+chwQ3BmOUrhSjKGinhBCSjiCAVFG60WJYiIwkCSFxISogDC5htPDSBRugnpEkISQuRAWGQdfbZr0NNKYkCSFxxvVfBm7UGiVGiyiRCCEkrsCFGfqPF1qaEFE2SWJJCCFxxJyIZQZuQW9itEo3TwghcUaDSWQgRIxTYmkRpcGokhASVyyIDCZzDJv9NmEyqiSExBl4MIgoLYUjSBMmIYTEkSCiNEyKFkW6AiWEkLhhQWIeUUKK7pIQQuKKDUsmidIiRwjSJElZEkLiil2IkyRK4IqR3W5CSJyBKOHAYDLHBOnK0Y0sCSEkbqDrrb8nhoJZE1CMhBCSAKJECiJKA3mscOsIISSOIHBUUebk5PhVuUCSjCwJISRBBn6zlhBCSGoy7M5BqbraVs+uOCEkbsB7wR3OkUE/HLjjk1haF5xdcUJI3ID3kIJZb7sZBuRo0kQDRpKEkDgTiBIydG/eGyVHCpMQEjcsWEyEkR6IIq3bjZXAzRNCSNyAA+FFFaUrRhezqeUJISRu4FcgVJRut9uFESUhJO7AgUHX24ToihH5KIESQkhcCLreNjaJlF90SQghcSMQZWZmZsoudqr67Y1FixbJlVe1lyVLlvg1hQPPf8WKFd4y93eFCCHxYgdPBOv79u0rjRo1kkqVKqk0//77b+nRo4fsv//+MmnSJBk/frz8+uuvkVHl1Ckz/dzG8fnnn8tTT/WSN98c6NdsWubNmyvHHHusfPD+B1K9enW/NjV//rlM7rr7Lvnxx3Eqyf/+Wy9NmuwpXR7qIlWrVtM2F110oZxw4gly6ilt9VuneYvmUrt2Len36mvBeakuDz/ysPTv318e6/6YHHHEEX4tIenDrDkLZdhHY2Tib3Nl7dq18p9/49sNYYcdMtRH5cuVkjOO3k+aNaknJYpn+ms3nvoN6kQ6DX7YZ599pFmzZvLFF1/I1VdfLRnTpk3L09iNIrdURLnu33Xy9/Llfmnr0+m+TrJu3b8y9J2hMvqrr+W9997zXsCd5MabbvJbiCz3Is21a9b6pcRrNXHiJBkz5ge/Jpdlnnhfe+01FSqeKyHpwr///iff/ThVru/0gpx7/dPyxvBvZeKU2TJl+nz59fdFG5ymzlwgP/82R7758Te5scsb0vaK7vLKoE89T6z0H3nzEOXDjOzs7KCABlGGBSmqtyjr1q3TCHfw4MHy4Ycfet3oxf6aXObOnSPDRwyXIe8MEXwJQExRoH7s2DHy22+/eaW8XwaTJ0+R008/TapUqaLlShUryRWXXyHLPZmvWrVK66I44IAD5NVXX/VLufzww/dSrlw5jdoJSRdWrvpHuj33jtz00OsyZtKsiE9S0YGDypTOkvJlS0pmsdye2Z/Lc6T3gM/lopuflV+nz9lsQVx4v8G13ugmogDQyG2YK86ta0oc00NdO8sll10iv/wySfr0fV5atW4lU6ZM8VuIfP/9d3L8CSfIkCFva/6MM8+QwW+/5a/NBfsaOvQd6XD99V43GiLM+9x23LGafPzxx963ZW70V7t2bXl78NtSunRpvyYv5517rowZO1bWhCLNfq/2k44dO0qpkqX8WkK2b1blrJYr7+gt73463q/ZOCp4Xew7rzpWxrz3kHw77EEZ/c4DMub9LvLsQxfITlUreJ5KfE4XLl0ul97eR0b/8IuWNzeBKBFdmRwhRrdsy63N6NGj5IvPv5Thw4bLnXfeLQPeGCiXX3a53Hf/fX4LkXs7dZL777tPnn+ut3R+8CHp/3p/eeSRR2Xp0qV+iwTD3h0mvXr1kldefkUqepFiFHffdbcn2x/k2OOOk2efe1oWLFjgr8mfWp5M9957L3ljQH+/RmTK1Ckya/ZsObrN0d437rbxehKyMaC7fe29L8iMOUWbHE1F97vbycg37pKz27ZMGocs5gVxhx64p3zY/04Z+EwH2WO3xPwC5gzu6j5IJvy8aeZI8gM9WRWlK0Pko6773trCfLXfa3L44YcHXWEc1+mnnyETJ06UOXPmyOLFi3X5v0MOCY65QYMG8vRTT4t7z83RX38lXbt2lQc7d5Zdd93Vr81L/foN5K1Bb0n7K9p7UetUT5jHSvsr28usWbP8FtGsW7tWTjzxJHnllVf0BQaIXvfy5Ilvpm3li4eQDQXv4CdeeFemzihc8JAfFcuXkXf63ihtWuwtJUuW8Gvzgmhy93o1pU+39tL6sD21bp0n6/t6viVLlv2t5c0FfKiiNLEYYXGCcJstDU7RqVC+vF9KULlyZU8+mbJ02VIdr8Sxlildxl+bYL/99pMyZRJ1iJQffPBBzf+T848u86NChQpyyimnyOOP9ZB3hw3TLvd1Ha7LV3aQ40EHHqTH+/us3wV3kP/ww4/kCi/6BanGTAnZXpgzb7EM/nCsX9pw0NV+sdulkl13Z7+mYCpWKCudbjpd6tdNnHmCbviAYaM1X3QKdhq8h897MFKKgskQeZOBW7c1QVS4MjSJAhlhDLFc2bJSvnwFrftn9WpdGhCVK6du3brLVVddKV26dpG//v7Lr00GpxK9+eaAICIEO+9cQ2668UaZPn26LFy40K/NC16n8p7QL730UnniiSfko48+1FOG9tijod+CkO2b9z4Z4+c2jnYnHSz1s2v5pcJTvlxpebbrFVI8MzGv8u4nP8ratRtyJknBTjMvBqJEeOnK0ZLh5rcGp53WVr76apSem2V88MH7kp29m9SpU9cT2c56/tPEn37y14qsXLlSJ3xMbHiOjRo2knPanauz0+edd57eizNMmTJl9ZzHsT8mf2viZPVM748DERbEiSecKKNGjZJu3btL61Zt/FpCtm8wNvnme3lPfysqZUqVkEvPOcovFZ0dq5aX7F121Pzylavlx59+1fzmAF4MxihdSUIohtXbcnMCEV3R/oqkdEvHWzSya3VUa9l99wZydruz5JVXXpa777lbHu/xuNxww42BxK++6mq586475RFPcr379JbTzzhdLrroojwnmKP9jd52q1f/I3369s7z3CDCu+66W2688Qa56uqr5IUX+8qtt93qdbs7yAXnXyClShU8c42x1Bo1dpbly1fI0ccc7dcSsn3z24w5Xq8tN1jZUNocvqdklSjul4oOPsPXXZwr2teHfevnNp5wUKhORAaTDCiYMKyrinJ4o83FbrvuKhdfdLHs1WyvpLRn4z11IBdn6Hd56GFt88ecOXpe48svvSyHH3a4vweRk08+Wa8o2sETPaR79913y0UXXqTPoWzZctK+fftgvBLnMz737PM6e7ZqVd4TWE85+RR5/bX+svdee8n8eQtUto950eF113XwW4icccYZ0tg7PoDHwLHtuGNCynhNH32kmzzctaseK8AX0Pnnny/ZuyXOXSVke2P2vOQzSDaUPRrs4uc2nIP3a6RuAMv+Tn1uc1EJB07qR69y/QsvvCANGzbUyREIadmyZTq+hksYMas8YcKEzX4JIyFk26f/0K/k6Vc/8ksbzuP3niutDm/mlzacQ06+R/5aniO71Kgir/W81q8tHKkuYdxpp51k7733Di5h7OD1JDWiRKSDDcykWCKhLmpHhJB4kukMy20Ma9dtmrM/0CMEm9JS5kGXDMwK2wobmwyPUVKWhBCwY5Vyfm7jWLx04+/rgCuDVqxKnOaXuQlvlhH2HcoZOO3GZGjCDI9RWj0hJN7UrZU4f3FjGT9xup/bcD76bIznpkR+l5023T0UonznBY8ZGkG6K82olCQhxKV2zWpSo1rinOWN4bNvp8iCRcv8UtHBaUrPvf65XxI58/gD/dzG43rP8trHxrmEJkfgnlvo1hNC4g2CqrbH7O+XNpzVa9ZJ92eH+6Wi89Pk3+WPeQnR7ly1vDTeI/XlyBuCec+EGTky645Rek39JSGEiLRuvpef2zje/2KCfDaq6HceWrBwmVx043Pyny+xM084SJebinDvOrh7kHuzBiyT81smqsRd1D8aOVI+9tKEn35KugJnY8Hdgz759FO/VDRGfjIyOK4xY8bIav8SycVLlgS3eJv6668y+48/NA8wxvvp559HXvWzLTF27I8yfsKmuUUWiQ8Vy5eVB25ou9FewIz1TZ0HyBdfT/RrCuaPuYvl0o69Ze26xGer6e415fijNj7CdYl6XipKfLCx0m1geSxdw24uPv3sM73kEJNLuEv4Q127ypo1a/y1GwcOf0OfwouvvKK/64vjmj5zptxz3316XIsWLZTvfkhcyjV+3Hi5/a679fgBXs8XX3o56Vpx8O6I4TJ37ly/tPVZ4R0vznogpKg0P3hPOebwxMUWG8PqNWvlqrtelgd7viXzF6Q+mX3t2n+l31tfyIU3PCMzZi/SutIli8sdV5+yUVf4RBH2HQKeQnS9t0xECfbbZx857NBDpd3ZZ0lmZnG9bRoOesbMGTL47SEy8tNPgojun39WywcffihDhg6VqVN/lcl+dPfFqFG6BIiWFixc6B2/SMmSiVutffb5F/K9JzhEiOCvv/6Sd4cPl3eGDdMfIAtTLDNTDv3f//S4Tm/bVpo1bSo///KzvzaXpk33lMFDhqT8UsHxjR79tXz08UiZP3++Po8vvhwlA996S8Z50fR//yVHn79Nm6aRqjHSj4jxe0bvjhghg94aLNNnzNA6POZv036Ttwa/LZ998XmeL5g5npy/+/57GT7iPe91fFsWOs8Tcn/vgw/k7XeGyJKliXsLQvBffPml9xhvyY/jxmkdGDV6tPwyebK8OWiQjP7mG/1CAH940fRbgwfLiPffD74sSHoDJ9x29alyxMGb5mYvbwz9Ro4+72G57cGXZdjHY2XMhOky/uffZeSoidKz91A9sbzr08Nk/uLELdWqVSojT91/kdTcuaqWNyVh3+EinMiut30AbINUH/5NDUJxPDY+qH///ZeUKVtWP9SPPd5Djj3maFnvrX/yqaf1eDp7Eec6z/THH3us9wEdIT9NTNwMA9Izvvn2W/0QQwDvDh+h273liWL8hJ9kr732Ulld3aGDl2+mku7c9WF/y2Tw7O11We6JKupa75NPOFHvbA6RRLF7gway++67e8I9RM/8f+3112X58r9VvhDVyE8/81smmPTzzzJ+/AS/JPLWW2/r8vk+faVxo0ZywvHHSc8nnpTFSxarMHs99YyceMLx8vdff8tLryT/FMXvv/8ur772mhzRsoXsuWdjeeChh4K/8UuvviaHHnKIVKtWTZ56+ll9no8/0dMT3io5+cSTPLmPlm+91xG88cYAmeO9nid5z/W553vrcANuOPJI9+7e8RwvtWrUkBdeeknbkvQHfrjvxjPlsrNaBHfy2Rhwf8l3P50ot3fpLxd4keM51/aSDve+LL3f+FJW/ZP48sdjZteuKv17XS/1dq2hdZuaKN8FXW9biWjSFSRS2LCbiwc6d5arr+sgl195pZxx+umyo/fh/XLUl9L21FM1Cqtdq5aKDyLF8ogWLdT2R7Q80t9D4TjOk27VKlW8UH+B7OEJDD8QhjHRHatVzdMVxX0rb7jxJrnuhhvlqmuvkwzvS6VB/Qb+2lzwGt1x223S1xNF1C2fsF5fRu8fRHxTvGjx2GOO0XXXXHWlSr0wYBhg0s+T9G/WpfODeh35qK++krPOPEMj8Pr168vMmXkvK61dq7YKHsdetXLlYEz10osu1NvUNdqjoRel/6MJgoZUcRLv6aedJr2efiYYbz3yyCMlK6uEHHTgARrdfvLZZ7Lv3nvrkAJuJvLrb79t0vFlsu1z3qnNZUCv6+T01ntvVlfU2rGC9Lj7XHn+4fabvLvt4j6HwIv4Bx+6qJVGuLy5uOXmm6TbI11lp+rVVQhg6dJl+jMMEyf97H0Ip8lJJ56gx4NjLl488WIV9Y9jQwvoJmLbST//ovtv2qRpnn1hbPKeu++U++652zu2h+WySy5J+XgQ+0EHHCD9Xn/Nr4kGv6dT3BO87Qc3Gy7MjYTB5ZdeIhUqVJTX33hDnnz6aY2KMXwwd+48fQ7Tpk2Xo9u09lvnkum/VqB48RLel01CZiX8NxyOxfta1NcVkb29tvg7rPHEh/oSJbKCY8Yt+hFq44fWMNaJx0ZqfVQrXU/iA94T1apUkOsuO0mG9vE+w3e0kyvPbSVnHX+gnHJUMzl5A9NpbfaVi05rLrddeaK88cTV0u+JDrJPk+xN+pO1UZjv8Lz0c+GV1Rj25gdbSopRlPYiHkjj6quukneGDtUoplHDhhrFoesNASCqxFAB7jZuEyOLF+eOuUGCdrPeXyZP9Wujqb7jjrJo0WI56sgj5PjjjpVmTZtIyZIl/bUJdsjYQSpXqqw3DCnr33koP0464YRg7DBMpnfceE5ly5bRMVj8fAX47ofvpe6udTVvVChXTv72uuYAIlzlPSds+/aQIXLwgQfKJRddJKu87jEia0SRxT3hHXfsMdKmdSvZpXZt3c4FQxkA0sNZAFWrJMZ23L89wBcDIsy58+ZpGWOlzZo1VXGG2wLcCQkRPl4/pCZNGgeSJfEDM+IH7t1A2p10iFx9wTFy4xWnyE0bmDpceoJcfGZLOe6IfaTmztW8z30iwNnc2PvcdWEGukmoyP0Q5OajPhibC4xHQoigZo0aUsmT008TJ8qBXoQ2zusKPtL9MbnvwQdlytSpKsobr+8g3R7vIY/16CHD33tftwP77rOv3HVvJ7n/wc5SvlxZjZ4yi2V6UVjiZrsVK+DX3BIvOOTXovlh2vbR7t2l/5sDtd6lcoqfl0WXH2IHJUuV1GMCiMAu9SSG7cKvX9OmzeSZ556TX36ZLOefe473fDrrmOvAgYPlDK+L67Lf/vvL+AkT5eFHH5V7Ot2nvxaJx6hStarcesed8rj3vItlFtPf/WnZvLlODHX3Xg/MykeJ+o8/5sqj3bpLx1tvl5Zetxo/c4FjLe4JG+BY8VMbeF733Xuvt6/HdX+YNOro/5a5vYYAX1QQIsZcEZXe37mz/n3Gjs2d/CFke8QVpEaTGI70um7r8TvUe+65p96jMSOjmP7+DH6lEHcBx+9o4xzHzX2bNev+22OgDHCQOFhELViHD7KBCAvrIJ7JUyfL6W1P07KNp+kTdPYH0WCdWw+wb3Q7IVS3HqC9SdAFj2MvYvjYQart8MWE54C2aGPHhf2EwTq0QXtrB/R4vce2/QCUUY/9hB939Ndfy7fffS/XXn2VlrEe22EbkNgHXrfcx4g6Nvc5uc8Z+8E6gDvAe3vUPCHbMoW5zdqXX34pN3mBQgaiiuQPaSKijNrB5gTH4D4mynZcqEf04koS4EOrdc52aIs6JNsnkn3AsXQfB6AtIqtwPbDtwqCtHV/42EGq7dwuLNqgbPsJg3pr7+5Pj9fZD0AedakeF9jrYtthmbuP5MeIOjZ3vfucsbR9Yz+EbM9YAOGin4KoFajDB8CW2zJ77N5Ajj06MYNM8rLvPvvIZZdc7JcIIYUF/kNSUUKEJkUrg+1BkgCRj/3EA8kLJmjKli3rlwgh+eE6z9wYiBJjToaNNxkmUEIIiRNwH3wYdL3NomZQg5IkhMSdYKQeQkRyI0vgSpMQQuIGJi6TxihRYRGkCZIRJSEkrqgkTZSuDE2WSCZLEykhhMQJc2MQUUbhCtTNE0JIumNahPuSIsqwDN1IkhElISROQIfmxKSI0pbofiOPRqkkSggh6UZUsIi6DPf+iyZKt7HVEUJIupPKdxm4asMVJPI4RSjKrIQQEic0mkzMfOeeEmS4UrR14TaEEJLuwIUqSxRsTBK4t89yhUkIIXHDPJg0622SZBRJCCG594RVUdqYJCJLw5UkhUkIiSs6RokMbshqkWRYihZ6EkJIXAlCSBMkpJjfXbIJISQuWKCY29f2sMjRvR8lu92EkLgC/2FoMkmUqIQssSKMSZQQQtKVVEOPKkqb7UYyWVojg5ElISTdcZ0HzIt5xiiBzX5TjoSQuBPMetsJ5ybG8G/mEEJI2hGKHsPAieht47f4M6ZNm6aCdMcl3fMpw6EoIYSkBYXoMQdd7+zs7DxjlOxyE0LiDjwIJ2ZmZuZ2vQ03DyhNQkhcsd52YEWYE1CMhBCSi3a9/XyAdcEJISRuRAWKQUTpTuQANLYNKE1CSFwI+84CRxWla1Hk7XShrQGkjZ+nWLhwoaxcuTLPqUqP93hMXnn1Fb+0/YBTDJYtWyZLly6RNWvWJL3meI7//POPX0q0XbVqVZ4vMBe8Ru7PeLhg39ifm1avXp3ntcTjoN5AHscWBfaR3/EQko7gsxSIEmK0Dy4q3fyWBBI54cST5PDmh8sJJ50ozVs0l7POPkv+/vtvv4WoQJc75e2BNwb0l9ZtWkuLli3kiCOPlKNaHSVPP/2Uv1bkk09HytntzvZLIt0f6yaHHnaoDBw00K9J5s8//5RWrY+Sk04+0a9JBuvxWG468qgjvfYnyaRJE/1WIk882VOu63CtXxJpf2V7OeXUU5LkCSDUE044XiZPnuzXEBIfAlGmEiKEadLc3CA6uqL9ldKsWRP54P0P5Nuvv5aRI0fK7rvvLhdceL734c2NuLYnfvnlZ+nRo6c83LWrjB0zVtMzTz8tQ94Z4j2/j7UNIjX3+a1bt07Thx984Nck8+FHH3pfHsu1TRT4myEiff755+Xjjz7W9M6Qd+S0tm3loosvllmzZmk7bA8JGmvWrJbZs2fLc88/l+fvnuNFlFvqvUDItgTe93m63qnY3NHlqK9GeV3TJfLA/fdL5cqVvZodpEL5CnLdtdfJ77/P8j7csxMNPTx9y9SpU+Sll16Ufv36ydy5c/w1CRYvWSyDvGjs2eeeleEjhsvy5cv9NSIzZkyX7777ThYtWiT9+78uvfv0lgkTJiS9Buh+jhgxQp7v/bzKbOXKVTJ48OCkrueCBfNlwIA3pE+fPrq/VIz+erTUr19PDjjgQL19HaL3xo33lHPPPU8+/exTv1VejjnmGJniPUccrwsE2POJnnL55Zf7NakpXbq0lC1bVlOVKlXknHPOlbJlysjX33ztt8hLcy+af+mll+Snn37yawiJL/BeEFGaJEyGW2MsaswPY6R69Z08mWT6NQmqVq0qI4YPl112qe3XiHz//fdyS8eOsmjxIhn01iA5/4ILgvG333+fKaeccrIXdX0kJUuWVJFde+01wfoxY3+Qhx/pKlddfaXMmDlDvvZEduFFF8qP437U9Xju11x7tTza7VFPhgu0+9vh+muk032dgn0g6jrl1Lby7Xffyp9/LfOO5RYVdtQXTpMmTbXLOn7C+KTX9YLzL5AHH+jsl/JStWoVOfbY46RXryf9mgQTvP0Uzywu++27n19TePSP7ol63droSBTsu+++0qZNa+nS9SEdlyQk7uQRJZbhD7vJM1wfJYWNYVXOKilRooRfygUR2E477SxZWSX9GpFp06bLW4Pekltu7igv9H1Bxy1neoIE73vd1WOPPVaee/Y5ufCCC6Xfq/1k3Phx8ttvv+l68Ouvv0nfPi/IHbffqcs9GzeWD/xuLi7p/Pbb7+S1fq/J3Xfd7XWTn5VWR7XSdQBd1XPOPUc6enLs3u0xufmmW6R3797SrXs3HRsMs/9++8ull14qF154oRzVqpWM/OTjlBMmLpDUCccf7wl8vF+TYLgX6Z504ome8PyKIjDp50k6Drz33nv5NXnZwdtx5wcfkhUrVnpd9+f8WkLiTQbGBu2nIIBGHX4+PwrTpqh4j+zn8ue0007Ty4pAuXLldPnXX3/p8orLr5Dbbr1d5sz5QyZO/EnFV7p0GU88uTPE+++/n5QvX17zeB4lS5UKoqevvvpSDjzwANl55521jPV77NFQ82DevHk6G7/brrtpZInxPkSaiBbRHQ+D7S+79HJ5Z8gQT9znS3dPqK28iK374939FtH8k/OPNGzYSCpVqiSff/6Z1uGxP/lkpFx8ySVJY4upuOWWm3UyDKntaW3lEm+7e++5N+n5RIEvp463dJT+b7wh06dP82sJiR/4XOOzlpGVlZUnkkyV35yUKF5C1q4r+MMPivuSBOZrO86ZM2fKJZdeIo88+ogMHTZMRrw3Is8sbkZG6p+6mOvJKHu37KQvAojDWLFihffi/SuPeaK77/5Omrp53XTIF9FYFNh+l13qyPled3vY0OHS+YEH5P0R78nLr7zkt8jL6jWr9csAY5Ho9iMKHfz2YNlzzyY6dht+TlEgkr3zjjvlrjvvlK5dusgnIz+Rk08+Jen5pOKwww6To49uI3fedZdfQ0j8wGelePHiWGYkfXAgnM0RLRZEnbp1g6jQBd3ZAw48SMf4CsMzzzytExdP9HzS61rf4UWXt+lYZWGpWaOGTJ8xQyeMDHdssZQXfWKIoMfjPbXb7ibM0IfBJNDXX+dOniB6P/TQw3Sy5u23h+TzRZSoP+CAA2TJkqUywzumzz79TM4+O3EaUWG+wHbffQ9p0qSJyrV+/QZBFF1Yrr7qGo1i+7/xetJrQEhcwPseSQ1pcgxLEvktJc1jPXH88ccf8umnnwQSwHLUqFGybt0a7eoWhhUrV0jFihX9kug+3VnvgjjssObyzTffyPx5iW40jsGdAd5pp5284/lXPvzog+A48UJi1j5KJt9887X06dsn6VQedNXnzJ0rlStXLPD1rVSxkhx/wvHS8baOXpd/hRx+2OH+ms0PJtLuv/9+L2LurpE0IXEg7EB8zv1QMlmS7gfeZLC5QRT4/HPPyQ033iQXXnSBPNa9m5x/wXnSpWsXnZCxsciCOProY2TIkCFy+RWXyhVXXC5XXt1eKlWqKEuWLvFb5E9dL7I9/PDDpN057bTLe9nll8qbg9701yYiyv6v95fu3R+TK6+8Qnr3eV7OObedV340ctzwvvvu97rQxbwI8mi54647pEuXh+TkU06SyZN/kUcfyX+c0uh4c0f5Y9ZsOemkkwvVbd6UHPK/Q6RFi+Z+iZD0x3We5Yt18hg/fpxGD+ii4oOIc/VwCk6tWrV0RhlpyZIlkdHPtdde7+c2nho1anoyOEm7tv/9t1722Xdfufmmm2XXXXf1W4hUqFBBGjRoINWq7ejX7KBRXrOmzfS8wfr16ssB+++vE0MNvK7wTTfeLE29dTg3s3r16iq63XbbTccMDUyYNPG6p5jAwXM86qhWUsPL40U6zIvgWrVqI8OGDZP27dvr6wOpH3/ccdqNXv3Pak8kLXQGHuO9YTC+0aZ1G2nWrJmOM+LxW3vlDtd10McFJbNKeseULfXq1dMyusi779FQatWspWX8XerUqeNt18rbvnRQh+eBLnUYHGNN77Vs0rRJ5DEZ+PJp2LCh7hvgNWrcqLE+PwP7OtR7Derssot243H8hKQDTz7ZI9JpOO8YLoBXMGF76KGHyg6eDNbjBONGjRpplxUffpw/+Mwzz+j42KRJk/SE7KlTp0budOqUxGk56YJ2o0d9Kf/zIilMpqCbfPudt8t6b/noo4WLAAkh2z71G9TJ4zQER5Dk3nvvrcHNl19+KTfffLN1vRMNrMttG2OJesvHAYjxiSeflPZXtddJjBtvukG++/Zbufqa3GuiCSHpSZQ4kVSUJkRbusk2RD4OoKs84I0BOi5YuVJlOfuss+XDDz6SunXq+i0IIelAfsGf+Q5tkAJRusstPWGwrYHhB4yDtmlztBx00MGRVwwRQrZv8gv+XCfCB2rE8AY4lcUaEkJInMGQZBBRumJ0I8q4dLkJISSM+S8D5/6h4AqR0SQhhCRcqBGlSRIVJktXnJQmISTO6BglJirCMjRxUpKEkLgTjFG6ESSWNkbp1hNCSNyA/4JZbxgTFYggIUlXkIwqCSFxBf6DC1WUkGNBgqQwCSFxwnVe0PV2sQZmUxBuQwgh6YzrPhWlK0SAPMVICIkjbiSJYcmkE84NCBJlk6flCSEkbmAiB3cRU1ECiyBNkCZJQgiJE+ZCA3cUCyJKE6TlgQmT0iSExBGb5E6azLFK4AoTWD0hhKQzrvciRRmWIcqMJAkhcQVjlHBgRk5Ojl+VECOSnYBOCCFxBhGljlGGf3wK9qQkCSEkIUp/GUx8B7C7TQiJI9arNsyFgSVR4UaTibJmCSEkFoSDRHNiIErXohZlOlWRuNsQQkg6Ah/m6XdDfq4AkQ9b1khVTwgh2yOpgj8VpSvDsCgpQ0JIXIDvXOeZC/N0vVM1JISQOBAVKAYRpY1LupIE4TIhhMQF+C8Yo0QBJ5kb4SiSUSUhJH4kvBfcZg2kkiElSQhJTwrqLeeeLhl0vRFVYhkWI+rZ/SaEpB+FDwKTIsqwJEGqekIISUfCgSHKGdOmTQtWhJeEEBJ39KYY2dnZfjEaypMQEmeCWe9w1xoGtTosIUl2vwkhcQPuQwrGKF1gUEaShJC4YwFiEFG6EaPlTZIoU5iEkHTH9SDQaNK63rjdOQphWVqyMiGExI08J5y7EaSBOkaThJC4Ah8mjVGaIKPkSFkSQtKdKM8lXetdEOx6E0LiSND1diPJsBApSEJI3FFRuncOAii78iSEkLgS2fW2PJZuhElhEkLiSkZOTk4gQUgRyQRpeVtHCCFxJCMrKytJiOElIYTEGfjR634nnSEURJLAIktCCIkj5r9kS3q4csSSkSUhJC6EA0PzXyBKd+bblSMjSkJIXAgHhhYsBqJEAQkrLFkdIYTEEXNgIEqLHF0xmjAJISQORPkuuDLHrGmNcDchqyOEkDjiSjMQpQvucA4YTRJC4oTrQssHV+YgtLRKyNESIYSkLwX3mOFBuFFFCWParLdWOudWokxpEkLSj4K9Bv8FY5QAFUjALGqStHpCCEl3wr5DOWPt2rWRESPqKElCSJww74XJQKXNcoOoRoQQEkc0msRkTokSJQKLImEFo0hCSBwJu8+8GEzmpBIkGhFCSJxRUYZlSDkSQuJIlPuCiBLT324Ddr8JIXEklfdUlK4YIUzkTZwUJiEkzgQRpWGSJIQQknAiLulWUdq13QAr7JJGN7IkhJC4YN6zwFFFiVlvdwXylqyhLQkhJN1xfYfzzFWUJsko8ltHCCFxIGmMElgkaZhZKUxCSLoT5TnUBRGl28W2BChIQkhcMO+5oC4jJydHMyZLd2mNCCEkjsB/OkaZlZWVR4Z2b0rAiJIQEhfCvkN53bp1mPDOvc47KooMS5QQQtKBKLelqgvGKJGiGoUNSwgh6UBh3Rbc4TwsSESZhq2LkighhMSBQJSWrGyYdRlZEkLihvW0VZR2yaJV2pIQQuJGlPuCiNKNGHHtt5UpTEJIXID3XBcawWCkrcTS5BgWKCGEpDNuYGguxFJFaacIASwtT0kSQuKG60JzoIrSvc2ai21ACCFxBR4MxigNGNQsiiVlSQiJM3lEiaVW5vOrjIQQEifUidOmTQt+XMwiSDeiNChNQki6Yx60PNyoV+ZkZ2drpUWQWJmZmal1Lq40CSEkHXEDQuQxfxPc4RwZABliJQxqUJCEkDjhyhKi1IjSLweSxNKdBbdt3I0JIWS7pxBOgyThvkCULslRZGJnjCwJIWlFIZRm3lNRIoKMihgtwiSEkPQj2m2u85APxihNkmEposwuNyEkrsCBCCRVlGFBuvejJISQuBAVHMKHakSEllhJQRJC4kxUD1rdiAxmdmBSiyzDESYhhKQfhR9WTOp6W9gZtmqUZQkhZPum4IDQ3KeidOVosgRYmkStjhBC0oNop4V71Chn5OTkBGOT7hilSdKW4Y0JIWT7JtppblBo7svIysrSMUobpwT4wW/LU5CEkLjjBZG5dzeHLA12tQkhcQceDE44R9SICkjTut8WSaKe0iSEpB2F8Bo8GJxw7o5NYoWJ08qEEJJ2FMFtakg3YoQYXXECypIQEmfUiOEI0hUnu92EkDijQ5J+XrFoMhxhUpaEkLiiXrQMgCQx8518415KkhASH8yHLkljlBY9Rk3uEEJIHIgKDvN0vcNSZERJCIkzcGLQ9UZyI0vDrSeEkDgB/+l5lGvXrk0SIfI2Rok8kitOQghJd8x58F+JEiUkIxwxIo8xStRTkISQOGJOxFIjStgSM92oQIIcbTLHyraOEELSmXBwaP4LZr1REdXIluF1hBCSbkQFhMG13pCg2yB80nnUxoQQkm6kChaTTg8ycD9Kg5IkhMSFsO8saAy63sDsaWVKkhBCQlfmhLvcEGc4FCWEkLgAH8KBkWOU7rXehBASF8KBoZ0qGYxRug2QtzK734SQuGC+M/9BlJq0FCLcBSeEkDhh/sPv5WByW0UJMRpmUizDdiWEkDhhQaMa0v2pWmBX6lgdo0tCSByxIDIjJydHM64MsdKNLAkhJK7AgRlZWVnB73mHI0gsGU0SQuIM/OgFjxmSmZmZJEQ3mmRESQiJKxYs5pn1RiXkaOJ0BUoIIXHCAkUVJQrW/QZunhBC4oYJ0gJFFaWGlv40uFY6kzmEEBI33J40fBh0vU2MiCYpSUJIHIlyn07mWAagEUxqySVcJoSQdCPsOTgRKeh6h+VoZg0vCSEkLpgTg643IYSQvARdb2ARIwzq3mbNjTIJISRu4MYYKkpXkgbySOxyE0LiQpTvUBeMUVqFK8twmRBC0hkLEF1Qzpg2bZoWwiaNMishhMQFONBSRnZ2dsKYGYnhSl6VQwiJMxYkWmQZTOZghStIawjMqIQQku6E3QdZBpM5KFiKIlU9IYSkK/CeBYoqSr2W0b++27rgJkdKkhASF6J8F4gS502Gxyax0paUJSEkjsB9SInw0cNkaII0UB+uI4SQdCTsOpSRgjFKq7CyEdqOEEJig7lQRRkWJMrIJxJNSQiJB26QCMyFQdfbwAqMV2KZEGjyhoQQEhcgSXhQRWkz3cAiSSMhS0IISX9c31k+EGV4ZViWhBASB1zvIQ8f6gnnOTk5gRxtCVx5EkJIXAgHiXBhRlZWVlAwWbqENyKEkHQm7EAVJcYnw4K0k8+tnrIkhMQVFSUyECGSCRJ9cmCSdCVKCCHpjBsYIh/cFMMuYXRnv4Ft4G5ICCHpCoLCcGAIPwYRpSvJdevW6dI2YERJCIkDUUEh3BjY0WRooabh1hNCSJww/wURJRIqkVwpWt42IISQuGBeTB6U9MAKd9abEELihBscWsrT9caSUSQhJO6YB4MxSqvA0k2EEBJ3AlG60SRSbtebUSUhJL4gYIQDM9auXetXJcAKGDQhzdxokxBC4oAFjIaK0irc7jbqKEhCSBwJuxBklChRQjPobqPSTcCWhBASR4JLGCFDN4K0MUrAyJIQEheiAsPgEsZw9JjcmBElISQeRAWGSZcwuv1ytzGcyaiSEBIHoiJKvWEQMhCh24BiJITEkVTuS+p6WyNKkxASR8x9rgORV1FmZmYmRZXokxNCSNywwNANEPNcmQPQAH1yRpKEEJK4P6+KEucJQZauMIEbZRJCSBxBjzvoY0OIYTFaHWCESQhJd8x/4QAxSZS2MkqKqXZACCHpghsYuq7LyMnJSZwnhAFLfxLHvTIHuBswsiSExAGTJVJGVlZWkj2xjPrNHEIIiRNwH9yI5AWRGZbRlci7WDlcTwgh6QycZ4FinjFKSwby7gaEEBIn4D4VpRs1IrK0MUpGkYSQuBEOCtWLyFjUaHkTpW0Q3pAQQtIVN0C0fJ6uN1a4DQkhJG6Eg8RAlK4g3QiS4iSExAXXfQb8F4xRWjQJwqcHRW1MCCHphjnQDQ4DUZokU9k0CsqTEBIXgojSFWJYglGyTCVQQghJF/B7OcHdg1yipMnokRASV3DKZND1dmXo5sPiJISQuAAXqiinTZvmVyWIih5RR1kSQuJKRnZ2tp/NBf1yF0qSEBJX9O5qfl7JT4hRkSYhhKQjpjtzYjBG6S7tTkKEEBJH3JgRXlQjhiNJdL0ZQRJC4owKEhM5NusNUaISCXlL1pgQQuKGeTEYowzL0V1anhBC4gb8F0SUAAWTokWRFmUSQkiccL0XRJS4RAcFuw9lFIwsCSFxJGmM0lIqGFkSQuIGnAj3BV1vEJYho0hCSBwxQZoTVZQILa3CXYklZUkIiRth92Xk5OQEYrQVZlNCCIkTYRcaGVlZWXqCubsCeUsUJiEkzsCPXq87cea5a1Kb/UadK1BCCIkT5r9g1tvkGD5NiBElISTOJJ0ehIKRqp9OCCFxwA0QkVc7WiWWkGOJEiWSyu5GhBCSrlhwaEtzXyBKrLCV7o17bR0hhMQNc1/Q38a4ZJQUKUlCSFywCNKWRiDKVA3CZUIIiQsIFJFUlJjIsQpQrFgxXbrRpJsnhJB0xDxovkOgqOdRWiG8wiJJt54QQtKdhOtyfRecHuRKEGK0K3VQT0ESQuJHcm86Y+3atZpxTzJ3z6m0iJIQQuKCGyDCjRlWATla3uToSpLCJITEBdeB2vW2k8sBKiFLiy6Rd81KCCHpjknS/BdM5gBXioweCSFxxfVgEFFqjUcqObp2JYSQdAaeC7sQdbmzNh5hGaaSJyGExAETZ3B6kFozIyFGjlESQuIIpBjlvFBE6WccLKpkdEkIiQOuLJFHUlGGJega1fKMLAkh6Y4rSNd9Ksp169YlidA9+ZwQQuJCOJpEPjMzMyFKTH9bVKn29E8+D0eahBCSzoS9h3zSeZS2Ekt3MocQQuJCVHCIu6mpKCFEV44INV1xuktCCElnwgEiyhk5OTmacYUIaVrj8JIQQtKVKM/BiRlZWVmaQQNXkAYjSUJIXIDvws6DFzMwcWPdbuRtGW5MYRJC4kA4WERZzWgWRYUlq7e8LQkhJF2J8hzqgllvIyxN5AkhJC6EnYcedhBRmhTDjcywFCYhJN2J8lwQUZoMbWm/meNuZOsIISRdSeW5pDFKJDQ0QVKOhJC0xQkEXeA9133BlTmuHAEFSQhJe1J4zoJGYG4MROkmrMCSEELiDlwYdL1dXEmG1xFCSFzQaNJmvYEJMbw0aVKYhJB0x/WcGzAmdb3dvNuIEELigOs9SNPKGdOmTdPQMixGN7J0NyCEkHTFjSgN7XpnZ2f7xVwgRVeMyEftgBBC0olUAWHQ9TZSCTHVDgghJF2BD/XuQX456F6HhUhBEkLiQlSgiLpAlMBtZPmoDQkhJB1JFSiqKCFDq3DzLhQmISSOJHW9U2HSjJInIYSkE25ACOehHJxwDmO6DbAiDCNKQki64waEcF4gS7cCpIocU9UTQkg6k2fW2whb1RIhhKQzYc9BkvBhIEo3onRF6dYTQkjcKFasWHLXGykcPdo6QghJd8yDhv3aQ0ZOTk6eyRyKkRASR8KBogWPGVlZWSkl6dYTQki6E44o161bp+UMPUcodDqQ2xD5sGUJISRdCQeOwRglMBkimThNkq44CSEkLmBYMjg9CBlbQooINwElSQiJE3AeMO9Zj1tFaZEjKqwhsMYUJiEkTpgHLYgMut4QYZQMKUlCSNxwnadBpGWArXQbWd7aEEJIuhP2XdD11gFLr+uNfJQUXXkSQkhcCCZzjCgZMpIkhMSJKOcFoswvmiSEkLjgBozmxKQxyvAS2EYUKCEkDoQ9iOu9M9auXasyNCG6eYDGSG4dIYSkI9Cc60L0tPXKHFeMWJoYw0TVEUJIepE8/IiJHI0oS5QooYI0SQJEmWFMpoQQks64rtOrcpBQsCjSGmRmZuoSWB0jSkJI3ID/gtODTJQmQ/TJCSEkDoR7y27QCFAOTg9yV9j1jcDkSQgh6Uh+joMXA1GaQU2WlCMhJI6YC82BVk7qegOb5TFMnoQQEjfMfypKFKzCDOririeEkLhgQWQgSosoAabDDWvorieEkO2fgp0GN+p5lCiEJeiKEjCaJISkH3m9FuW64DdzMC7pNnBnvQFESlkSQtKdqKAR7gtCR7eBK0oKkhASZ+DGjJycnKCrHbYpYDRJCIkLYdeZ/zKysrL8qlzCY5RoHCVRQghJJ8Kew/gkfpXWc2KGdrVtnBLJfq4WmGHDpiWEkHQj7Dn4Efe+0NARBSQ0wjIqemRESQhJd6IiyuD0IOBGju7dg2xDRpSEkLiBwFGXVoAQbRk+PQgwoiSExBHtaSPjjk8iRV3rbUtCCIkLQRCJgkWQkCEqGT0SQkguwRilAWm6orQ85UkISXcsWDRQRgpEWVDXuqD1hBCyvWOSdH2HujwRZRgKkhASJ+C8cA86UpTsZhNC4kiUJFGnosQKW4llOOx0l4QQEjcypk2bphM47sy3e3qQ4cqTEELSkXBAiDJSRnZ2diLjn4EexgTJiJIQku6kCgjVjlhZkBAZURJC4oadLhmI0gQZFqLVM6IkhKQ7Yc+hDCeqKMPdbleWlg8LlBBC0h2IMrh7UFiCuLUQQCNGkoSQuBAVJAb3owxjN+51N6IwCSHpjus5y+sdzpFB1zuVFK0+yrSEEJJOhH2HZfBzteiDQ44myCgRRpmWEELSCbgN/jPHWTlPRIkVUSKMkichhKQbUf4LxihtAgdCtKt0gGtWQghJZ8IBoZWDiBLdb1SGI0prGN4BIYSkG+GA0MoZOTk5SREkhUgIIblAlhlZWVkqylTXehth0xJCSLoRFSjq6UEQJCToRpU2XkkIIXEiKiCEI/OEkWhoVnU3YpecEJLumOdc3wWiRAYrLBnImyyjTEsIIelEKs+pKNetyz3hPCxLQgiJC+Y+c6GhooRETZThBoQQEhdc/yEPdLLbrUADS1aXCsqUEJKOhIPFYIwSK2BNW+lK0urCYixIpIQQsr0R5UDkVZRYiYKtdE8Vsjp3Q0IISUfCnkMZflRRhnFFGY4kCSEkDsB9SMH9KE2GWMKgZlFghrUyIYSkK2EXAr0f5dq1a7UAsBLJrtaxOkIIiRPmP4B8hsnRBBnGNnA3JISQuKBuLFGihF9MDjeRJ4SQOBEVEGpEaRlXkJjMidqAEELSGQsQ3UAxzwnntnTvHhS1ISGEbP+kDgZdJyIFg5IQockw6jxKQgiJC26AGPwKIwoQoitIwzagMAkh6UXqXrLrO/xMTtD1hhBt1tvk6BJVRwgh2yuFDf7QLuh6A1QgRXW9C7tTQghJF8yHSaJEiIlKSpEQku4UppOMnrT2tlGAGJHsihyKkhCS7hRWc8FkDkAkafbkeCQhJN0prOeSut5uJElREkLSnSjfhetQLl68uGTk5ORoheEKE0vbgPIkhKQTpjTzHQh7DmW9zVpWVlYgR2tvG6KRuxNCCIkDrveQz8AEjln0v/9Sj1FSmISQtCJCafBc2HXwYTBGaXKEON3zKKOkSQgh2z0RbosKFDWi9PMqSGvkGtXyFCYhJJ0IR475kRRR2oZF2QEhhKQT8J8FjYaK0rradi4lrtAxrDHlSQhJJ1L1kS1oNOehrKI0g9qVOS4UJCEkHSms2eBFFSUyALI0YRooE0JIupHKbeHgMOnKHIAGSG7XmxElISQ9iXZblEBVlOEVrhwZURJC0pPCuy1JlDaZE4ZRJSEk3UjlNdSHPaiitEkca0AxEkLSncJ0luFDHaOcNm1ankjSHaMkhJC4YcGiBZAZ2dnZWmGg0v25WkIISUcK23FGEBl0vVGwqBK3FSKEkHQmVc/b7V0DjSiRsfMmURHVKFxHCCHbPRFeg++QXODHYNbbFaLb9aYkCSFxIcp3qAtE6TbA5A4hhMQRcyGWCCCDK3OQsXDTGrnhZzgUJYSQdASuM99hCR9mZmYmRGm4UaXZlBBC0pO8fnMdCFDG6ZIqyrBFjfBGhBCSPhTeb8EYpY1LIu8KklElISSuWBAZiNIqQXgyh5ElISROuM4LJnPCpwO551W6S0IISWeinKdOzMnJCeyJJaRpjVC2RAghcSDKdxlZWVl57BnuehNCSFzIE03iyhz840aNWLoNQbhMCCHpiHnQ0PFJu4QRGcjQIskoMYZ3QAgh6UbYfTiHEu5TUUKQZk6wdu1aXRpRUSYhhKQbcJ0bFEKUcF/CjB7WAJXuhA4FSQiJC/Bd2HnwoorSXYlKRJdmVVsSQki6k8p7QUTp4hrVJEphEkLSCsdzYcyBWAaTOcBdYf1yl3CZEEK2awoR/NnFOEkRJaLGcOjJSJIQEhfCAaGdPhmIEuOSUVEjI0lCSFwIB4jwn54RhEJYknaaECGExBHzobkwA+dMuhZF4u96E0LijDnRyEAFrJkqogxvQAghcUK73iVKlNCCK0RXmm6eEELSh9Ruc72HmW8NHVGZSpRWz8iSEJJeFOw0856KEl1tJFSmkqYrT0II2d7Jz2muA4MfFwPuCjdPCCHpSJTnogJD5FWU2ADJVkbtgPIkhKQ7qdwXiBKStEZuY8u7hiWEkHTGdWAQUYJkIeY2MtwNCSEkHbGA0A0MA1G651FCiBkZub/KGLUhIYSkC6mCQNSb91SUOKESoNIVIvKMJAkh6UxUEOhKMrjWO3wljl3C6DamMAkh6Y55zvWenj6pJQdXjiC8ISGExAV4T2WZk5OjFSiYJF0pUpCEkLhhASKAAzOysrKCQpQUTaCEEBIXzIXmP6/7neh9Y4VVhsVo6wghJJ1xg0U4D+U8Y5SoxJ0yMjMz/RpCCIkPFhCaJC2vonQrwLp163Tp4pqWEEK2f/I6zTwXdqKK0n5pLNwIUJCEkPQk73CiidEw/6ko3Z+nxcmVbmPLh3dACCFxIYgogxAzIyOIMEFUlEkIIXEhmMwxSZoM3TFKRpKEkLijogSQZFT0aHkIk9IkhMSRQJQmQSyjTg9yRUoIIemMBYbmvKDrjYSJHKywuwkB1BNCSLoRFfiF60yWKkqI0RLGJ02YhBASJ9zA0BwIJ2ZMmzZNatSoIRUqVJBy5cpJqVKldJaHEELiiAnSpIllRnZ2thZsJZZR0SS74ISQdCJKaXBfOKrE6ZJ5JnNAVEQZJU9CCNleiVJadEDoX+ttWKNUUSUhhKQLUUqM9p4/mbNixQpZvXq1DlricsY1a9boBhBntGEJIWT7BY7z5OaXUgP/BVfmQJJWCVyrMrIkhKQbK1auKLTbgjHK8AY4Pcgdp2RUSQhJJ5YtXZrSa1ECVRtiAyRrEM4TQkg6sWDhgpQRpes8tAkiSose7URzV5SEEJJuzJw5w8/lksp5wRiliTIcPVqZ0iSEpBOTJ//i53JJ5TuUE4b0UXP60rTG2DgsUJe//vrTzxFCyPbBvHlz/VwucF6UJIOutytCdL9dwhuGWbxksZ8jhJDtgxUrlvu5/IEbdXJ7+vTpWoAQbYzSokqQXzQJlixe4ucIIWT7YMXyFX4uOpJ00YiybNmyeRoVJEeXr0d/5ecIIWT74Ndfp/q5vL4zH7r1GWXKlNEKJGuAZWFlOeGn8X6OEEK2febOnSMLFy30S7nAe27QaHmNKIsXL64FF2tgAgXhnRgcoySEbE/8/PPPfi5BlNdcB+r9KDEeCWO6IgxP6LiEd/rjj2PybU8IIdsSzz3/lJ/LSypp6qwNboThRo8gXDZQ5+4MN9T48cexfokQQrZd4Lpff/3VL0Xj+k0lidMmUYg6dxKgbMK0deEl6NWrh58jhJBtl+XLl8vChQv8Ul7gtXACakgrmBDdMrCyLYErz2++/cbrx6/VPCGEbKv06/ey/PPPP34pGddvLnBdEFGikdsw1UYG1ptIFyyYLzNm5L12khBCthUgyHvuvdMvJYjynNW5SxWlRYcmPsMtp9ohJoJAhw7XeO05qUMI2TaZNGmin0uc8gPMca4U3aWRGJz0wAqLLG3MEoTl6e7AXffNt6Pl999/90uEELJt0afPs34uF9dnyFsydCIHCYXMzEythPjchvlJEiTKuXV9+jzn5wghZNthwoTxMuDNN/xSXsx7lqwODsRMeW7o6GEN3IjSsHUgOe9nPJ5+ppdMnTrFLxFCyNYHsuvVq6dfSvjLdZhX4y9z3Rb2XVLX25KJEnmLKpF3ly4WkYJHHu3i5wghZOvz9dej5a3Bg/xSYnzS1Rjy5r5EOVmkevcgZNxKN29dccPNG8mdc5EhQwbLiPfe9UuEELL1gMNuve0mb5k80ezHf3lAkAjPWQIIBIOI0iJHLC2i1EHMiA3dsqnTokrYt2PHm+Tvv//WMiGEbA3URbfemDTb7fZ+w7heM+/Bh+pENLBKgErszBrrnTNCwjRMrsDbnZ9L3J3jggvaJX47lxBCtgJffvm5vPzyi34pFzOV+cxN5jmNIr28TuTAf9jAhGdLrACQpG2AjYEtgZvHo2cWy7X15198Jj17dk+SKSGEbAlwv8lTTj1B7/xjJKLJ9c7UTTLwGRJ8FxblDmvXrl0/bNgwqVmzppQuXVpKlCgh33zzjYwaNUr22msvmTp1qt6WCEtshAT5WVq6dKn/MAZuS/Svnxfp2vVRufyyK/0S2ZZA12TKlMm8/LSI4MOUnV1PSpUq7deQbQn8Hs7hzQ+WJUtyf30h0UtGMOhXeFSqVCmQowWF8F+dOnWkSZMm0qBBA/n888+lU6dOCVG+/fbbUrt2bcFNfNFwwoQJMmLECDnooIPkt99+k4kTJ3ofqClqZ4gSHzAT5bJly3TpgjLaATz4Q50flksvvULLZNvh22+/ljcG9PdLpCiULFlKOt17n2RllfRryLYALqdGJOn+ymKxYugRZ6iXIEUjLErcm7dkyZIqyqZNm0q9evXk448/li5duiSfHmTyq1y5sqxevVo3hjgtDHUfBCQexO+CO+vcdpBrx1tvSjqPiWwbcFBkY+Crt62B3+puecSheX6KNiMjcbmi6yX4zEA9ypYgTCT4Dz7UaBQR5VtvvSW77LKLdr3RYOXKlV6Xuascf/zxMmvWLI0wEVVicsaNKsFff/2ViDD/w3QO/vNYjx8py9C2LpdecoXce+/9GrmSrQ+73hsGPljsem874H2M3tFxx7fxa3IpBsn5eTeihATLly8fyBHlrKwsdSAiSXS9EVm+99578thjjyVE+cILL0jjxo1VYLAn0m233SannnqqzJkzR0WJhLtvQH5I1v3G/d3+/XedivI/rxwmLMudd95ZPvzgU6lZs5ZfQwghG879998jvZ56Io9r4LEE8JInSP0/N3osV66citO63RAlfmyxfv36sueee0qtWrXkgw8+kEceeSTR9cYDWJSIBKuaffFg6H5jRxqCenVuwoOotb0HRjkMtsFBGfPmzZMWLQ/xLP2oPhYhhGwIkyb9JG3aHCE9ej6WJEmMSWZm2t2B0ANI+Ecl6a2DszIzE78V5roMroLnME5pkq1QoYJ6Svdw+eWXJ03SmGEtD1HCttgYZYjPpIjBbJwWlKj3H9T7zx3CQb0dOMBs1IOd75NatXeUgQMHpLyRJiGEhPnll5/l2ONay2GHHyzf//CdX5sAHvJ06OUSfoKmLOhDvliGF9h5bRITPAlfwWcmSXgOCXnM02C+BkOOQahn3WrIEssaNWro7+Fgp+7GriiR9t57L60voesSEaceY+I41egorF/vRZ+OLAEe84r2l0jzFv+TNwf2T5rOJ4QQA7IaO/YHufqaK+SQQw+Qb74Z7a/JBbLTIM373+I09ZQfwMFPJsTddtstcBic5oqyVKlSusSpj5i7gTADUaJgEWVOTo40atRIxycRTSIUxfilK0sT5k477aTWLe61gyzxgKhHwuHCmwBLZLEeyQUnh7Zvf5nUb1BHrr32Svntt1/1heGNgAmJL+jl/vnnn3p7tJq1qslRrVpI//6v+WtzSXKK+SaxULywTtfDXZYaNKifJEnzHCRpopw7d67sscceGjgGosQBrV27Vg8OkmrWrJnMnDkzMCwGOW0HJks8EOqb7bWXlkt462x9wtbuuKXTF/ey9uRy1yd47fVX5YAD9/b22UiOaHmY3uMSM7P/ecdFCElv/ly2TEaN+lIuvOAc2Xe/ptJ4zwZy5ZWXqpdc4A0M+QWCdP3iB2gJB6Enm5Ckneq4zz77eN4q5zkrMV6JdeY5zM9gCWnCiZh81q47Zr2x62effVZ23313nQnCDqtUqSLXXXednH766TJ79mz9icf58+fr6UDokqPbDKGefdZZMn/BQpkxY3pw9c5ar36tP0GEGfFEpKrPIPGgITkCrNaZ8/+ihYiIFqdk7FR9J32Spb0ybF+t6o5StWpVL1WTKt6ymrfEEyeEbDss+3OZLFm8WBYtXuQtF3nLxZ5XZunk7t9//6U30Zk+fZpeVZMKjC+iG10Q5heLFuEDS9WqVZOmTZvoJM3QocNUkJAjThWqWLGi7LjjjupBDD2OHDlSr8pZuHBhrigNXL6IjSGfvn37arcaD4gfD0NXHE8ICedaQpYWhSJZ192S4eYJSQdSfeGTbQP3b4O8m+AziyQROSI4hDghSkSQOI9y1apVKs/mzZtrcBh0vQ30xyE9WP7EE0+QH374QbvX2Ag7RELZQlTrasPcdgA2Rhk+QKRU5Lc+v+1ILnydthx8rTc/qZwQrrN2UclchAQ3wVNINiYJj6G3ioQ8/IblL7/8Ii1btlRhwod5RIlJHaxYvXqNZ9caWodvT4gSOzNZIqFsssQDQ5gmSxOmHWz4CYSTkWpdqjp3mYqC1hvu/qLyYcJtwsnW2TJVctdH5W0ZzlsZRK0rbNrQ7ZBsW1u69YZb57Zx6wy3LlW9Ld02UfVuym9dOKVqm6q+oJRqOyNqnSVbb8twPioZUfVRy3CdES67FLTOXW/lVHWpkhFVH3YKsLwrRkvWBYen4CuTJII+S3AZvIZeMpZoh8ARKU/X+/3331cpohESLmEcOnSo7L///jq5gytxMEZpybrgECwewCJS64pbdxxgGdUNtzp7wiDcDuuitg2DNm7b8HZWjnosq8uv7G5r9SDVtmHc7UG4vL3iPu/8XoONeb7p8lptLvJ73QuL+xqH80bU/vPbLqp9GLSxxyhMe8O2s22wtGTCtGTRpLnNIkn4DqKEHHfddVftRV922WUqU0SUmIvJI0qAWwuhEXaKwU0MaGIWHELE3YKwhCAt4XSisCyxdGWJBPCk7AUB7pPMfaGQ12we3G0LwvbtPgYIl7dH7HkVhPv83aWtA+5+otoZ1h6E1xlR221ONvbx7DlFPdeNfR6JXSfvP2q/hanbFMeztYl6TmGi6kBB9e4ySpCIKhFRIkGSNsMNQVq3G3cTQsSJuZibbrpJTw+CJOG2SFHi+kbYFTuFMMHdd98trVu3lkWLFqkQkWBbJBOlK0sTJaQJSZo08ULZi5XqD496e+Jum3B7a5dqP9sKdoxRS5eouk3Fhu7bjrUwWLuobVLVgfB2bn24zoiqSxdSPTfUg/yet9vG9mN1YfJbF6awbe3Y7LELItxmQ8qWIEVbIoW73W7X20SJpSUEhQgSH3rooeDMHvgMwWCkKAE2wA7xIJgRGj9+vOAGvzgRHTuACLET25krSlgY661/b91xiyzxIloC4T9AVBkJL0J+ba2N5TeEqMdwcde7j2X5TYk9VngZXhemqPUbix3T1sSelz1HO6ZwvZHqtQhv52LrgPsYwMqFqXfrgJsHbjtgZRd3f1uLVMfgPpcowuvdsuXDdam2sXUmSYgxLEkTJSRpokRCEIiEOkSWuPcu7piG04PQc4bDEAhiyDGlKHF7IfTd8SDYEabOhwwZoncRwt01rHuNBDFackWJ5IoySpYgvARR+YLaGVF1mwv8cXIfD3+0xOPbH9KIqisKyY8Tje3f2tk2bv2GHEN4v8D25S5dwnVRbbYW7nG7uHV2rPkdd2Gfk9sunDcKs59U2H42Zh+bAntu7vMywuvcNuF8qjbhequzCBJ5EyTKJkkTpRtVIlkeS/SUcbegtm3byuLFi9VjSIgs8QsPKUX55JNP6q3XYFw8MHaIcysHDRoko0eP1p+JgPCse+2KE3nI0uqRUonSTYbl86t3wf4AXqjwunC5qGB72y+WhSHqOECq7Yuy76KQ6rg31ePZfqKe69akKMdkr4O13xafz7aE+76xv38qota5dZZ3l1F1tgznLZko3WTRpBtVIg8pumUscY447j15/vnny4IFC4LgD9HktGnTpEOHDqlFCV577TX9LR1IEjvEg+AE9E8//VTefPNNnQnHOhOmJROjK0gka5dKlEjAxAfcemD5qDoDZbyAUW1QD8LbbE7CxxImar3V2fFuCgpzHJsL93ELOo7tmU39N9tcFPY47W9lbcPbhde7FFRn+VR14fVuHWRoZZOj5SFAdwl3Wdmtw3GPGzdO/ve//+m9d3HlIZxlveNjjjlGHwvkK0oDYoQQ8SCQJSZ6EKp269ZNo0zciQMPCsG5yRWkm9y2yFsCUeWopVFQGaDOXuCo9WGi2qOcqn5zYI+3Mbj72BTHGbUPq9vYYwX2+m6KfUXh7tceJ7zcXnBfdzcfhfvc3Oe7oRS0bdR6ty58DOH2KIfXucuoBPlFJRMj2iBvbXFnoEmTJskll1yidzOHz6z3G5YkKJQoAa57hIWRIE0MhmKSB11xrMMvluFOQgAvAlJYjFFLN6HOtgdWBqjDk7R1towi3DYVbrtw+1T1YfLb3rD1LlF1IFW9EV5fUPtNAfafeBw8XqK8MY/pHnNUHsvCYm2Lul1B5B4X9pn3bxtVTrRPPiYQXhfOu+3d9S7h+lTtNif2eO7xpqIo61AOPx/Lh+ssARMgkuWxjMpbQnca8yzVq1eXq6++WsWIWW0bMsQSl2ifddZZ+hhGoUX58ssv6/S5dcEhSyR0xTHbja74999/rxFmdna2TrfjybspSo5IwNaF8yCcxxN261xsveGWU60L78uti1ofJtU+gFtfmMcCbjm8vZFqv26bKNAuvJ+obfK203+DuoIeZ3PgPkfLbyjhfdnzKWi/bvvCHENh92uE9+9u7z6mmwepyrY9cLd1cduFtwEFrc8PtC1om6h1bp3l3aWbwjJ0y8jDJ7ixBX5JFqcEXXTRRRrY2aSNzadAkqjDjTpuv/12fSyj0KIEdpMMEyWWeGBEl5ghx4GNGTNGu+p//PGHShXtcScidNexDdrghUslzXCy9oabDxNuu6nAfkFR9h21DarCu7Bjdtu7dcnb519ORX77AwXtw90euPnNRX6PEV4XdWxYbirC+3Mfa1tjY597Yba3NhvyOiQ2yf3bhbF9Gm4Z+YISjgXiQ1QIOUJ8AD8/e9xxx+ldgXD7NAR3OP8bQ4MQJISJ7ji64lEUSZSgZ8+eGllCjiZLLBFBWh1mynEAuGM5btGGWSVY2q7qwTo8KdgeMrVvACxdUBe1NBJlCDWRT/UHc7ezP7D7h95Yoh63qPtP1X5THqeLe8yFeT0Kexyb63hdNtfrsaH7dbdF3qWgfRbmcTf2NS3s9uHnUdA2WI+EtobVIdnnGUFRQdhEC7Zzwb5t/1javAcShIglnGJ5+AinMtauXVtPY0TkiFur4RggRrTDEnK0KBJd73BXO0yRRenSr18/lSMOzpYQpeVtINUVIsATtoO0sNeevK13E8ALGO6Sow5l+8MAt324rS2RbF+Wd9chRf2R3f0Z1r6wWFv3uUTtw9bZMeJ4kI86BiPVPtx6d7/A1tnztbL7OKke063HdkioQ8Lzs3256wCW9njAXmPUu9tYe8sj4T1i+7Y6ey2RUB9+rdx9RWHbhfO2xP7s/Yv3KurtGBCJ4L3uPibqLW/P0+rtubr1wLbBeqxz94E86mxblJGAtXHbGm7Zjtdw6wF+1+o//OS0vx88nvuYBtYZWOeWAfaLv5F9puEAvD6Gexx2fFja5z/qOK0NwN8BZewXnsESvVokXIqI9WiLZDLEfuEZc43VQ7CnnXaa7jd/RP4PMZvhkNWMLqMAAAAASUVORK5CYII=;" vertex="1" parent="1">
          <mxGeometry x="330" y="130" width="94.01" height="200" as="geometry" />
        </mxCell>
        <mxCell id="wkWaENmz2FaomDUTFkqX-12" value="Cada operadora tem seu cÃ³digo padrÃ£o de &lt;b&gt;PIN&lt;/b&gt;" style="rounded=0;whiteSpace=wrap;html=1;" vertex="1" parent="1">
          <mxGeometry x="74.02000000000001" y="173.5" width="132.99" height="60" as="geometry" />
        </mxCell>
        <mxCell id="wkWaENmz2FaomDUTFkqX-14" value="" style="endArrow=classic;html=1;rounded=0;exitX=1;exitY=0.5;exitDx=0;exitDy=0;entryX=-0.024;entryY=0.601;entryDx=0;entryDy=0;entryPerimeter=0;" edge="1" parent="1" source="wkWaENmz2FaomDUTFkqX-38" target="wkWaENmz2FaomDUTFkqX-9">
          <mxGeometry width="50" height="50" relative="1" as="geometry">
            <mxPoint x="212.16000000000008" y="504" as="sourcePoint" />
            <mxPoint x="320" y="504" as="targetPoint" />
          </mxGeometry>
        </mxCell>
        <mxCell id="wkWaENmz2FaomDUTFkqX-27" value="reinicia&amp;nbsp;&lt;div&gt;mobile&lt;/div&gt;" style="edgeLabel;html=1;align=center;verticalAlign=middle;resizable=0;points=[];" vertex="1" connectable="0" parent="wkWaENmz2FaomDUTFkqX-14">
          <mxGeometry x="0.0978" y="-2" relative="1" as="geometry">
            <mxPoint as="offset" />
          </mxGeometry>
        </mxCell>
        <mxCell id="wkWaENmz2FaomDUTFkqX-15" value="Tela que fica na frente enquanto o bloqueio &lt;b&gt;SIM &lt;/b&gt;Ã© habilitado e seu cÃ³digo alterado de forma automÃ¡tica" style="rounded=1;whiteSpace=wrap;html=1;" vertex="1" parent="1">
          <mxGeometry x="377.01" y="200" width="100" height="170" as="geometry" />
        </mxCell>
        <mxCell id="wkWaENmz2FaomDUTFkqX-17" value="" style="endArrow=classic;html=1;rounded=0;exitX=0;exitY=0.5;exitDx=0;exitDy=0;entryX=1;entryY=0.5;entryDx=0;entryDy=0;" edge="1" parent="1" source="wkWaENmz2FaomDUTFkqX-18" target="wkWaENmz2FaomDUTFkqX-12">
          <mxGeometry width="50" height="50" relative="1" as="geometry">
            <mxPoint x="317.01" y="203" as="sourcePoint" />
            <mxPoint x="207.01" y="203" as="targetPoint" />
          </mxGeometry>
        </mxCell>
        <mxCell id="wkWaENmz2FaomDUTFkqX-18" value="" style="rounded=0;whiteSpace=wrap;html=1;fillColor=none;strokeColor=#FF0000;" vertex="1" parent="1">
          <mxGeometry x="320" y="197" width="60" height="13" as="geometry" />
        </mxCell>
        <mxCell id="wkWaENmz2FaomDUTFkqX-20" value="" style="endArrow=classic;html=1;rounded=0;exitX=0.5;exitY=1;exitDx=0;exitDy=0;entryX=0.5;entryY=0;entryDx=0;entryDy=0;" edge="1" parent="1" source="wkWaENmz2FaomDUTFkqX-12" target="wkWaENmz2FaomDUTFkqX-36">
          <mxGeometry width="50" height="50" relative="1" as="geometry">
            <mxPoint x="230" y="270" as="sourcePoint" />
            <mxPoint x="140.51221491228057" y="297" as="targetPoint" />
          </mxGeometry>
        </mxCell>
        <mxCell id="wkWaENmz2FaomDUTFkqX-21" value="preenche com&amp;nbsp;&lt;div&gt;velho PIN&lt;/div&gt;" style="edgeLabel;html=1;align=center;verticalAlign=middle;resizable=0;points=[];" vertex="1" connectable="0" parent="wkWaENmz2FaomDUTFkqX-20">
          <mxGeometry x="-0.3291" y="-3" relative="1" as="geometry">
            <mxPoint x="3" y="4" as="offset" />
          </mxGeometry>
        </mxCell>
        <mxCell id="wkWaENmz2FaomDUTFkqX-24" value="" style="endArrow=classic;html=1;rounded=0;exitX=0.5;exitY=1;exitDx=0;exitDy=0;entryX=0.5;entryY=0;entryDx=0;entryDy=0;" edge="1" parent="1" source="wkWaENmz2FaomDUTFkqX-36" target="wkWaENmz2FaomDUTFkqX-38">
          <mxGeometry width="50" height="50" relative="1" as="geometry">
            <mxPoint x="140.51" y="398" as="sourcePoint" />
            <mxPoint x="143.53999999999996" y="460" as="targetPoint" />
          </mxGeometry>
        </mxCell>
        <mxCell id="wkWaENmz2FaomDUTFkqX-25" value="preenche com&amp;nbsp;&lt;div&gt;novo PIN&lt;/div&gt;" style="edgeLabel;html=1;align=center;verticalAlign=middle;resizable=0;points=[];" vertex="1" connectable="0" parent="wkWaENmz2FaomDUTFkqX-24">
          <mxGeometry x="-0.3291" y="-3" relative="1" as="geometry">
            <mxPoint x="4" y="7" as="offset" />
          </mxGeometry>
        </mxCell>
        <mxCell id="wkWaENmz2FaomDUTFkqX-28" value="" style="rounded=0;whiteSpace=wrap;html=1;fillColor=none;strokeColor=#FF0000;" vertex="1" parent="1">
          <mxGeometry x="430" y="476.5" width="70" height="23.5" as="geometry" />
        </mxCell>
        <mxCell id="wkWaENmz2FaomDUTFkqX-29" value="" style="endArrow=classic;html=1;rounded=0;exitX=1;exitY=0.5;exitDx=0;exitDy=0;entryX=0;entryY=0.5;entryDx=0;entryDy=0;" edge="1" parent="1" source="wkWaENmz2FaomDUTFkqX-28" target="wkWaENmz2FaomDUTFkqX-35">
          <mxGeometry width="50" height="50" relative="1" as="geometry">
            <mxPoint x="510" y="487.75" as="sourcePoint" />
            <mxPoint x="600" y="488" as="targetPoint" />
          </mxGeometry>
        </mxCell>
        <mxCell id="wkWaENmz2FaomDUTFkqX-30" value="Text" style="edgeLabel;html=1;align=center;verticalAlign=middle;resizable=0;points=[];" vertex="1" connectable="0" parent="wkWaENmz2FaomDUTFkqX-29">
          <mxGeometry x="0.3359" y="-3" relative="1" as="geometry">
            <mxPoint x="-17" y="-3" as="offset" />
          </mxGeometry>
        </mxCell>
        <mxCell id="wkWaENmz2FaomDUTFkqX-31" value="preenche&lt;div&gt;PIN&lt;/div&gt;" style="edgeLabel;html=1;align=center;verticalAlign=middle;resizable=0;points=[];" vertex="1" connectable="0" parent="wkWaENmz2FaomDUTFkqX-29">
          <mxGeometry x="0.0159" y="-3" relative="1" as="geometry">
            <mxPoint as="offset" />
          </mxGeometry>
        </mxCell>
        <mxCell id="wkWaENmz2FaomDUTFkqX-32" value="" style="shape=image;verticalLabelPosition=bottom;labelBackgroundColor=default;verticalAlign=top;aspect=fixed;imageAspect=0;image=data:image/png,iVBORw0KGgoAAAANSUhEUgAAAUoAAAK+CAYAAADEwleXAAAAAXNSR0IArs4c6QAAAARnQU1BAACxjwv8YQUAAAAJcEhZcwAADsMAAA7DAcdvqGQAAIZqSURBVHhe7Z0HgNREG4Y/j4Ojd0Qpgh6ggIC9/BZABewNK/aOFSt2xYKggoJiBawoIogIghUrYgUBQQGlCNKbSjkpyp/323y52Vz2Cp3N++iQmckkm93bffabmSS7w1/LV6yXDWTUF59LhQoVpGzZsppKly4tJUqUkIyMDJk3b55MnjxZ02+//SaLFi2SlStXytq1a3X9+vWJh91hhx00/ffff0EdcNsAtAHudlG42xhuW6yPejyrN1AOr0f6999/ZdWqVbJu3TopU6aMZGVl6bGCVMdUFLAP91jcYwC23s2H61zc9bYuv+1T4W4b3g+wvL0WbjvgtnXrgbuuRo0aUr58+aAObfG3Qpo5c6a+7uFjcZf54bYFbvtU24e3iSJqvdWl2tbq8bzc18zFtrN6219RiHp8PObq1aslJydH1+F9nJmZmfR47jaWt+M0wvsNE15v+3X3H34slI1wWxfUI+G54DOJ9wXK8E/16tVl9913l0aNGkmDBg2kbt26Urx4cVmzZo36B5/fFStWyN9//y1z586VE08+xd9raoosyr69n9c3c5UqVfQNjVSuXDk9wDlz5sjIkSPls88+04PAuqpVq+qBQ6iQSrFixfw95T5ZN1m9LcN1IKrOQJ29wC75vehFAfvAH+bPP//U54sl/li2zn2c8DGkwj2u8LZF2c/2gD1PI1x2Cb8O9jqHX5OoPJbhdi72uO6XnCUrG24+vD+scx/LbbulyO+xU9Xh81irVi39fOKza8/Llu57uiBStdmYbVO9juHn6rZDPUQI9yxYsEAWLlyoeXjngAMOkFatWskee+yhbSHL5cuX63p8hlsccaTWp6JIonz15Zdkp512kkqVKknFihX1xca30cSJE+XFF1+U2bNny6677qoJksSLjQOHWJBQtoQn5f4xwmVbWjLcdYabd0lVXxSwD/vjhLF1htsmVXsjvE/bV9R2qQi3jTqWou7TxbZ1l8Ddn7v/8GOF17mEywVhj+/uH1jZrQ/n3cdy85AkykjIu2XgtjVQFz6GomD7DB9XArzXC//apDo+F7dc2P0WFuzPfR4b8rpEvw7RhNtZ2f27IRBDGUtEyUiIJP/44w+ZMmWKeqldu3Zy2GGHaT1kCVH+9ddfGl2iJ3z9jTfpfl2KJMqPPnhfBYloEkt0p5988kmNrA455BCtg6lxABbmIiS2sNgE6eaB1bnl8DJcB6LqDNThhQu3D7/YRtQ+oiioXdR6e9zCbluYtvlhj5cM9le4N2R4++j9bX3suKJeq/Axh4/fylimytsyav8u1qYwbYuCHQMIP59UhNsUtQxSPU6q+qJQ0D7yWx9eZ2UskUyYkKQliBLdbiQEeBj+Q48XAd4111yjXXSIcunSpSpNiPKMs87W/boUWpTvDX9Xw/TKlStrJDlq1Cjp3bu3tGzZUushTYx5/PPPP0mSjIokLRUkS8sDt96WSHhhotoBN58fhW0Xpij7tz8q2NDH25TYMYWPLT+K0rYgirqv/Nq76wrab6p1UfXhuk15zEZR9xlFYbd32yWy0duF94dyYV5XtLF8FFH1bl04n99jot7WWd56BRZRhkWJLnipUqVk55131m75xx9/LMccc4ycd955KknIEtLEujPPbqf7NnaY+tvMAj+133/7lQpyxx13VCu/8sorMm7cODn++OPVwDZRA0kiuZEkEoToChMvAJIrSuSBlW0JovKFrQuDeryo7vpweUOw/UZh+7b1UY8dXhZEuJ1bzm+dV/JSwfvfnKR6jqnqNwbsMxV4rPzWbw+4x1+Y52Pr7XVO1b6wr0t+7aLWoS7qON1yfvsE4baWwqK0rjfGYCHKkiVLaoIsMYSIAO/999/XwO+ee+7RCR7IEt3wxYsXS4sjWvuP4j2Od9Ap35m9evXS7jQSJmSw4759++pA6aGHHqp9/vnz5+sDoMuNiNLtdtvYpEkSD+WK0pKRm8cy+kMTbo8XqKB2mwp7vPywx3XbFXQs1ja8bVH3hXap9gHc/RhYn6pteF9G1D5tP+7+gNs2CvdxQGJbvC8SZRDVJqoctTTC64xwO2Drw/VhorZNRX5t8388rEv9vDaWjdmnbWu45YL2l2p9UY/D2mNpKRxVQpKQJRJEibNzkGrWrKkz4mPGjFF/PfDAAyrJZcuWaTrjjDN032CHlatycp+pwzNPP6VyxOAnxiSx0wEDBsivv/4qLVq0kEmTJsn06dM1ZDVR4pQDSDLc5caL5ybDzedHYdsVBPaDF9KWbp1RmDb5gbYuUfu2PIjar7ULLw1326h1bhlE7cetA+FtjPD+3PZR+zOsXRSpHqsouMdhhI/BCB+jbZuqvRH1GMDdLtU+ClNv+wf57c/qCrvPqDYFsaHb5Ycds+Hu3+pz61De8OfgtkfeUpQwIUuMUSJh4rlevXrqM7S/8847dc4FwkRCvv2VV0mxW2+7vdN/3oGF0+xZv+u5kYgmq1WrJmPHjpUPPvhAu9tTp06Vn376ScNTmBc7hCwRUbqydIXpRpVFTYRsDFHvoe3tfYXjdWWwPRB+jVG2ZOTW5eaT6zcsWZAG75iL0MuFm+AoDBFiCXfhdW3YsKGe7w2n4VQirEc95FqvfgNJPoPUAZLE+ZFIABM3bdu21THJ8ePH67ikDX5CkjaJY3IMizEdSJfnsTnYll+bsGC2x7/j9ibJrYk5x5IJE6K0E+3RE0aQB4/BZ7NmzdLhxI8++kgdhwARkSc8OKD/69Gz3u+PGK4N0e1G9/vpp59WYeIEVcx247xJPJCNSZq9t8c34JYGrxHf9FuedJAl3zubBryGNo5pkzxwG0SJscsffvhBevTooedeIgjESemRovzy889UlLApLHzXXXfJZZddJj///LPOEi1ZsiSQ5N57762TO9avr127tidNN/xNmNwNgTX/7zpZ77UDaGsJ6ww8iYZ7NJJa3j532y1bDjrwYKnvhcFVqlTV2Xe+aQjZvoFHFi5cIAsXLZTvv/tWxo3/Ubu/E8aPk6XLlvqtEmCcEZ/5xOc+8aWxww4J4dkMt5syMDbprUM7uGXVqpU6l7LLLnV0Yho+c2V50EEHyX777Sdff/21nHPOOTp+aT3mPKIc+dGHQTSJJWa+cckixIQTNWFbPBjkBxHW9Ew8Z/ZsWe1JE+3xwBZhunJMpIQwE1JMCNLKRsWKlfRJ3Nrxdjn88BZSrdqO/hpCSFyAE8aN+1GeffYpGf31VzJ37pwkT3j2k0xPhIlsQp7upE3xzOKeKBMSRB3A9pjA+eOP2VKn7q4y3+tiYzsTLc6vbNOmjZ4G+eOPP+osOK7Wge/yjFEi9MR5RngAyA3dbJgV45GY8bbzJE2G8+fNlTVeuVLlynogKkSvjGgTbd20bh3GLrFd4ppMtLUnX7lSZXnppX7y86Rf5dtvxkrbtmdQkoTEFAhs7733keee6ys/jv1Jfvh+vBzRwrke21zjOwQuQi8VXlm92vPN6kSPF2OSSNbuzz//0lnu32fO1DKSBXQ41RHjk3hsdLfRQ4YH9cY3/sMGIATFCjTAICfuwIHwGDtAl9sdkwT2wGu9ejyYHpx/gGvWJFLSk/HySMbBBx0ig98aJhMmTJYTTzhZHx8HSgghINOLDnfddTcZOGiIjB3zk1x//c3+mgTmFAzlYagP+dWr4SBPmDmJwA5eQoJalixZqmfyAHgJwE1YjztUobuNm2fgyh1EoNqN11YezzzVS7747NPgDj8QFu4EhD47+ui44QXkhx3azsFxxx2n68zKCaMnThFCPhFBesnbxhVko0aN5dVX+suwYe9JixYtNZIlhJBUIICq63WZ77m7k4wf97Ocf96F6itDZektoSf4aO1az0frEkEbArl/0aP1Enq3ONHcsMgSCV1tRJK4cuebb75RUWr33G+rooIccUImRAm5YVAV3XD00bEDPHhYlDj3CGUcQEKOiCwT3Wp0sW1i519fkrDzVVddKyM//sKT7Ak6PkAIIUWhdu1dpEePXjJw4BDNG+s8OcJTAN7BcJ9Gk4gqPS8heIO+pk+foW0MtEWCJHFGD/aB7XBpdpIoMcNt0STkhZlsXN8NG0OU6HZDkmEwhY6drl6TOI9yzRpIMleo//6be+DY/3sjPpYHH+iS9E1ACCEbwqGHHCZfj/5Bjjn6WL8m0Y3W6NKXH/yD4A1R5RovkEMwByGGQVs4DOvgPZwaiUAwqeuNiNJmiGBQ3Jkcly0iTMXAJmRpD+wCEWLnCHNxQG7E6Xa1a9asJRPGT5Z9993PryGEkI0H7nrxxX5yX6cH/ZoErn/Qs0UZvoIo16/PG/QBuAuiROSJWXDc/AdBXZIo1ZxeNAlZYoYbA54QJQY3EyFrsiQBose1etpP4i5BOABPp0kHeeABB8lnn30VDKASQsimBEOG1157vXTt+qh6zICHEPiplzx/wVeoQ8QYBdqiu43gD6dIzpgxI1mU2LlFk8hjlhsNLKJ0I0UXzGr/p11tRJuw9A6elhPrwH777S9vvDFIqlSu4tcQkj8LFsz3vlg/kes6XKXLzz//xF9DSP5cftmV0vnBrn4pAdylXkII5zkMZRsOjALOQ2AIDyJIRE9bRYnfwUGlDlr6kysmR2wEw4YxaWKBCDJB4rQeOwicB/n6awOlQoWKWiYkP4448jCpUbOq7LPvnnLOuWfKoEFvyjnnnSlntzvdq68iB/+PwzakYC67rL3cc8/9finho4SjEn6Cs3AaUSogSUSdcBzy2F6taGemI6IEECQaYokQFSkcTUKqIBHSahbG1O0AZsu/+Hy0XmVDSEHUrFVNpkyZ7L+vEpec4X25A97c+v7aQWb9/ruKFJeiEZIf113bQc477wK/5MnS6/XiPWXJpBmF+c+cpzPfuITxtVdfkcaNG+ssN8JMGPT222+Xo48+Wu+qgfOJcFs1k6MLQlO8kdd7q+wUIAh30MAh0rx5C6+UdxscCGbRMdMOoaYCg64rVqzUyydd8CRwKMWK5Y5FhEFE/NJLffVs/QQ7yN577S0tW+b/a2tkywNJGvjbYoYSf2C8c/z3qtSpu4vMn7cgeDvN/WNxIkO2GIsWLZThI97VywlXrVwl/3pRWamSpaSi9/ls2eIIadKkqd8yf3ABy/fff6uXKIfBUN60adO8z+4LWm7f/iqpVau2eqmo4PzvAw/cW+bNn+fXJIYY4TFIEJdcR4FJHPzETXZ2towePVpuueWWRESJg3AliCeCHUJokCaW+eJtmru1yLnnXuBJsqWXc2sT5OSskj59ntPrN197/VWZMGG8vyYv7747TJ55tldgdsgP2/Tv308vqUwFbp3U84nHpM3Rx0izpnvLXs32lmOPOU7/yGTbAl1q+/v+s/offa/hC7BYBk5TS5yqhjTr99mJL0c/ykRkSbYM+Pt8/sVn0v2xR2X8+HGJn37xonoMyy37c5nMmDFdXvSCkpdfflHr8uMfzy1PPNlDLxeMokvXzvJ872f1NB4ktH3++Wf8tUUDgdiQd0bkGfqz91sqsB5f2HgvYpIIwlVRQpKIAm18El1tyxckSlMhdgxwGtD993XWfBQTJ/4kdXfdTU468WQ5+6xz5M2Bb+iBQYLLl//ttxKddZ/jfXO5jHjvXb3+87zzLkx5HfjSpUvkueef1nvNlSldxotYS0pJL2rFGfZk2wIn9ibeQeu9D1iOL0eIMfGNr2NDECOS9x7FZWk4TxfDPSjXqbuz7odsXiCK4V7QkmqmGODvhTv/TPp5ol+TF3zGH360iyfJ3AgvjPZQQ6zy5Lqh1K9XX846K/eHwsxTbmAYBd57eE4IGPE+DUSJSiRrhDeovVmtPgqscdfeecc9wc1+o6hWrbr3gv3l7XedHgCu4cTj//jjGC+N1TZ4vM8+HymnntJWywCyXu690IgmPv74Q33Ro/hy1Jfarcc+8A04cNCbMnDgAHns8W5+C7Kt0KhxPV2u895jxbw3pErRey+s9b/NMQCPZTkvMkB0gHV4o+NsDPx97U1PNi/4PF922RUFyqVRw0ayjxfIRIHzsHv06B4pws0Nzq+sW3c3v5QgcYZONHhv4X2HhPcketgqysS3eOJNCiBH5G0DLFO/SF4brz1o1mwvadv2dM2nAtdY4oTO++/vJE8/86ScflriB3zQVbcxi8FvD5JDD2muNjfwAs/8faYOE+Bx0LXOr/tNtn3+8yNDDLRn7IC34npPmMX05gbFvKiyapmy8sg5V0ilzAp6ea2NL/31F74k8cX+n7zwUh/dF9m84D6wRx55lF/KC86RvujiS72/T6In6oLu9pNeFxrd9K0Bus+33NzRLyX8hkkVeC0Vtg7vNxUmCtiRC6bETZRuiib3Ae++674CB12//PJzqVOnjnTq9IBcd+0NXjf5WX08Y9mypbJg/gIvgiij4xi44mfOHFwmuc4LoxtIPS+URre7WbO9ZfbsWf5WZHskcePm9XqDVYCJPUwONKhVQsqXzpJ/PRF2HdRP7j3rOu0lILLZwRMo3pv4QKJ3kX+MQzYlxxx9nOy1195+KRdMAuP+DZkRk6uQZK+nnpD5C6LHJLcUJ510qmTvlq159VU+bxystwARASR6LoH+8eazpeXR0CSYCr+plC9fQQ466OBEIR9mzJwh1avvpI9RoUJ5FSNmtw2UcTPgsV43fNKkiYJbJeEGnhiQxTiWHc/KlSt4vfh2zIcfvu+9Cb03j/+exfsB74ssL3JsULecVCxdTErozVeLSZ+h/RJDQJ5YTY14IyP7sj87SjY/kMYZp5+lN/I2EGSddWY7qRhxrjROq3m852N55hq2Brjy8JZbbvdLBWPuw/sSSxWlidFw5WhmTQWuyAGPde+pB1MQrY5qLV988ZnOnn3w4Qd65U7p0mXk+x++kzFjfpDddqunEz1ICPUxNoW7DOEPUqdOXRk8eJB8//13ems3jG+S7ZPWrY/WW+/ZN633ttQPYpM995Sa1UtJvdrVpJTX1V7337+y8M/FKsjVa1brexWbqGS9uvMvuFi3J1sGRP2XXHxZEKS0PfV07ZaHWbF8uXTv/oj+zMO2whFH5A4d5Oc0gPWWgIrSxiTNniZOt2EqsG2FChXk2GOP92vyZ+eda+hlRrjhxhEtj5RTTk5M2DRrupc0bdpM8wa62Dfd2DE4nqOPPtZLx+jv59x80y2MKLd3/LdWYswIt76arsMyb3++UqqWLyWli2dKztrV8uvfs3XsMnEzA69b5L8nkW/QYHfNky1H5cpV5MYbbpY2bY6R/fc/wK/NBacI9Xzi8a02JpkKXPxy6qmnaV7fcykw71nS+RuccD50yNvet0J9vQgcUkK09sILL+jv206ZMkXvoIHbDZmwXHDPSowb4ucbotZvaVZ7f6QZvyffa86oWaNWvjPyZMuyS92d9CIFjEMjYsRvnNStW8eLNtvoe+7b777V7jberABRZOIep/8FM99z5/DE860FXv+ozzzmHHBObH7gN20wQRdm4cKFsmIFThvLBWJOdXJ4Ufn116ly4EGJmfkqVapEHj8mpvbff3/9rW98eePkc40oYUx7MwI1qL8Dtz4VN95wyzYhSYAxrj12bxiZKMlti1kzMcCfuAkLrvLAe23GjJnSt29fKV6iuDRu2Fh7K7nn+CZmIBOTj+s36GoNsulI9ZnH36Vc2XL5pihJAvywF3qMbtpUkgT4/a/qO1b3S6n95tYjr6LMT4b5rQN4EzePuBSJkMJgZ1xkZZUQXLqI9xtmGb8a9ZX8/MskPdfW3oPoLqG9lX+fmfrEZUKiwFVfVZz7T6SSvVuPL/JgMscmbZBPfHsXDgzk7uzMghFSFGZMz50RzcpClJG4yAHvR+tmI6Eucalt4v06h9d6kw0A753TTjvTL0WDNuZCLOFDNSLeiNbdtga2geVTgR/7IWRjwDhjWa87tt77Dz0URI2ZmfiN5gydxME3evHiXuSpb8UdOC5JNoqjjmzl56IxB5oPdegHK9xKK7vL/KhTO/fXzAjZUKZMniGv93vTe8/5vRn/PZn7Dlwv99zVyYskF/llQjYMnClRMiv1XcsM14n6rkS3xo0kreutb1S/LhX/O+R/fo6QjaNFiyNUhJpmL5Inej6jXWxEkEjt21/jtyRkw0GPpV69xFU6+QH3obeNZRBRQpQmSzeyRMqP3Xdv6OcI2bQUdN8AQjaUnXbOf17F3AcXYmxcRelO3mBlUSZzcO4lIYRsT+R3w3AXCxoDI1oFlu5dewqialX+siIhZPuiXLn8AzzXh0BFiYIbRRblPn9FkSohhGwL7Nl4Tz9XMNrLtgxkafZE2cXqCSEkHcCvLBQWDSQtA+xcSje6xLqwOAkhZHsGP1hWFHKN6BGOHClIQkg6UqVyZT9XMAgcg663SVHDTD+yNMICJYSQ7ZnyFSr4uYLRKxf9fACjSEJIuoOfHCksQUQJ3KjSjS4JISTdcOdhCgI+1NZF2YgQQuJEIEpEjkgWVVqZEELiiOu/YIwyKqI0aRJCSNwIu08NaXfIMEySrlUpTUJIXAj3qDMWLFicJEGd4fEjTLeeXXFCSJww58GDGfWz6+QWQl1wypEQElcsUAzucF62bFmtxM0wkPATtJAk6lyrEkJInID38PO7Kkr8HCR+JxnmBPgBc+BGlMgzwiSExJGMnJycPBJMJUVGlYSQOAHn6bwNIslUUqQYCSFxR8coYUsTokWSW0uQGB8dP2G8XyKEkK2LBZE6Rvnnn3/quCSkiTuWV6lSRWXpSnNzyxMDpj16PiYXXXSRLFu21K8lhJCtBxyobkRh5cqVWgkgS/zwzpaMKhFJPvFkDxkwYKDcc8/dUrFiJX8NIYRsXRA8qijXrFmjFbAnrtJxsdBzc4H9P/xIF+nX7zW57daOcvJJp2y1rj8hhIQJRAkxIZkUMXhpsrLl5hAmpHzffffIwIFveZHkPXLqqaf5awghZPNS2IDs33//zRWluwQmRiwLu8OigO52t+6PyJB3hsppbU+Vhg0bytRfp8iUqZMjE05jIoSQTUVhgz/4T0XpYhtvDjm6TJgw3utuv+5FlevlzYGD5IwzzpTTTz8jZZo9e5a/JSGEbBngQz2P0i8n2XVLjFPus8++cu89d+tBnHfeOfLRhx/KJyNHpky77Zbtb0kIIVsGBIzB/ShNjCZEyCssx80RYWJMErJEZPnmwAFStWq1lAkDqoQQsqUJIkqTIORoaUuAxz3llLZy+223yQsvvCjduj3sryGEkG0D+DADJ3oDSMuECYOGI0hXnptapGeddbbccvMt0u+11+XJJ3voLBMhhGxt4Dq9hBEZSwCCDI9RhglLdFPQrt05cuutt8qgQYNl6VJemUMI2TbAGToZJUqU0IKJ0pZgcwgxP84+q5289957Uq1aNb+GEEK2LsEJ5zZRAklCjq4gt7QsS5cu4+cIIWTrAy+qKDXjjEtaHvVuhEkIIXHB3BeIEmOSSGExbulokhBCthXMf4EoAQpYgYRZZxMmZUkIiTNJ51GiADnqWehe3nAjTEIIiRvBTTHcCBJYZGlRJiGExJnc0NHDZBkVRVKYhJA4or1sZOxnai2SBAlXMqokhMQX+C84jxJAhqhESpwehNrUESYhhMSBYIwSIrTLFk2YLlF1hBCS7sB9OuuNO4ejgGQrDGQpSUJInHAdCFDOyMrKCkQYlqJlwxsSQkic8KLK3MsVDTuPMlxPCCFxQ+8ehAxk6EaNdj9ISpIQEnf0fpTIuJFjWJpunhBC4gacqKK0GW+t8LrdJktKkhCSrhTWb8F5lCZF2xCitEQIIelIYf0WXJkDCpIjo0tCSFwJJnMMN7J05VhY+xJCSDoBDwYRpYtJMb8IkxBC4gAcmCeiBG4ZNqUsCSHphttjdonynYoS5wml2gjkt44QQrZHUgWAYd+hnDSZY9iVOQD1jCgJIXEmY9q0aQXKkBElISSuwI0Z2dnZiUzENd8UJCEkrpgLg663XY0DsHSv1AnLkxBC4oAFivCfijIsRlyyY1gdIYTEkUCUBoSIZOIkhJB0pbDhX3D3IIsasbQUhlElISSdKOyAYnCtt0kSuKK0CBNEyZMQQtKdIKIErhwNV56EEBJXksYoDZOlRZquPAkhJE4EP1ebCkaUhJC4g0AxjyijokdGlISQuJJ0417DPTUIgqQkCSFxRidzcnJygssXgXuVDiGExBm4UCPKrKwsHay0SRtXkhQmISTOwIkaUSKCRDJMjuElIYTEDfgvz6y3jU9aV5zjk4QQEjqP0sQYFUVSmoSQOAIfqijDYrSuOOrzkychhMQBNSK63CZCiBH5XElSkISQeAIH6jwOCjYmCUyQJkyvqdYTQki6YQFiKrA+mMwxOdrSJnVyZckxSkJI+lEYr6FNEFG6snST7Qh5QghJF4ritmCM0jWr2xUnhJB0xARZkOvQTkWJhraRO7EDCmNbQghJB8K+s3LG2rVrg9OBAC7XAWgAgZptGWESQtKdsOfMgxnIrFu3Lqi0ZFjerSOEkDhgPswoUaJEUtSo9vQjTMqREBInws7DUGTwmznhcBO48iSEkDgQ9p3N2QSDk26D8IQOIYTEkTyiRMESVhoUJiEkrqgkM/xLGA2LKt3zKNn1JoTElaSI0qJGV4pWF7WOEELiQvHixfN2vS1PCCFE9PRJFSWiRTdixN0ywlCehJA4AvepKF0xQpg4b4hdbUIISczZqCjdSxiB2w0nhJC4goAxiCitYKBsESUjS0JInFFR5uTkaNfbFaKJ05aEEJJ2pAgCwy4EGVlZWZoBqESy8yi3BUmuWbNGIHPc5Wh75OGHu8r9D9wvv8/63a/ZOqxevVqPA2ns2DF+bTxZvfofBgAEoaKfyQXvC/e9EYjSpGhi3BbeQJiOHzNmjFzR/nLZb//95MCDDpR999tXrr7mKhk3blzkrDx47/335PY7b5euj3T1a3KZPGWytD39FGnesrk8/MjDRX6ej/d4XNoc00aOanVUkUQzdNgwGTRokKxcucKv2TrgNcNxIM2cuXWlvTUZOvQd2f+AA6VXryf9GkJyMTEadtvJpFkcEyY+VCYS2zC8g83F4sWL5LTT28rFl1wsX3/9jV+b4MsvR8mFF10op7Y9VZYsWeLX5rJg/jwZ/u5w+WrUV35NLosXLZZfp06TZUuXyWuvvSYTJoz31xTMn3/+Ka+++qrMmztPFi5cKCtWLPfXkC3JypWrZP78+fo3SMXSpUu1TdT7499/18kj3bp5ufXy4ccfJSpJbMnPaVgHByKQhA8DUbrXd0fJcUtEmosWLZK2p7WV6dNnyG677Sb333+/DPMiso8+/FCGvvOOdLq3k9SuXUtmzJghF1x4gSfVxf6WRee111/zcwWxXh57rFtwz06y9Rg9epS0btNazj3v3KT3q8tdd9+lbTpc38GvyaVYsUx5qHNnOeboo+XKK9r7tSSupHKaSRJLOyMoEKUrRXeM0jbYEgx6a5AsW/anlC1bRp5+6ik5+aSTpc4udaR69Z2kbt1d5dRTT5Xnn+stZcqUkVmzZsnrhZZdLjvsgKe8g3z37Xc69lkQf//9twzzolSQ2JZszxx+2OHy8MOPyLHHHufXEJKaPKJ07Wp5E6S7bnMycOBAXZ577rmy8841NB9m5513lo633KL5/m+8UeRJnlKlSsqeezaWpcuWedHqO35tasaOHauhN+S8117N/NpNDyZbVqxY4XUvVxb5OW3Mti6I0v77719NRQWTbjgGJBxPYcFjrlq1Srf7559//Npk7JgsisT70erWr0/ctCC3nHivRtWB3OeYHJHmts+tRy8Cr+mKlYV/Tniv6Dah18Ee1z2WMPjb2bZ4LfJrSzYf7usOB+Jvp6K0FbbECsuj4ZaIKPGY1pWuUKGiLlPRpElTKV++gnalMCZVFPChbNmiheb7vvCijlulAsfUs2cPzV991VVSunQpzW9K8OF48KEH5fDmh8sRRx4hLY9oKYcdfpi88uorBXb38aHqdF+nPNu+2u8Vv0XhmT17thxy6KGa7rn3Hv1QFwYc/wsv9tXHxTEg4Xhuu/3WAuXyy+SfpVXrVtKiZQs5wjv25i2ay7XXXaPPy0Dejuuuu+/WOoxRHnb44VrXo+cTMnny5KDNN98kxrUnTZoU1I0Z84PWgRtvulHr7ru/k1+T4KOPP9L6M848Q//umLA78aQT9DU94ojEc3r++ed0XSomT/4ldxvvdcDzee65Z/Q16v5YN93/V1+N8lsnM+DNAfoautvecOMN3vs771gr2bLAfypKzfjdbWDhZligmxM85pHeGxL07dtHli9PPWFSr149GfXll5qqV6/u1xaeE044UYplFtMP3Ow//vBr8zJlymSZNn2G5vFhQdS0KRk/fpy0Obq1vDngTR0GwP4RSUDm3bp10/HauXPn+q2TmfDTBDn2uGNl8ODBui22g5iw7aOPdpOz252t+cKwYMECueTSSzwprdBo+6477/b+HonZvvzQibfTTpMePXr6x7Ba1qxNnM41YsR70rpNK5k48Se/dS54Pz3a7VE5++x2Oi6NY1+zdp1u9/nnX8gxxx4tP/44NmgLWSKZeN26td7jQV5WRkQHouoAHgt1q1cn/y3/XZeIBDHU8kDnB+Syyy+XP/6Yo+2RcGy9nnpK7vW+RKJ47fV+3mvezvvC+SPYBq//U08/I+dfeL7KHPsPf/mhDf5WnTt31jye45o1q/XxPvnkEznhxBM8ueadnCRbFjUi3lR485kokXfHKbcU53hdbrB48RK5+pqrVSSbg4oVK8qpp5yqH6Ann+iZ8jkO9z7soGnTJjpOuilFOXPmDLmi/RX6XA8/7DB5e/DbMuaHMZr6vdpPJ7MwaXX5FZfliXqXeFHGZZddJsuWLZMjvegDE17jxo2XH77/Qfr07u1tu6tGVNdce41GM/nx999/eZK8WGeK99l7b3mi55NSsmRJf23+3H3PPTLDex7Z3rG+7Qn7x7FjZcz3YzzxD5BmzZrpePPNt9yiXUmX53s/r2cRlC1b1pP6o/LN1994246R90aMkKOOOlL+/PMvLyK93Vsu0yGPL7/4UlOne+/V7XfccUf5whMq6q695lrZfffdgzYHHnigtmnUqFFQt88++2pdYcDr8Nagt+Qa7/038uOR8v133+tk4qmnnKLrh707zPu7TNe88eO4H3XcE++nli1byttvvy3fffu990U+Srp5zw9nXHzv/W3C4H33wAP3698Kf+9XX3lFfvD+/j+OHSfDhg6VAw7Y3wsYVsitt91a6C89smmxIFJFGY4gTZBIJs8twb7eG/rWjrcIfvAM50ued/75cv7558ngtwfL77//vslEhW/14/zB/I+8DwOimjB4Yw4dOkRfm3vvuVfPpwpHIRvDCy+84D1GjkbEjzzyqGRnZ+tj4N53TZs2ld7PP+8JvYLMmjXb60q/6m+V4KWXX9KIA0Ls8lBXnfDK8P5O2PaAAw6Uhzo/pO1++OEHfd1SgWGLM886Qx+jfv368sQTT0ipUoUfXvj555912fHWjt7x19PjR9pjj4bStUtXfe8gIrZ2AK/r66+/rvk777xD2rRuI6VLl/baZkjNmrXkwQc662TevHnzZPjwEbqPChUqaCpXrpxuh79J+fLltQ7Hm5mZGbTBawCi6goD9o1jv+jCi6VatWqCCzLwJXmvnnFR2wsq1stHH33ot07Qv39/XeJv2aVLF++LI9v7ssnSY2ztPb/uekpSXtBrGu59OYBLLr7Y+3LZS4p7x43nXKdOXf3bZno9H0S5iEjJ1gGBZND1tqUJ0i1vKfB455xznkYn9eolxDFu/Hjp1KmTdkHQJfvs8882+lSdf//7V5o0aSLlK5TX8pdeFz7MBx9+oJENJo8gAVDQmFthQSQ45J3ERFKPxx9XUYSpVm1HOeOMMzX/+OM9VIwAH66XX3pZ85decllk9NeoUWOpW7eOrpsydapfmwyEddXV7WXOnHle1FZWnn/ueR33LQr2d8gslqlLl5122kkGvjlQU4MGDfxanID/jj7/xo0byTFHH+vX5oLXom3bUzU/zovUtjQ77lhN2rRp45dywXsT7wXww4+5x4Xn8v7772v+wQc7S+lSef+WTZs20/2Gccc7o4Y6IOo3ByRew1133dWvJVsS+C+IKAEKUVI0iW5JatfeRQYMeFOGvD1Ebrj+eu9bNRERLPK6MB06dNAB8+nTk7s/RQFdJEQZd91xp5b7vtA3T/cW3Vlwyskn6WsDNpUop0xNRAcYAmjQYHfNR9H88MN1ib8LTnoHixbnRr+NGzf2c3l5o/8A+WTkJ9LqqKP8mlywP4y1/fxz4jgGDRwoVapU0XxR2GWXXXR5i9cL+PTTT/R1NfAlB0GiW4znCSCGl19OSL5B/dTP+/DDE5Nt06ZP0+WWJfX73d4Hq1bkTjbNnTtHl4hsGzVsqPkoor4MEe02b36Y5h/q8pDXc3orz1AJxuPxGlaqVMmvIVsajSinTZumb3CTpCvGqLotRXFPjnXq1JGLLrpYvvn6a++D31/OP+887YpgkL3dOe0iJwoKw3//Jr7JDz74f9q1+uOPP2TM2MTkAZgzZ46M9yLZcuXKyllntfNrRXL+Kfi8y8Iwc+ZMXZbxPjwQSiqqVs2NQmxy6y9fmKBc+URXNAp8MDEGiGGMMH369vEi5kT3EVFLpcob9iHs3r174lSrpcukg/eFdsSRLeXyKy7XiZpff/vVb5UL3mc5OYlTgHC5KWa8o9ItN9+sbTB+u61jwzZ4HxUvUfguPsDn6sEHH5KDDjpQ/76dOt0nzVscLpddfpk89FBnmThpYmTwQrYc+BshZWBsDBn3D2JitOXW/mPhw47u5M033yID3hjgRT+VtevYq1evDTo2nHsHMIZ00MEHaX7oO0N1if31eqqXfrMfdNDB2sbAzOim4B8/Mt3Bj1BS4Up0nR/xulFbxgaeAI8vAkQoWSWz9IPet0+fpG5gYamxcw158YWXpMtDXbwo8HCvq19KT8/BRA1mw2+66UbvS2i23xrkDutA4lW9KDYqoYvbuFEjyc7eTdtuy1gEiGjT+0hpvihUKF9Bnn3mOf3Sadmipfd3qSzffvutvDFggLRr104n8xDMkK1HMEYZxgQJtpQkMTOK01Rwyk5+j1mvXn2dXAGjvUhz8ZINv4wRz/P2W29XIX340YfeMSzXCaPRo0fr+jPPPEOXmxrIAGCML7/n+s/q3BOwS3kSAiWdyZaCZrRTgUj28ccek/u9CAb09kT55ZdfaL6oIJI67rjjpNeTveSD9z/Qa+0vu+xS7VZ+9PHHGvn/+VciCoZI7L2FccD+/d/IN0HC2zo2wYS/5YZ82QBIttVRraRnz57y7rB39XXs0OE6qVwZ0vxOzr/gPJ3QIVsHBCcqSvuwuoLc0rz55gA55thjdNKmoFMhdt01288lTkjeGGrUqKFjaTjvDSf94kRjDNDX86KZ/fbd32+1adndH5fE4+Q3kz91yhRd4s9SqVJinK+a0x1fuHCBnysaGOfFKTNt2hytp+MAnIISdSOJooKZ4WuvuU7PDYUAMCFmkx3FMjO9CD0hlqgzDbZHdvbePwDvw01xsxR8BhFRX3LxpTLk7be9L6ISeorQZ59/6rcgm5uwBzGfoaK0FSZM+2ZEGeu2hED3228//VaGsHBLtPywyRBQvlxu13hDadu2rS7fGfKOnhsITjv9jGDwflOz6667eamuTg716dvbr83Lu8Pf1WV2vexgCKBq1apSp05iEuXTT6M/PIg0MV54wIEHyCeffuLX5lKiROIepHh+Xbs8LDVr1tRTlW69tWO+Ea7Ly6+8rCeU33Dj9X5NMpgcsvfN0iWJq6dQvr5Doj3ONJi/YL7mo1gZOvdyW6VWzVo6qYWo4/X+idOewuA9jXH1MMNHDNfXEMnOanCpWLGSNG+emNiaPcsdwiCbk/BnAOUkE5gU7Q1uy8J+eDYGjEEeeugh+li33nqrfPvdt5GP+8svv8h99yW6jK1bt9LuycaCcyqxn5m//x7cwuuIlomrhDYHOMfvogsv0nzv3n3k62++1rzL6/1fk08++VTHER/r9pgntcR4JYYJ7rrzLpUcZIXXyQVfcm8OfFMnQvABbdqkib8mGoz/9ujRQ7vK333/vXR7rFuh/t7NmzfXx/j0088iZYzzIG0/ONXLwAcfk3QQQ8eOeU9Gx/F/8slIOfW0U4NI1MC4JsDzcsdqXexUpU15cUB+4O+BexOAvn1fkO9/+F7zBr78uz/WPTiVygU9mfnzF2j64IMP8rzuC7wvEtxrADRuvKcuyebHvAfwN0FKiiiB+8dy826bzQHkgZON8aGCrHDlCQayX3nlFXnnnSEyYMAAuevuO+XMs87UGcLq1XeU667NeyutDQFXf7Ru1coviZxw/PF6HuDm5LjjjtdresEVV1whXbt2kfc/eF9GjBghd9xxu1d+WD+Ep592mt45yWXfffeTgw8+2Isc18mVV14pPXo+rmOsw4cPl5tuvlEefvhh7S5gHNKdOU8FhgLae8cA3uj/howrxBVRdevUlSOPPFLFhkmbLl0eknfffVc++ugjPd3q7HZn6rrddt3V+wJMnAID8JxwuzyIGVcTtTziCL2uHZfrvfvuML1N2g033qhjcmXKJJ9Sg9cB7xOcKnXzLTfpcM2o0LXTuMkz+O233+TpZ57W983GnEpWGE44/gTv2Opq/pJLLtG72uPqHESYZ3mvAy6YiDrpHSemn332WXqxAK6vv/2O2+Sdoe/IyJEjpV+/V+X8CxK3EkTEetBBiUlHsvkJew/vYxUlMibCVEJ0N95cIKp7a9BglSROlv7uOy/C6d5Nu8OdH+osQ4cO0zdc48YN9RxLO49vU3CKf4kaIrWLL75E85sTPI/uj3aXCy+8QKO61/v39yKsjnLb7bd5Xe7hOkmCK1c63nKrv0UukMUzTz8jZ5xxuv69XnjhRbn55pu9D9rtGoWWL1dWnn76aU9kec+hTMU555wrJ598snbbL/A+oAsKMf756COPetud48kvU+/kdId3vDfdfJNOSuTkrJaGjRrqTZLD5xDuu+++8srLr0iVqpW9x1uj17Vff8P13vZ3quzxt3/Bi84OOyxxHqmBsbtz2rXT54xI9sHOnfMMP5xx+hmyxx67awT37LPP6vtmc5+PiS9anI2BK4vw/nnt9dfl3k73el92XeX3mbOk8wMPeuv8u2E5Hy+0ve3W2+XKq67U9wCuj7/77rv1ZhiPPPqoBgy4FHOA99oW9rJSsunB520HT4Dre/fuLXvuuaeeMoJvfERseLNj3HDixIl6TiG+oaMkOnVK4pzATQ26ZHPm/KGnRqxctVJKFC+hH5TdsrOlcqXK+iYLg2uDlyxZqhIKSxQTROgOAnT98ORd8GWBa6vxHHFVS9SVEliPdjvvvJP34S/j1+aPbVOrVi2VXxS4lBCXqM2bP9d7/Aw99gb1GySdmhQFvrwwAYO71sxfsMDrdhaT3bwoBVF5+Pjs+QGcOxm1b3SH7SYcuJ7aZnTzA8eASakpU6Z4xzDP6xL/J1W8L7w9GjaU6jtWj/w7Gegez503V375+Re9lRlugVcvu75GZ6nEAAH+9tuvMunnn3XfTZs01cs/XfC3xvXXOBkcr8P/Dv5fcMI2nh+eJ7rx7g1V8J6HmPC+wOsf9V7HseasytFjw7huGBzb9BnT9W+JLwBc+tjE+1zhiifc/ARdbHzBHXLIIf4WuSBKxrmnOKf3X28/FSpWlIZ7NNSeTfi9SjYN9RvUifw7432xzz776P0K4L6zzz47IUpcd9zQe2PjzQTJoNuDcav9999fRYnrrre0KAlJF/BlhtunAVzxhWvzydanIFHingsTJkyQ008/Pff0ICTDNnbrCCHRoPeD06tw56EoMN4IcKFETf90IrLtAw/CgehlB6J0CVs2yrqEkARDhw6V997D/Tdb623YcOHEsj+X6RVQjz/eXfp6PTYME1xw4YVeN7polzmSLU9U0JgRPn/LlaIZlRCSmjPPPFMnIMGdd96pF060atVKjj/heHnRv9PTRZ4kLzjvAs2TbYVc10XJ0cD5zhmYYMBsMwao0QAD0rhqAuepYePwRoSQZNA1u+bqa/TyQ5y5gJ9xwK+FYnb/mquv1t+Cuvba6/hZ2uZILUcXXHXl9QgydIYTkzg2Q4kTeg1GlIQUDD5omC0/95xz5fHuj8vbg4dIn9595PLLr9DzVO2zRbYv4D8Ek0l/vagIkt+ChJC4Yd7DEinP1xxkaVEkGjCiJITEDdd7gShxMrKNSSJZ3sUMSwghcSIQJe64jXPBMJEDQeLOLxigtkYgLE5CCNmeKSj4s8ARgaSKEpM3GGzGpVKY1MHlXdiJNQSMKAkh6URBwR+chwQ3BmOUrhSjKGinhBCSjiCAVFG60WJYiIwkCSFxISogDC5htPDSBRugnpEkISQuRAWGQdfbZr0NNKYkCSFxxvVfBm7UGiVGiyiRCCEkrsCFGfqPF1qaEFE2SWJJCCFxxJyIZQZuQW9itEo3TwghcUaDSWQgRIxTYmkRpcGokhASVyyIDCZzDJv9NmEyqiSExBl4MIgoLYUjSBMmIYTEkSCiNEyKFkW6AiWEkLhhQWIeUUKK7pIQQuKKDUsmidIiRwjSJElZEkLiil2IkyRK4IqR3W5CSJyBKOHAYDLHBOnK0Y0sCSEkbqDrrb8nhoJZE1CMhBCSAKJECiJKA3mscOsIISSOIHBUUebk5PhVuUCSjCwJISRBBn6zlhBCSGoy7M5BqbraVs+uOCEkbsB7wR3OkUE/HLjjk1haF5xdcUJI3ID3kIJZb7sZBuRo0kQDRpKEkDgTiBIydG/eGyVHCpMQEjcsWEyEkR6IIq3bjZXAzRNCSNyAA+FFFaUrRhezqeUJISRu4FcgVJRut9uFESUhJO7AgUHX24ToihH5KIESQkhcCLreNjaJlF90SQghcSMQZWZmZsoudqr67Y1FixbJlVe1lyVLlvg1hQPPf8WKFd4y93eFCCHxYgdPBOv79u0rjRo1kkqVKqk0//77b+nRo4fsv//+MmnSJBk/frz8+uuvkVHl1Ckz/dzG8fnnn8tTT/WSN98c6NdsWubNmyvHHHusfPD+B1K9enW/NjV//rlM7rr7Lvnxx3Eqyf/+Wy9NmuwpXR7qIlWrVtM2F110oZxw4gly6ilt9VuneYvmUrt2Len36mvBeakuDz/ysPTv318e6/6YHHHEEX4tIenDrDkLZdhHY2Tib3Nl7dq18p9/49sNYYcdMtRH5cuVkjOO3k+aNaknJYpn+ms3nvoN6kQ6DX7YZ599pFmzZvLFF1/I1VdfLRnTpk3L09iNIrdURLnu33Xy9/Llfmnr0+m+TrJu3b8y9J2hMvqrr+W9997zXsCd5MabbvJbiCz3Is21a9b6pcRrNXHiJBkz5ge/Jpdlnnhfe+01FSqeKyHpwr///iff/ThVru/0gpx7/dPyxvBvZeKU2TJl+nz59fdFG5ymzlwgP/82R7758Te5scsb0vaK7vLKoE89T6z0H3nzEOXDjOzs7KCABlGGBSmqtyjr1q3TCHfw4MHy4Ycfet3oxf6aXObOnSPDRwyXIe8MEXwJQExRoH7s2DHy22+/eaW8XwaTJ0+R008/TapUqaLlShUryRWXXyHLPZmvWrVK66I44IAD5NVXX/VLufzww/dSrlw5jdoJSRdWrvpHuj33jtz00OsyZtKsiE9S0YGDypTOkvJlS0pmsdye2Z/Lc6T3gM/lopuflV+nz9lsQVx4v8G13ugmogDQyG2YK86ta0oc00NdO8sll10iv/wySfr0fV5atW4lU6ZM8VuIfP/9d3L8CSfIkCFva/6MM8+QwW+/5a/NBfsaOvQd6XD99V43GiLM+9x23LGafPzxx963ZW70V7t2bXl78NtSunRpvyYv5517rowZO1bWhCLNfq/2k44dO0qpkqX8WkK2b1blrJYr7+gt73463q/ZOCp4Xew7rzpWxrz3kHw77EEZ/c4DMub9LvLsQxfITlUreJ5KfE4XLl0ul97eR0b/8IuWNzeBKBFdmRwhRrdsy63N6NGj5IvPv5Thw4bLnXfeLQPeGCiXX3a53Hf/fX4LkXs7dZL777tPnn+ut3R+8CHp/3p/eeSRR2Xp0qV+iwTD3h0mvXr1kldefkUqepFiFHffdbcn2x/k2OOOk2efe1oWLFjgr8mfWp5M9957L3ljQH+/RmTK1Ckya/ZsObrN0d437rbxehKyMaC7fe29L8iMOUWbHE1F97vbycg37pKz27ZMGocs5gVxhx64p3zY/04Z+EwH2WO3xPwC5gzu6j5IJvy8aeZI8gM9WRWlK0Pko6773trCfLXfa3L44YcHXWEc1+mnnyETJ06UOXPmyOLFi3X5v0MOCY65QYMG8vRTT4t7z83RX38lXbt2lQc7d5Zdd93Vr81L/foN5K1Bb0n7K9p7UetUT5jHSvsr28usWbP8FtGsW7tWTjzxJHnllVf0BQaIXvfy5Ilvpm3li4eQDQXv4CdeeFemzihc8JAfFcuXkXf63ihtWuwtJUuW8Gvzgmhy93o1pU+39tL6sD21bp0n6/t6viVLlv2t5c0FfKiiNLEYYXGCcJstDU7RqVC+vF9KULlyZU8+mbJ02VIdr8Sxlildxl+bYL/99pMyZRJ1iJQffPBBzf+T848u86NChQpyyimnyOOP9ZB3hw3TLvd1Ha7LV3aQ40EHHqTH+/us3wV3kP/ww4/kCi/6BanGTAnZXpgzb7EM/nCsX9pw0NV+sdulkl13Z7+mYCpWKCudbjpd6tdNnHmCbviAYaM1X3QKdhq8h897MFKKgskQeZOBW7c1QVS4MjSJAhlhDLFc2bJSvnwFrftn9WpdGhCVK6du3brLVVddKV26dpG//v7Lr00GpxK9+eaAICIEO+9cQ2668UaZPn26LFy40K/NC16n8p7QL730UnniiSfko48+1FOG9tijod+CkO2b9z4Z4+c2jnYnHSz1s2v5pcJTvlxpebbrFVI8MzGv8u4nP8ratRtyJknBTjMvBqJEeOnK0ZLh5rcGp53WVr76apSem2V88MH7kp29m9SpU9cT2c56/tPEn37y14qsXLlSJ3xMbHiOjRo2knPanauz0+edd57eizNMmTJl9ZzHsT8mf2viZPVM748DERbEiSecKKNGjZJu3btL61Zt/FpCtm8wNvnme3lPfysqZUqVkEvPOcovFZ0dq5aX7F121Pzylavlx59+1fzmAF4MxihdSUIohtXbcnMCEV3R/oqkdEvHWzSya3VUa9l99wZydruz5JVXXpa777lbHu/xuNxww42BxK++6mq586475RFPcr379JbTzzhdLrroojwnmKP9jd52q1f/I3369s7z3CDCu+66W2688Qa56uqr5IUX+8qtt93qdbs7yAXnXyClShU8c42x1Bo1dpbly1fI0ccc7dcSsn3z24w5Xq8tN1jZUNocvqdklSjul4oOPsPXXZwr2teHfevnNp5wUKhORAaTDCiYMKyrinJ4o83FbrvuKhdfdLHs1WyvpLRn4z11IBdn6Hd56GFt88ecOXpe48svvSyHH3a4vweRk08+Wa8o2sETPaR79913y0UXXqTPoWzZctK+fftgvBLnMz737PM6e7ZqVd4TWE85+RR5/bX+svdee8n8eQtUto950eF113XwW4icccYZ0tg7PoDHwLHtuGNCynhNH32kmzzctaseK8AX0Pnnny/ZuyXOXSVke2P2vOQzSDaUPRrs4uc2nIP3a6RuAMv+Tn1uc1EJB07qR69y/QsvvCANGzbUyREIadmyZTq+hksYMas8YcKEzX4JIyFk26f/0K/k6Vc/8ksbzuP3niutDm/mlzacQ06+R/5aniO71Kgir/W81q8tHKkuYdxpp51k7733Di5h7OD1JDWiRKSDDcykWCKhLmpHhJB4kukMy20Ma9dtmrM/0CMEm9JS5kGXDMwK2wobmwyPUVKWhBCwY5Vyfm7jWLx04+/rgCuDVqxKnOaXuQlvlhH2HcoZOO3GZGjCDI9RWj0hJN7UrZU4f3FjGT9xup/bcD76bIznpkR+l5023T0UonznBY8ZGkG6K82olCQhxKV2zWpSo1rinOWN4bNvp8iCRcv8UtHBaUrPvf65XxI58/gD/dzG43rP8trHxrmEJkfgnlvo1hNC4g2CqrbH7O+XNpzVa9ZJ92eH+6Wi89Pk3+WPeQnR7ly1vDTeI/XlyBuCec+EGTky645Rek39JSGEiLRuvpef2zje/2KCfDaq6HceWrBwmVx043Pyny+xM084SJebinDvOrh7kHuzBiyT81smqsRd1D8aOVI+9tKEn35KugJnY8Hdgz759FO/VDRGfjIyOK4xY8bIav8SycVLlgS3eJv6668y+48/NA8wxvvp559HXvWzLTF27I8yfsKmuUUWiQ8Vy5eVB25ou9FewIz1TZ0HyBdfT/RrCuaPuYvl0o69Ze26xGer6e415fijNj7CdYl6XipKfLCx0m1geSxdw24uPv3sM73kEJNLuEv4Q127ypo1a/y1GwcOf0OfwouvvKK/64vjmj5zptxz3316XIsWLZTvfkhcyjV+3Hi5/a679fgBXs8XX3o56Vpx8O6I4TJ37ly/tPVZ4R0vznogpKg0P3hPOebwxMUWG8PqNWvlqrtelgd7viXzF6Q+mX3t2n+l31tfyIU3PCMzZi/SutIli8sdV5+yUVf4RBH2HQKeQnS9t0xECfbbZx857NBDpd3ZZ0lmZnG9bRoOesbMGTL47SEy8tNPgojun39WywcffihDhg6VqVN/lcl+dPfFqFG6BIiWFixc6B2/SMmSiVutffb5F/K9JzhEiOCvv/6Sd4cPl3eGDdMfIAtTLDNTDv3f//S4Tm/bVpo1bSo///KzvzaXpk33lMFDhqT8UsHxjR79tXz08UiZP3++Po8vvhwlA996S8Z50fR//yVHn79Nm6aRqjHSj4jxe0bvjhghg94aLNNnzNA6POZv036Ttwa/LZ998XmeL5g5npy/+/57GT7iPe91fFsWOs8Tcn/vgw/k7XeGyJKliXsLQvBffPml9xhvyY/jxmkdGDV6tPwyebK8OWiQjP7mG/1CAH940fRbgwfLiPffD74sSHoDJ9x29alyxMGb5mYvbwz9Ro4+72G57cGXZdjHY2XMhOky/uffZeSoidKz91A9sbzr08Nk/uLELdWqVSojT91/kdTcuaqWNyVh3+EinMiut30AbINUH/5NDUJxPDY+qH///ZeUKVtWP9SPPd5Djj3maFnvrX/yqaf1eDp7Eec6z/THH3us9wEdIT9NTNwMA9Izvvn2W/0QQwDvDh+h273liWL8hJ9kr732Ulld3aGDl2+mku7c9WF/y2Tw7O11We6JKupa75NPOFHvbA6RRLF7gway++67e8I9RM/8f+3112X58r9VvhDVyE8/81smmPTzzzJ+/AS/JPLWW2/r8vk+faVxo0ZywvHHSc8nnpTFSxarMHs99YyceMLx8vdff8tLryT/FMXvv/8ur772mhzRsoXsuWdjeeChh4K/8UuvviaHHnKIVKtWTZ56+ll9no8/0dMT3io5+cSTPLmPlm+91xG88cYAmeO9nid5z/W553vrcANuOPJI9+7e8RwvtWrUkBdeeknbkvQHfrjvxjPlsrNaBHfy2Rhwf8l3P50ot3fpLxd4keM51/aSDve+LL3f+FJW/ZP48sdjZteuKv17XS/1dq2hdZuaKN8FXW9biWjSFSRS2LCbiwc6d5arr+sgl195pZxx+umyo/fh/XLUl9L21FM1Cqtdq5aKDyLF8ogWLdT2R7Q80t9D4TjOk27VKlW8UH+B7OEJDD8QhjHRHatVzdMVxX0rb7jxJrnuhhvlqmuvkwzvS6VB/Qb+2lzwGt1x223S1xNF1C2fsF5fRu8fRHxTvGjx2GOO0XXXXHWlSr0wYBhg0s+T9G/WpfODeh35qK++krPOPEMj8Pr168vMmXkvK61dq7YKHsdetXLlYEz10osu1NvUNdqjoRel/6MJgoZUcRLv6aedJr2efiYYbz3yyCMlK6uEHHTgARrdfvLZZ7Lv3nvrkAJuJvLrb79t0vFlsu1z3qnNZUCv6+T01ntvVlfU2rGC9Lj7XHn+4fabvLvt4j6HwIv4Bx+6qJVGuLy5uOXmm6TbI11lp+rVVQhg6dJl+jMMEyf97H0Ip8lJJ56gx4NjLl488WIV9Y9jQwvoJmLbST//ovtv2qRpnn1hbPKeu++U++652zu2h+WySy5J+XgQ+0EHHCD9Xn/Nr4kGv6dT3BO87Qc3Gy7MjYTB5ZdeIhUqVJTX33hDnnz6aY2KMXwwd+48fQ7Tpk2Xo9u09lvnkum/VqB48RLel01CZiX8NxyOxfta1NcVkb29tvg7rPHEh/oSJbKCY8Yt+hFq44fWMNaJx0ZqfVQrXU/iA94T1apUkOsuO0mG9vE+w3e0kyvPbSVnHX+gnHJUMzl5A9NpbfaVi05rLrddeaK88cTV0u+JDrJPk+xN+pO1UZjv8Lz0c+GV1Rj25gdbSopRlPYiHkjj6quukneGDtUoplHDhhrFoesNASCqxFAB7jZuEyOLF+eOuUGCdrPeXyZP9Wujqb7jjrJo0WI56sgj5PjjjpVmTZtIyZIl/bUJdsjYQSpXqqw3DCnr33koP0464YRg7DBMpnfceE5ly5bRMVj8fAX47ofvpe6udTVvVChXTv72uuYAIlzlPSds+/aQIXLwgQfKJRddJKu87jEia0SRxT3hHXfsMdKmdSvZpXZt3c4FQxkA0sNZAFWrJMZ23L89wBcDIsy58+ZpGWOlzZo1VXGG2wLcCQkRPl4/pCZNGgeSJfEDM+IH7t1A2p10iFx9wTFy4xWnyE0bmDpceoJcfGZLOe6IfaTmztW8z30iwNnc2PvcdWEGukmoyP0Q5OajPhibC4xHQoigZo0aUsmT008TJ8qBXoQ2zusKPtL9MbnvwQdlytSpKsobr+8g3R7vIY/16CHD33tftwP77rOv3HVvJ7n/wc5SvlxZjZ4yi2V6UVjiZrsVK+DX3BIvOOTXovlh2vbR7t2l/5sDtd6lcoqfl0WXH2IHJUuV1GMCiMAu9SSG7cKvX9OmzeSZ556TX36ZLOefe473fDrrmOvAgYPlDK+L67Lf/vvL+AkT5eFHH5V7Ot2nvxaJx6hStarcesed8rj3vItlFtPf/WnZvLlODHX3Xg/MykeJ+o8/5sqj3bpLx1tvl5Zetxo/c4FjLe4JG+BY8VMbeF733Xuvt6/HdX+YNOro/5a5vYYAX1QQIsZcEZXe37mz/n3Gjs2d/CFke8QVpEaTGI70um7r8TvUe+65p96jMSOjmP7+DH6lEHcBx+9o4xzHzX2bNev+22OgDHCQOFhELViHD7KBCAvrIJ7JUyfL6W1P07KNp+kTdPYH0WCdWw+wb3Q7IVS3HqC9SdAFj2MvYvjYQart8MWE54C2aGPHhf2EwTq0QXtrB/R4vce2/QCUUY/9hB939Ndfy7fffS/XXn2VlrEe22EbkNgHXrfcx4g6Nvc5uc8Z+8E6gDvAe3vUPCHbMoW5zdqXX34pN3mBQgaiiuQPaSKijNrB5gTH4D4mynZcqEf04koS4EOrdc52aIs6JNsnkn3AsXQfB6AtIqtwPbDtwqCtHV/42EGq7dwuLNqgbPsJg3pr7+5Pj9fZD0AedakeF9jrYtthmbuP5MeIOjZ3vfucsbR9Yz+EbM9YAOGin4KoFajDB8CW2zJ77N5Ajj06MYNM8rLvPvvIZZdc7JcIIYUF/kNSUUKEJkUrg+1BkgCRj/3EA8kLJmjKli3rlwgh+eE6z9wYiBJjToaNNxkmUEIIiRNwH3wYdL3NomZQg5IkhMSdYKQeQkRyI0vgSpMQQuIGJi6TxihRYRGkCZIRJSEkrqgkTZSuDE2WSCZLEykhhMQJc2MQUUbhCtTNE0JIumNahPuSIsqwDN1IkhElISROQIfmxKSI0pbofiOPRqkkSggh6UZUsIi6DPf+iyZKt7HVEUJIupPKdxm4asMVJPI4RSjKrIQQEic0mkzMfOeeEmS4UrR14TaEEJLuwIUqSxRsTBK4t89yhUkIIXHDPJg0622SZBRJCCG594RVUdqYJCJLw5UkhUkIiSs6RokMbshqkWRYihZ6EkJIXAlCSBMkpJjfXbIJISQuWKCY29f2sMjRvR8lu92EkLgC/2FoMkmUqIQssSKMSZQQQtKVVEOPKkqb7UYyWVojg5ElISTdcZ0HzIt5xiiBzX5TjoSQuBPMetsJ5ybG8G/mEEJI2hGKHsPAieht47f4M6ZNm6aCdMcl3fMpw6EoIYSkBYXoMQdd7+zs7DxjlOxyE0LiDjwIJ2ZmZuZ2vQ03DyhNQkhcsd52YEWYE1CMhBCSi3a9/XyAdcEJISRuRAWKQUTpTuQANLYNKE1CSFwI+84CRxWla1Hk7XShrQGkjZ+nWLhwoaxcuTLPqUqP93hMXnn1Fb+0/YBTDJYtWyZLly6RNWvWJL3meI7//POPX0q0XbVqVZ4vMBe8Ru7PeLhg39ifm1avXp3ntcTjoN5AHscWBfaR3/EQko7gsxSIEmK0Dy4q3fyWBBI54cST5PDmh8sJJ50ozVs0l7POPkv+/vtvv4WoQJc75e2BNwb0l9ZtWkuLli3kiCOPlKNaHSVPP/2Uv1bkk09HytntzvZLIt0f6yaHHnaoDBw00K9J5s8//5RWrY+Sk04+0a9JBuvxWG468qgjvfYnyaRJE/1WIk882VOu63CtXxJpf2V7OeXUU5LkCSDUE044XiZPnuzXEBIfAlGmEiKEadLc3CA6uqL9ldKsWRP54P0P5Nuvv5aRI0fK7rvvLhdceL734c2NuLYnfvnlZ+nRo6c83LWrjB0zVtMzTz8tQ94Z4j2/j7UNIjX3+a1bt07Thx984Nck8+FHH3pfHsu1TRT4myEiff755+Xjjz7W9M6Qd+S0tm3loosvllmzZmk7bA8JGmvWrJbZs2fLc88/l+fvnuNFlFvqvUDItgTe93m63qnY3NHlqK9GeV3TJfLA/fdL5cqVvZodpEL5CnLdtdfJ77/P8j7csxMNPTx9y9SpU+Sll16Ufv36ydy5c/w1CRYvWSyDvGjs2eeeleEjhsvy5cv9NSIzZkyX7777ThYtWiT9+78uvfv0lgkTJiS9Buh+jhgxQp7v/bzKbOXKVTJ48OCkrueCBfNlwIA3pE+fPrq/VIz+erTUr19PDjjgQL19HaL3xo33lHPPPU8+/exTv1VejjnmGJniPUccrwsE2POJnnL55Zf7NakpXbq0lC1bVlOVKlXknHPOlbJlysjX33ztt8hLcy+af+mll+Snn37yawiJL/BeEFGaJEyGW2MsaswPY6R69Z08mWT6NQmqVq0qI4YPl112qe3XiHz//fdyS8eOsmjxIhn01iA5/4ILgvG333+fKaeccrIXdX0kJUuWVJFde+01wfoxY3+Qhx/pKlddfaXMmDlDvvZEduFFF8qP437U9Xju11x7tTza7VFPhgu0+9vh+muk032dgn0g6jrl1Lby7Xffyp9/LfOO5RYVdtQXTpMmTbXLOn7C+KTX9YLzL5AHH+jsl/JStWoVOfbY46RXryf9mgQTvP0Uzywu++27n19TePSP7ol63droSBTsu+++0qZNa+nS9SEdlyQk7uQRJZbhD7vJM1wfJYWNYVXOKilRooRfygUR2E477SxZWSX9GpFp06bLW4Pekltu7igv9H1Bxy1neoIE73vd1WOPPVaee/Y5ufCCC6Xfq/1k3Phx8ttvv+l68Ouvv0nfPi/IHbffqcs9GzeWD/xuLi7p/Pbb7+S1fq/J3Xfd7XWTn5VWR7XSdQBd1XPOPUc6enLs3u0xufmmW6R3797SrXs3HRsMs/9++8ull14qF154oRzVqpWM/OTjlBMmLpDUCccf7wl8vF+TYLgX6Z504ome8PyKIjDp50k6Drz33nv5NXnZwdtx5wcfkhUrVnpd9+f8WkLiTQbGBu2nIIBGHX4+PwrTpqh4j+zn8ue0007Ty4pAuXLldPnXX3/p8orLr5Dbbr1d5sz5QyZO/EnFV7p0GU88uTPE+++/n5QvX17zeB4lS5UKoqevvvpSDjzwANl55521jPV77NFQ82DevHk6G7/brrtpZInxPkSaiBbRHQ+D7S+79HJ5Z8gQT9znS3dPqK28iK374939FtH8k/OPNGzYSCpVqiSff/6Z1uGxP/lkpFx8ySVJY4upuOWWm3UyDKntaW3lEm+7e++5N+n5RIEvp463dJT+b7wh06dP82sJiR/4XOOzlpGVlZUnkkyV35yUKF5C1q4r+MMPivuSBOZrO86ZM2fKJZdeIo88+ogMHTZMRrw3Is8sbkZG6p+6mOvJKHu37KQvAojDWLFihffi/SuPeaK77/5Omrp53XTIF9FYFNh+l13qyPled3vY0OHS+YEH5P0R78nLr7zkt8jL6jWr9csAY5Ho9iMKHfz2YNlzzyY6dht+TlEgkr3zjjvlrjvvlK5dusgnIz+Rk08+Jen5pOKwww6To49uI3fedZdfQ0j8wGelePHiWGYkfXAgnM0RLRZEnbp1g6jQBd3ZAw48SMf4CsMzzzytExdP9HzS61rf4UWXt+lYZWGpWaOGTJ8xQyeMDHdssZQXfWKIoMfjPbXb7ibM0IfBJNDXX+dOniB6P/TQw3Sy5u23h+TzRZSoP+CAA2TJkqUywzumzz79TM4+O3EaUWG+wHbffQ9p0qSJyrV+/QZBFF1Yrr7qGo1i+7/xetJrQEhcwPseSQ1pcgxLEvktJc1jPXH88ccf8umnnwQSwHLUqFGybt0a7eoWhhUrV0jFihX9kug+3VnvgjjssObyzTffyPx5iW40jsGdAd5pp5284/lXPvzog+A48UJi1j5KJt9887X06dsn6VQedNXnzJ0rlStXLPD1rVSxkhx/wvHS8baOXpd/hRx+2OH+ms0PJtLuv/9+L2LurpE0IXEg7EB8zv1QMlmS7gfeZLC5QRT4/HPPyQ033iQXXnSBPNa9m5x/wXnSpWsXnZCxsciCOProY2TIkCFy+RWXyhVXXC5XXt1eKlWqKEuWLvFb5E9dL7I9/PDDpN057bTLe9nll8qbg9701yYiyv6v95fu3R+TK6+8Qnr3eV7OObedV340ctzwvvvu97rQxbwI8mi54647pEuXh+TkU06SyZN/kUcfyX+c0uh4c0f5Y9ZsOemkkwvVbd6UHPK/Q6RFi+Z+iZD0x3We5Yt18hg/fpxGD+ii4oOIc/VwCk6tWrV0RhlpyZIlkdHPtdde7+c2nho1anoyOEm7tv/9t1722Xdfufmmm2XXXXf1W4hUqFBBGjRoINWq7ejX7KBRXrOmzfS8wfr16ssB+++vE0MNvK7wTTfeLE29dTg3s3r16iq63XbbTccMDUyYNPG6p5jAwXM86qhWUsPL40U6zIvgWrVqI8OGDZP27dvr6wOpH3/ccdqNXv3Pak8kLXQGHuO9YTC+0aZ1G2nWrJmOM+LxW3vlDtd10McFJbNKeseULfXq1dMyusi779FQatWspWX8XerUqeNt18rbvnRQh+eBLnUYHGNN77Vs0rRJ5DEZ+PJp2LCh7hvgNWrcqLE+PwP7OtR7Derssot243H8hKQDTz7ZI9JpOO8YLoBXMGF76KGHyg6eDNbjBONGjRpplxUffpw/+Mwzz+j42KRJk/SE7KlTp0budOqUxGk56YJ2o0d9Kf/zIilMpqCbfPudt8t6b/noo4WLAAkh2z71G9TJ4zQER5Dk3nvvrcHNl19+KTfffLN1vRMNrMttG2OJesvHAYjxiSeflPZXtddJjBtvukG++/Zbufqa3GuiCSHpSZQ4kVSUJkRbusk2RD4OoKs84I0BOi5YuVJlOfuss+XDDz6SunXq+i0IIelAfsGf+Q5tkAJRusstPWGwrYHhB4yDtmlztBx00MGRVwwRQrZv8gv+XCfCB2rE8AY4lcUaEkJInMGQZBBRumJ0I8q4dLkJISSM+S8D5/6h4AqR0SQhhCRcqBGlSRIVJktXnJQmISTO6BglJirCMjRxUpKEkLgTjFG6ESSWNkbp1hNCSNyA/4JZbxgTFYggIUlXkIwqCSFxBf6DC1WUkGNBgqQwCSFxwnVe0PV2sQZmUxBuQwgh6YzrPhWlK0SAPMVICIkjbiSJYcmkE84NCBJlk6flCSEkbmAiB3cRU1ECiyBNkCZJQgiJE+ZCA3cUCyJKE6TlgQmT0iSExBGb5E6azLFK4AoTWD0hhKQzrvciRRmWIcqMJAkhcQVjlHBgRk5Ojl+VECOSnYBOCCFxBhGljlGGf3wK9qQkCSEkIUp/GUx8B7C7TQiJI9arNsyFgSVR4UaTibJmCSEkFoSDRHNiIErXohZlOlWRuNsQQkg6Ah/m6XdDfq4AkQ9b1khVTwgh2yOpgj8VpSvDsCgpQ0JIXIDvXOeZC/N0vVM1JISQOBAVKAYRpY1LupIE4TIhhMQF+C8Yo0QBJ5kb4SiSUSUhJH4kvBfcZg2kkiElSQhJTwrqLeeeLhl0vRFVYhkWI+rZ/SaEpB+FDwKTIsqwJEGqekIISUfCgSHKGdOmTQtWhJeEEBJ39KYY2dnZfjEaypMQEmeCWe9w1xoGtTosIUl2vwkhcQPuQwrGKF1gUEaShJC4YwFiEFG6EaPlTZIoU5iEkHTH9SDQaNK63rjdOQphWVqyMiGExI08J5y7EaSBOkaThJC4Ah8mjVGaIKPkSFkSQtKdKM8lXetdEOx6E0LiSND1diPJsBApSEJI3FFRuncOAii78iSEkLgS2fW2PJZuhElhEkLiSkZOTk4gQUgRyQRpeVtHCCFxJCMrKytJiOElIYTEGfjR634nnSEURJLAIktCCIkj5r9kS3q4csSSkSUhJC6EA0PzXyBKd+bblSMjSkJIXAgHhhYsBqJEAQkrLFkdIYTEEXNgIEqLHF0xmjAJISQORPkuuDLHrGmNcDchqyOEkDjiSjMQpQvucA4YTRJC4oTrQssHV+YgtLRKyNESIYSkLwX3mOFBuFFFCWParLdWOudWokxpEkLSj4K9Bv8FY5QAFUjALGqStHpCCEl3wr5DOWPt2rWRESPqKElCSJww74XJQKXNcoOoRoQQEkc0msRkTokSJQKLImEFo0hCSBwJu8+8GEzmpBIkGhFCSJxRUYZlSDkSQuJIlPuCiBLT324Ddr8JIXEklfdUlK4YIUzkTZwUJiEkzgQRpWGSJIQQknAiLulWUdq13QAr7JJGN7IkhJC4YN6zwFFFiVlvdwXylqyhLQkhJN1xfYfzzFWUJsko8ltHCCFxIGmMElgkaZhZKUxCSLoT5TnUBRGl28W2BChIQkhcMO+5oC4jJydHMyZLd2mNCCEkjsB/OkaZlZWVR4Z2b0rAiJIQEhfCvkN53bp1mPDOvc47KooMS5QQQtKBKLelqgvGKJGiGoUNSwgh6UBh3Rbc4TwsSESZhq2LkighhMSBQJSWrGyYdRlZEkLihvW0VZR2yaJV2pIQQuJGlPuCiNKNGHHtt5UpTEJIXID3XBcawWCkrcTS5BgWKCGEpDNuYGguxFJFaacIASwtT0kSQuKG60JzoIrSvc2ai21ACCFxBR4MxigNGNQsiiVlSQiJM3lEiaVW5vOrjIQQEifUidOmTQt+XMwiSDeiNChNQki6Yx60PNyoV+ZkZ2drpUWQWJmZmal1Lq40CSEkHXEDQuQxfxPc4RwZABliJQxqUJCEkDjhyhKi1IjSLweSxNKdBbdt3I0JIWS7pxBOgyThvkCULslRZGJnjCwJIWlFIZRm3lNRIoKMihgtwiSEkPQj2m2u85APxihNkmEposwuNyEkrsCBCCRVlGFBuvejJISQuBAVHMKHakSEllhJQRJC4kxUD1rdiAxmdmBSiyzDESYhhKQfhR9WTOp6W9gZtmqUZQkhZPum4IDQ3KeidOVosgRYmkStjhBC0oNop4V71Chn5OTkBGOT7hilSdKW4Y0JIWT7JtppblBo7svIysrSMUobpwT4wW/LU5CEkLjjBZG5dzeHLA12tQkhcQceDE44R9SICkjTut8WSaKe0iSEpB2F8Bo8GJxw7o5NYoWJ08qEEJJ2FMFtakg3YoQYXXECypIQEmfUiOEI0hUnu92EkDijQ5J+XrFoMhxhUpaEkLiiXrQMgCQx8518415KkhASH8yHLkljlBY9Rk3uEEJIHIgKDvN0vcNSZERJCIkzcGLQ9UZyI0vDrSeEkDgB/+l5lGvXrk0SIfI2Rok8kitOQghJd8x58F+JEiUkIxwxIo8xStRTkISQOGJOxFIjStgSM92oQIIcbTLHyraOEELSmXBwaP4LZr1REdXIluF1hBCSbkQFhMG13pCg2yB80nnUxoQQkm6kChaTTg8ycD9Kg5IkhMSFsO8saAy63sDsaWVKkhBCQlfmhLvcEGc4FCWEkLgAH8KBkWOU7rXehBASF8KBoZ0qGYxRug2QtzK734SQuGC+M/9BlJq0FCLcBSeEkDhh/sPv5WByW0UJMRpmUizDdiWEkDhhQaMa0v2pWmBX6lgdo0tCSByxIDIjJydHM64MsdKNLAkhJK7AgRlZWVnB73mHI0gsGU0SQuIM/OgFjxmSmZmZJEQ3mmRESQiJKxYs5pn1RiXkaOJ0BUoIIXHCAkUVJQrW/QZunhBC4oYJ0gJFFaWGlv40uFY6kzmEEBI33J40fBh0vU2MiCYpSUJIHIlyn07mWAagEUxqySVcJoSQdCPsOTgRKeh6h+VoZg0vCSEkLpgTg643IYSQvARdb2ARIwzq3mbNjTIJISRu4MYYKkpXkgbySOxyE0LiQpTvUBeMUVqFK8twmRBC0hkLEF1Qzpg2bZoWwiaNMishhMQFONBSRnZ2dsKYGYnhSl6VQwiJMxYkWmQZTOZghStIawjMqIQQku6E3QdZBpM5KFiKIlU9IYSkK/CeBYoqSr2W0b++27rgJkdKkhASF6J8F4gS502Gxyax0paUJSEkjsB9SInw0cNkaII0UB+uI4SQdCTsOpSRgjFKq7CyEdqOEEJig7lQRRkWJMrIJxJNSQiJB26QCMyFQdfbwAqMV2KZEGjyhoQQEhcgSXhQRWkz3cAiSSMhS0IISX9c31k+EGV4ZViWhBASB1zvIQ8f6gnnOTk5gRxtCVx5EkJIXAgHiXBhRlZWVlAwWbqENyKEkHQm7EAVJcYnw4K0k8+tnrIkhMQVFSUyECGSCRJ9cmCSdCVKCCHpjBsYIh/cFMMuYXRnv4Ft4G5ICCHpCoLCcGAIPwYRpSvJdevW6dI2YERJCIkDUUEh3BjY0WRooabh1hNCSJww/wURJRIqkVwpWt42IISQuGBeTB6U9MAKd9abEELihBscWsrT9caSUSQhJO6YB4MxSqvA0k2EEBJ3AlG60SRSbtebUSUhJL4gYIQDM9auXetXJcAKGDQhzdxokxBC4oAFjIaK0irc7jbqKEhCSBwJuxBklChRQjPobqPSTcCWhBASR4JLGCFDN4K0MUrAyJIQEheiAsPgEsZw9JjcmBElISQeRAWGSZcwuv1ytzGcyaiSEBIHoiJKvWEQMhCh24BiJITEkVTuS+p6WyNKkxASR8x9rgORV1FmZmYmRZXokxNCSNywwNANEPNcmQPQAH1yRpKEEJK4P6+KEucJQZauMIEbZRJCSBxBjzvoY0OIYTFaHWCESQhJd8x/4QAxSZS2MkqKqXZACCHpghsYuq7LyMnJSZwnhAFLfxLHvTIHuBswsiSExAGTJVJGVlZWkj2xjPrNHEIIiRNwH9yI5AWRGZbRlci7WDlcTwgh6QycZ4FinjFKSwby7gaEEBIn4D4VpRs1IrK0MUpGkYSQuBEOCtWLyFjUaHkTpW0Q3pAQQtIVN0C0fJ6uN1a4DQkhJG6Eg8RAlK4g3QiS4iSExAXXfQb8F4xRWjQJwqcHRW1MCCHphjnQDQ4DUZokU9k0CsqTEBIXgojSFWJYglGyTCVQQghJF/B7OcHdg1yipMnokRASV3DKZND1dmXo5sPiJISQuAAXqiinTZvmVyWIih5RR1kSQuJKRnZ2tp/NBf1yF0qSEBJX9O5qfl7JT4hRkSYhhKQjpjtzYjBG6S7tTkKEEBJH3JgRXlQjhiNJdL0ZQRJC4owKEhM5NusNUaISCXlL1pgQQuKGeTEYowzL0V1anhBC4gb8F0SUAAWTokWRFmUSQkiccL0XRJS4RAcFuw9lFIwsCSFxJGmM0lIqGFkSQuIGnAj3BV1vEJYho0hCSBwxQZoTVZQILa3CXYklZUkIiRth92Xk5OQEYrQVZlNCCIkTYRcaGVlZWXqCubsCeUsUJiEkzsCPXq87cea5a1Kb/UadK1BCCIkT5r9g1tvkGD5NiBElISTOJJ0ehIKRqp9OCCFxwA0QkVc7WiWWkGOJEiWSyu5GhBCSrlhwaEtzXyBKrLCV7o17bR0hhMQNc1/Q38a4ZJQUKUlCSFywCNKWRiDKVA3CZUIIiQsIFJFUlJjIsQpQrFgxXbrRpJsnhJB0xDxovkOgqOdRWiG8wiJJt54QQtKdhOtyfRecHuRKEGK0K3VQT0ESQuJHcm86Y+3atZpxTzJ3z6m0iJIQQuKCGyDCjRlWATla3uToSpLCJITEBdeB2vW2k8sBKiFLiy6Rd81KCCHpjknS/BdM5gBXioweCSFxxfVgEFFqjUcqObp2JYSQdAaeC7sQdbmzNh5hGaaSJyGExAETZ3B6kFozIyFGjlESQuIIpBjlvFBE6WccLKpkdEkIiQOuLJFHUlGGJega1fKMLAkh6Y4rSNd9Ksp169YlidA9+ZwQQuJCOJpEPjMzMyFKTH9bVKn29E8+D0eahBCSzoS9h3zSeZS2Ekt3MocQQuJCVHCIu6mpKCFEV44INV1xuktCCElnwgEiyhk5OTmacYUIaVrj8JIQQtKVKM/BiRlZWVmaQQNXkAYjSUJIXIDvws6DFzMwcWPdbuRtGW5MYRJC4kA4WERZzWgWRYUlq7e8LQkhJF2J8hzqgllvIyxN5AkhJC6EnYcedhBRmhTDjcywFCYhJN2J8lwQUZoMbWm/meNuZOsIISRdSeW5pDFKJDQ0QVKOhJC0xQkEXeA9133BlTmuHAEFSQhJe1J4zoJGYG4MROkmrMCSEELiDlwYdL1dXEmG1xFCSFzQaNJmvYEJMbw0aVKYhJB0x/WcGzAmdb3dvNuIEELigOs9SNPKGdOmTdPQMixGN7J0NyCEkHTFjSgN7XpnZ2f7xVwgRVeMyEftgBBC0olUAWHQ9TZSCTHVDgghJF2BD/XuQX456F6HhUhBEkLiQlSgiLpAlMBtZPmoDQkhJB1JFSiqKCFDq3DzLhQmISSOJHW9U2HSjJInIYSkE25ACOehHJxwDmO6DbAiDCNKQki64waEcF4gS7cCpIocU9UTQkg6k2fW2whb1RIhhKQzYc9BkvBhIEo3onRF6dYTQkjcKFasWHLXGykcPdo6QghJd8yDhv3aQ0ZOTk6eyRyKkRASR8KBogWPGVlZWSkl6dYTQki6E44o161bp+UMPUcodDqQ2xD5sGUJISRdCQeOwRglMBkimThNkq44CSEkLmBYMjg9CBlbQooINwElSQiJE3AeMO9Zj1tFaZEjKqwhsMYUJiEkTpgHLYgMut4QYZQMKUlCSNxwnadBpGWArXQbWd7aEEJIuhP2XdD11gFLr+uNfJQUXXkSQkhcCCZzjCgZMpIkhMSJKOcFoswvmiSEkLjgBozmxKQxyvAS2EYUKCEkDoQ9iOu9M9auXasyNCG6eYDGSG4dIYSkI9Cc60L0tPXKHFeMWJoYw0TVEUJIepE8/IiJHI0oS5QooYI0SQJEmWFMpoQQks64rtOrcpBQsCjSGmRmZuoSWB0jSkJI3ID/gtODTJQmQ/TJCSEkDoR7y27QCFAOTg9yV9j1jcDkSQgh6Uh+joMXA1GaQU2WlCMhJI6YC82BVk7qegOb5TFMnoQQEjfMfypKFKzCDOririeEkLhgQWQgSosoAabDDWvorieEkO2fgp0GN+p5lCiEJeiKEjCaJISkH3m9FuW64DdzMC7pNnBnvQFESlkSQtKdqKAR7gtCR7eBK0oKkhASZ+DGjJycnKCrHbYpYDRJCIkLYdeZ/zKysrL8qlzCY5RoHCVRQghJJ8Kew/gkfpXWc2KGdrVtnBLJfq4WmGHDpiWEkHQj7Dn4Efe+0NARBSQ0wjIqemRESQhJd6IiyuD0IOBGju7dg2xDRpSEkLiBwFGXVoAQbRk+PQgwoiSExBHtaSPjjk8iRV3rbUtCCIkLQRCJgkWQkCEqGT0SQkguwRilAWm6orQ85UkISXcsWDRQRgpEWVDXuqD1hBCyvWOSdH2HujwRZRgKkhASJ+C8cA86UpTsZhNC4kiUJFGnosQKW4llOOx0l4QQEjcypk2bphM47sy3e3qQ4cqTEELSkXBAiDJSRnZ2diLjn4EexgTJiJIQku6kCgjVjlhZkBAZURJC4oadLhmI0gQZFqLVM6IkhKQ7Yc+hDCeqKMPdbleWlg8LlBBC0h2IMrh7UFiCuLUQQCNGkoSQuBAVJAb3owxjN+51N6IwCSHpjus5y+sdzpFB1zuVFK0+yrSEEJJOhH2HZfBzteiDQ44myCgRRpmWEELSCbgN/jPHWTlPRIkVUSKMkichhKQbUf4LxihtAgdCtKt0gGtWQghJZ8IBoZWDiBLdb1SGI0prGN4BIYSkG+GA0MoZOTk5SREkhUgIIblAlhlZWVkqylTXehth0xJCSLoRFSjq6UEQJCToRpU2XkkIIXEiKiCEI/OEkWhoVnU3YpecEJLumOdc3wWiRAYrLBnImyyjTEsIIelEKs+pKNetyz3hPCxLQgiJC+Y+c6GhooRETZThBoQQEhdc/yEPdLLbrUADS1aXCsqUEJKOhIPFYIwSK2BNW+lK0urCYixIpIQQsr0R5UDkVZRYiYKtdE8Vsjp3Q0IISUfCnkMZflRRhnFFGY4kCSEkDsB9SMH9KE2GWMKgZlFghrUyIYSkK2EXAr0f5dq1a7UAsBLJrtaxOkIIiRPmP4B8hsnRBBnGNnA3JISQuKBuLFGihF9MDjeRJ4SQOBEVEGpEaRlXkJjMidqAEELSGQsQ3UAxzwnntnTvHhS1ISGEbP+kDgZdJyIFg5IQockw6jxKQgiJC26AGPwKIwoQoitIwzagMAkh6UXqXrLrO/xMTtD1hhBt1tvk6BJVRwgh2yuFDf7QLuh6A1QgRXW9C7tTQghJF8yHSaJEiIlKSpEQku4UppOMnrT2tlGAGJHsihyKkhCS7hRWc8FkDkAkafbkeCQhJN0prOeSut5uJElREkLSnSjfhetQLl68uGTk5ORoheEKE0vbgPIkhKQTpjTzHQh7DmW9zVpWVlYgR2tvG6KRuxNCCIkDrveQz8AEjln0v/9Sj1FSmISQtCJCafBc2HXwYTBGaXKEON3zKKOkSQgh2z0RbosKFDWi9PMqSGvkGtXyFCYhJJ0IR475kRRR2oZF2QEhhKQT8J8FjYaK0rradi4lrtAxrDHlSQhJJ1L1kS1oNOehrKI0g9qVOS4UJCEkHSms2eBFFSUyALI0YRooE0JIupHKbeHgMOnKHIAGSG7XmxElISQ9iXZblEBVlOEVrhwZURJC0pPCuy1JlDaZE4ZRJSEk3UjlNdSHPaiitEkca0AxEkLSncJ0luFDHaOcNm1ankjSHaMkhJC4YcGiBZAZ2dnZWmGg0v25WkIISUcK23FGEBl0vVGwqBK3FSKEkHQmVc/b7V0DjSiRsfMmURHVKFxHCCHbPRFeg++QXODHYNbbFaLb9aYkCSFxIcp3qAtE6TbA5A4hhMQRcyGWCCCDK3OQsXDTGrnhZzgUJYSQdASuM99hCR9mZmYmRGm4UaXZlBBC0pO8fnMdCFDG6ZIqyrBFjfBGhBCSPhTeb8EYpY1LIu8KklElISSuWBAZiNIqQXgyh5ElISROuM4LJnPCpwO551W6S0IISWeinKdOzMnJCeyJJaRpjVC2RAghcSDKdxlZWVl57BnuehNCSFzIE03iyhz840aNWLoNQbhMCCHpiHnQ0PFJu4QRGcjQIskoMYZ3QAgh6UbYfTiHEu5TUUKQZk6wdu1aXRpRUSYhhKQbcJ0bFEKUcF/CjB7WAJXuhA4FSQiJC/Bd2HnwoorSXYlKRJdmVVsSQki6k8p7QUTp4hrVJEphEkLSCsdzYcyBWAaTOcBdYf1yl3CZEEK2awoR/NnFOEkRJaLGcOjJSJIQEhfCAaGdPhmIEuOSUVEjI0lCSFwIB4jwn54RhEJYknaaECGExBHzobkwA+dMuhZF4u96E0LijDnRyEAFrJkqogxvQAghcUK73iVKlNCCK0RXmm6eEELSh9Ruc72HmW8NHVGZSpRWz8iSEJJeFOw0856KEl1tJFSmkqYrT0II2d7Jz2muA4MfFwPuCjdPCCHpSJTnogJD5FWU2ADJVkbtgPIkhKQ7qdwXiBKStEZuY8u7hiWEkHTGdWAQUYJkIeY2MtwNCSEkHbGA0A0MA1G651FCiBkZub/KGLUhIYSkC6mCQNSb91SUOKESoNIVIvKMJAkh6UxUEOhKMrjWO3wljl3C6DamMAkh6Y55zvWenj6pJQdXjiC8ISGExAV4T2WZk5OjFSiYJF0pUpCEkLhhASKAAzOysrKCQpQUTaCEEBIXzIXmP6/7neh9Y4VVhsVo6wghJJ1xg0U4D+U8Y5SoxJ0yMjMz/RpCCIkPFhCaJC2vonQrwLp163Tp4pqWEEK2f/I6zTwXdqKK0n5pLNwIUJCEkPQk73CiidEw/6ko3Z+nxcmVbmPLh3dACCFxIYgogxAzIyOIMEFUlEkIIXEhmMwxSZoM3TFKRpKEkLijogSQZFT0aHkIk9IkhMSRQJQmQSyjTg9yRUoIIemMBYbmvKDrjYSJHKywuwkB1BNCSLoRFfiF60yWKkqI0RLGJ02YhBASJ9zA0BwIJ2ZMmzZNatSoIRUqVJBy5cpJqVKldJaHEELiiAnSpIllRnZ2thZsJZZR0SS74ISQdCJKaXBfOKrE6ZJ5JnNAVEQZJU9CCNleiVJadEDoX+ttWKNUUSUhhKQLUUqM9p4/mbNixQpZvXq1DlricsY1a9boBhBntGEJIWT7BY7z5OaXUgP/BVfmQJJWCVyrMrIkhKQbK1auKLTbgjHK8AY4Pcgdp2RUSQhJJ5YtXZrSa1ECVRtiAyRrEM4TQkg6sWDhgpQRpes8tAkiSose7URzV5SEEJJuzJw5w8/lksp5wRiliTIcPVqZ0iSEpBOTJ//i53JJ5TuUE4b0UXP60rTG2DgsUJe//vrTzxFCyPbBvHlz/VwucF6UJIOutytCdL9dwhuGWbxksZ8jhJDtgxUrlvu5/IEbdXJ7+vTpWoAQbYzSokqQXzQJlixe4ucIIWT7YMXyFX4uOpJ00YiybNmyeRoVJEeXr0d/5ecIIWT74Ndfp/q5vL4zH7r1GWXKlNEKJGuAZWFlOeGn8X6OEEK2febOnSMLFy30S7nAe27QaHmNKIsXL64FF2tgAgXhnRgcoySEbE/8/PPPfi5BlNdcB+r9KDEeCWO6IgxP6LiEd/rjj2PybU8IIdsSzz3/lJ/LSypp6qwNboThRo8gXDZQ5+4MN9T48cexfokQQrZd4Lpff/3VL0Xj+k0lidMmUYg6dxKgbMK0deEl6NWrh58jhJBtl+XLl8vChQv8Ul7gtXACakgrmBDdMrCyLYErz2++/cbrx6/VPCGEbKv06/ey/PPPP34pGddvLnBdEFGikdsw1UYG1ptIFyyYLzNm5L12khBCthUgyHvuvdMvJYjynNW5SxWlRYcmPsMtp9ohJoJAhw7XeO05qUMI2TaZNGmin0uc8gPMca4U3aWRGJz0wAqLLG3MEoTl6e7AXffNt6Pl999/90uEELJt0afPs34uF9dnyFsydCIHCYXMzEythPjchvlJEiTKuXV9+jzn5wghZNthwoTxMuDNN/xSXsx7lqwODsRMeW7o6GEN3IjSsHUgOe9nPJ5+ppdMnTrFLxFCyNYHsuvVq6dfSvjLdZhX4y9z3Rb2XVLX25KJEnmLKpF3ly4WkYJHHu3i5wghZOvz9dej5a3Bg/xSYnzS1Rjy5r5EOVmkevcgZNxKN29dccPNG8mdc5EhQwbLiPfe9UuEELL1gMNuve0mb5k80ezHf3lAkAjPWQIIBIOI0iJHLC2i1EHMiA3dsqnTokrYt2PHm+Tvv//WMiGEbA3URbfemDTb7fZ+w7heM+/Bh+pENLBKgErszBrrnTNCwjRMrsDbnZ9L3J3jggvaJX47lxBCtgJffvm5vPzyi34pFzOV+cxN5jmNIr28TuTAf9jAhGdLrACQpG2AjYEtgZvHo2cWy7X15198Jj17dk+SKSGEbAlwv8lTTj1B7/xjJKLJ9c7UTTLwGRJ8FxblDmvXrl0/bNgwqVmzppQuXVpKlCgh33zzjYwaNUr22msvmTp1qt6WCEtshAT5WVq6dKn/MAZuS/Svnxfp2vVRufyyK/0S2ZZA12TKlMm8/LSI4MOUnV1PSpUq7deQbQn8Hs7hzQ+WJUtyf30h0UtGMOhXeFSqVCmQowWF8F+dOnWkSZMm0qBBA/n888+lU6dOCVG+/fbbUrt2bcFNfNFwwoQJMmLECDnooIPkt99+k4kTJ3ofqClqZ4gSHzAT5bJly3TpgjLaATz4Q50flksvvULLZNvh22+/ljcG9PdLpCiULFlKOt17n2RllfRryLYALqdGJOn+ymKxYugRZ6iXIEUjLErcm7dkyZIqyqZNm0q9evXk448/li5duiSfHmTyq1y5sqxevVo3hjgtDHUfBCQexO+CO+vcdpBrx1tvSjqPiWwbcFBkY+Crt62B3+puecSheX6KNiMjcbmi6yX4zEA9ypYgTCT4Dz7UaBQR5VtvvSW77LKLdr3RYOXKlV6Xuascf/zxMmvWLI0wEVVicsaNKsFff/2ViDD/w3QO/vNYjx8py9C2LpdecoXce+/9GrmSrQ+73hsGPljsem874H2M3tFxx7fxa3IpBsn5eTeihATLly8fyBHlrKwsdSAiSXS9EVm+99578thjjyVE+cILL0jjxo1VYLAn0m233SannnqqzJkzR0WJhLtvQH5I1v3G/d3+/XedivI/rxwmLMudd95ZPvzgU6lZs5ZfQwghG879998jvZ56Io9r4LEE8JInSP0/N3osV66citO63RAlfmyxfv36sueee0qtWrXkgw8+kEceeSTR9cYDWJSIBKuaffFg6H5jRxqCenVuwoOotb0HRjkMtsFBGfPmzZMWLQ/xLP2oPhYhhGwIkyb9JG3aHCE9ej6WJEmMSWZm2t2B0ANI+Ecl6a2DszIzE78V5roMroLnME5pkq1QoYJ6Svdw+eWXJ03SmGEtD1HCttgYZYjPpIjBbJwWlKj3H9T7zx3CQb0dOMBs1IOd75NatXeUgQMHpLyRJiGEhPnll5/l2ONay2GHHyzf//CdX5sAHvJ06OUSfoKmLOhDvliGF9h5bRITPAlfwWcmSXgOCXnM02C+BkOOQahn3WrIEssaNWro7+Fgp+7GriiR9t57L60voesSEaceY+I41egorF/vRZ+OLAEe84r2l0jzFv+TNwf2T5rOJ4QQA7IaO/YHufqaK+SQQw+Qb74Z7a/JBbLTIM373+I09ZQfwMFPJsTddtstcBic5oqyVKlSusSpj5i7gTADUaJgEWVOTo40atRIxycRTSIUxfilK0sT5k477aTWLe61gyzxgKhHwuHCmwBLZLEeyQUnh7Zvf5nUb1BHrr32Svntt1/1heGNgAmJL+jl/vnnn3p7tJq1qslRrVpI//6v+WtzSXKK+SaxULywTtfDXZYaNKifJEnzHCRpopw7d67sscceGjgGosQBrV27Vg8OkmrWrJnMnDkzMCwGOW0HJks8EOqb7bWXlkt462x9wtbuuKXTF/ey9uRy1yd47fVX5YAD9/b22UiOaHmY3uMSM7P/ecdFCElv/ly2TEaN+lIuvOAc2Xe/ptJ4zwZy5ZWXqpdc4A0M+QWCdP3iB2gJB6Enm5Ckneq4zz77eN4q5zkrMV6JdeY5zM9gCWnCiZh81q47Zr2x62effVZ23313nQnCDqtUqSLXXXednH766TJ79mz9icf58+fr6UDokqPbDKGefdZZMn/BQpkxY3pw9c5ar36tP0GEGfFEpKrPIPGgITkCrNaZ8/+ihYiIFqdk7FR9J32Spb0ybF+t6o5StWpVL1WTKt6ymrfEEyeEbDss+3OZLFm8WBYtXuQtF3nLxZ5XZunk7t9//6U30Zk+fZpeVZMKjC+iG10Q5heLFuEDS9WqVZOmTZvoJM3QocNUkJAjThWqWLGi7LjjjupBDD2OHDlSr8pZuHBhrigNXL6IjSGfvn37arcaD4gfD0NXHE8ICedaQpYWhSJZ192S4eYJSQdSfeGTbQP3b4O8m+AziyQROSI4hDghSkSQOI9y1apVKs/mzZtrcBh0vQ30xyE9WP7EE0+QH374QbvX2Ag7RELZQlTrasPcdgA2Rhk+QKRU5Lc+v+1ILnydthx8rTc/qZwQrrN2UclchAQ3wVNINiYJj6G3ioQ8/IblL7/8Ii1btlRhwod5RIlJHaxYvXqNZ9caWodvT4gSOzNZIqFsssQDQ5gmSxOmHWz4CYSTkWpdqjp3mYqC1hvu/qLyYcJtwsnW2TJVctdH5W0ZzlsZRK0rbNrQ7ZBsW1u69YZb57Zx6wy3LlW9Ld02UfVuym9dOKVqm6q+oJRqOyNqnSVbb8twPioZUfVRy3CdES67FLTOXW/lVHWpkhFVH3YKsLwrRkvWBYen4CuTJII+S3AZvIZeMpZoh8ARKU/X+/3331cpohESLmEcOnSo7L///jq5gytxMEZpybrgECwewCJS64pbdxxgGdUNtzp7wiDcDuuitg2DNm7b8HZWjnosq8uv7G5r9SDVtmHc7UG4vL3iPu/8XoONeb7p8lptLvJ73QuL+xqH80bU/vPbLqp9GLSxxyhMe8O2s22wtGTCtGTRpLnNIkn4DqKEHHfddVftRV922WUqU0SUmIvJI0qAWwuhEXaKwU0MaGIWHELE3YKwhCAt4XSisCyxdGWJBPCk7AUB7pPMfaGQ12we3G0LwvbtPgYIl7dH7HkVhPv83aWtA+5+otoZ1h6E1xlR221ONvbx7DlFPdeNfR6JXSfvP2q/hanbFMeztYl6TmGi6kBB9e4ySpCIKhFRIkGSNsMNQVq3G3cTQsSJuZibbrpJTw+CJOG2SFHi+kbYFTuFMMHdd98trVu3lkWLFqkQkWBbJBOlK0sTJaQJSZo08ULZi5XqD496e+Jum3B7a5dqP9sKdoxRS5eouk3Fhu7bjrUwWLuobVLVgfB2bn24zoiqSxdSPTfUg/yet9vG9mN1YfJbF6awbe3Y7LELItxmQ8qWIEVbIoW73W7X20SJpSUEhQgSH3rooeDMHvgMwWCkKAE2wA7xIJgRGj9+vOAGvzgRHTuACLET25krSlgY661/b91xiyzxIloC4T9AVBkJL0J+ba2N5TeEqMdwcde7j2X5TYk9VngZXhemqPUbix3T1sSelz1HO6ZwvZHqtQhv52LrgPsYwMqFqXfrgJsHbjtgZRd3f1uLVMfgPpcowuvdsuXDdam2sXUmSYgxLEkTJSRpokRCEIiEOkSWuPcu7piG04PQc4bDEAhiyDGlKHF7IfTd8SDYEabOhwwZoncRwt01rHuNBDFackWJ5IoySpYgvARR+YLaGVF1mwv8cXIfD3+0xOPbH9KIqisKyY8Tje3f2tk2bv2GHEN4v8D25S5dwnVRbbYW7nG7uHV2rPkdd2Gfk9sunDcKs59U2H42Zh+bAntu7vMywuvcNuF8qjbhequzCBJ5EyTKJkkTpRtVIlkeS/SUcbegtm3byuLFi9VjSIgs8QsPKUX55JNP6q3XYFw8MHaIcysHDRoko0eP1p+JgPCse+2KE3nI0uqRUonSTYbl86t3wf4AXqjwunC5qGB72y+WhSHqOECq7Yuy76KQ6rg31ePZfqKe69akKMdkr4O13xafz7aE+76xv38qota5dZZ3l1F1tgznLZko3WTRpBtVIg8pumUscY447j15/vnny4IFC4LgD9HktGnTpEOHDqlFCV577TX9LR1IEjvEg+AE9E8//VTefPNNnQnHOhOmJROjK0gka5dKlEjAxAfcemD5qDoDZbyAUW1QD8LbbE7CxxImar3V2fFuCgpzHJsL93ELOo7tmU39N9tcFPY47W9lbcPbhde7FFRn+VR14fVuHWRoZZOj5SFAdwl3Wdmtw3GPGzdO/ve//+m9d3HlIZxlveNjjjlGHwvkK0oDYoQQ8SCQJSZ6EKp269ZNo0zciQMPCsG5yRWkm9y2yFsCUeWopVFQGaDOXuCo9WGi2qOcqn5zYI+3Mbj72BTHGbUPq9vYYwX2+m6KfUXh7tceJ7zcXnBfdzcfhfvc3Oe7oRS0bdR6ty58DOH2KIfXucuoBPlFJRMj2iBvbXFnoEmTJskll1yidzOHz6z3G5YkKJQoAa57hIWRIE0MhmKSB11xrMMvluFOQgAvAlJYjFFLN6HOtgdWBqjDk7R1towi3DYVbrtw+1T1YfLb3rD1LlF1IFW9EV5fUPtNAfafeBw8XqK8MY/pHnNUHsvCYm2Lul1B5B4X9pn3bxtVTrRPPiYQXhfOu+3d9S7h+lTtNif2eO7xpqIo61AOPx/Lh+ssARMgkuWxjMpbQnca8yzVq1eXq6++WsWIWW0bMsQSl2ifddZZ+hhGoUX58ssv6/S5dcEhSyR0xTHbja74999/rxFmdna2TrfjybspSo5IwNaF8yCcxxN261xsveGWU60L78uti1ofJtU+gFtfmMcCbjm8vZFqv26bKNAuvJ+obfK203+DuoIeZ3PgPkfLbyjhfdnzKWi/bvvCHENh92uE9+9u7z6mmwepyrY9cLd1cduFtwEFrc8PtC1om6h1bp3l3aWbwjJ0y8jDJ7ixBX5JFqcEXXTRRRrY2aSNzadAkqjDjTpuv/12fSyj0KIEdpMMEyWWeGBEl5ghx4GNGTNGu+p//PGHShXtcScidNexDdrghUslzXCy9oabDxNuu6nAfkFR9h21DarCu7Bjdtu7dcnb519ORX77AwXtw90euPnNRX6PEV4XdWxYbirC+3Mfa1tjY597Yba3NhvyOiQ2yf3bhbF9Gm4Z+YISjgXiQ1QIOUJ8AD8/e9xxx+ldgXD7NAR3OP8bQ4MQJISJ7ji64lEUSZSgZ8+eGllCjiZLLBFBWh1mynEAuGM5btGGWSVY2q7qwTo8KdgeMrVvACxdUBe1NBJlCDWRT/UHc7ezP7D7h95Yoh63qPtP1X5THqeLe8yFeT0Kexyb63hdNtfrsaH7dbdF3qWgfRbmcTf2NS3s9uHnUdA2WI+EtobVIdnnGUFRQdhEC7Zzwb5t/1javAcShIglnGJ5+AinMtauXVtPY0TkiFur4RggRrTDEnK0KBJd73BXO0yRRenSr18/lSMOzpYQpeVtINUVIsATtoO0sNeevK13E8ALGO6Sow5l+8MAt324rS2RbF+Wd9chRf2R3f0Z1r6wWFv3uUTtw9bZMeJ4kI86BiPVPtx6d7/A1tnztbL7OKke063HdkioQ8Lzs3256wCW9njAXmPUu9tYe8sj4T1i+7Y6ey2RUB9+rdx9RWHbhfO2xP7s/Yv3KurtGBCJ4L3uPibqLW/P0+rtubr1wLbBeqxz94E86mxblJGAtXHbGm7Zjtdw6wF+1+o//OS0vx88nvuYBtYZWOeWAfaLv5F9puEAvD6Gexx2fFja5z/qOK0NwN8BZewXnsESvVokXIqI9WiLZDLEfuEZc43VQ7CnnXaa7jd/RP4PMZvhkNWMLqMAAAAASUVORK5CYII=;" vertex="1" parent="1">
          <mxGeometry x="610.64" y="173.5" width="98.71" height="210" as="geometry" />
        </mxCell>
        <mxCell id="wkWaENmz2FaomDUTFkqX-33" value="MDM" style="rounded=1;whiteSpace=wrap;html=1;" vertex="1" parent="1">
          <mxGeometry x="619.99" y="197" width="80" height="170" as="geometry" />
        </mxCell>
        <mxCell id="wkWaENmz2FaomDUTFkqX-34" value="" style="endArrow=classic;html=1;rounded=0;entryX=0.978;entryY=0.453;entryDx=0;entryDy=0;entryPerimeter=0;exitX=0;exitY=0.5;exitDx=0;exitDy=0;" edge="1" parent="1" source="wkWaENmz2FaomDUTFkqX-32" target="wkWaENmz2FaomDUTFkqX-15">
          <mxGeometry width="50" height="50" relative="1" as="geometry">
            <mxPoint x="600" y="270" as="sourcePoint" />
            <mxPoint x="490" y="270" as="targetPoint" />
          </mxGeometry>
        </mxCell>
        <mxCell id="wkWaENmz2FaomDUTFkqX-35" value="Mobile disponÃ­vel para uso. &lt;b&gt;SIM Card&lt;/b&gt; nÃ£o poderÃ¡ ser usado em outro dispositivo." style="rounded=0;whiteSpace=wrap;html=1;" vertex="1" parent="1">
          <mxGeometry x="600" y="444.12" width="135.64" height="88.25" as="geometry" />
        </mxCell>
        <mxCell id="wkWaENmz2FaomDUTFkqX-36" value="" style="shape=image;verticalLabelPosition=bottom;labelBackgroundColor=default;verticalAlign=top;aspect=fixed;imageAspect=0;image=data:image/png,iVBORw0KGgoAAAANSUhEUgAAAQ0AAACzCAYAAACTpUm5AAAAAXNSR0IArs4c6QAAAARnQU1BAACxjwv8YQUAAAAJcEhZcwAADsMAAA7DAcdvqGQAABytSURBVHhe7d0JeBRVvjbwlwQS9kDCEiCAIoZFcNgFxQVZHVDAq4wOICoyuN0Bl/HOfN93x23u4FwQcAGuMOqwuAwo6MWFfZclIKKGQdZsaCB7CGQPfPU/dSq9pDvdlXRCo+9vnrLrnFNdXeGZ8/Y51dXVdaZMefgSiIj8FKIfiYj8wtAgIlsYGkRkC0ODiGxhaBCRLQwNIrKFoUFEtjA0iMgWhgYR2cLQICJbaiU0Ll26pBYiuvIFLDSKigqRlJSIkydPICcnxyUkdu/+CsnJiboUnAoK8pGYcAoJp04iP/+CrjWdOXOm/O/Jzs7C6dOnvYZgamqqsX2qLrlKS0tT7daSnZ2Nixcv6lao101PT9Ml4OzZsyguLtYlB6kvKSnRJaLaFZDQkKBY9clqIziKUb9+fXz11Q5s2LBdtwa/7747hNWrP0K9evUQFh6ONWtW4+uv43QrsHHjuvLOffLkcWzevAG5ubmq7Ky0tBSbNq1HXNxeXeNq164dSEw8haysTLXs338AK1YsRV7eOdWekZWBQ4cOqnWxY8dWbNmytUJAyb9vYWGhLhHVrmqHxoULF4z/E+/EvePuRmxsLNq1i8GoUaONjnAWGenpeiuT/J9fOp+nd2mp99Rmla12d+779PR8T/u1SP2hQ99g4sQH0C6mvTr+iRMn4/DhwygrK9NbuWrTJgZ79uzRJYfvv/8O0dHRuuRZx45X4brreqhlxIjhGDjwRmzfvtU4EL2Bm7S0VCQlJugS0eVX7dBITExUHS08vL6uAUJDQzFo0E0u74bnzuXhvfeW4f33l+PDD99X0wEhnTYubp+ql2Xlyg9QkG+2FRQU4OOPVxqd+pBqk+dv3bpNtQkZui9b9q5q++CD93Ds2FF89NFK3Sod7qx6J3///RXGc5er/XkieSKjBGf33z8RISGe/3m6dIk1RgoZFaYIR48eQY8e1+uSf6LbtEVmZibKLnoOqJEjRmLHzu3l/15El1u1Q6OoqABhYfV0yUGCJKZ9e10CTp9OwaRJU9TSo0cPY+htTl9SUpLVPN5qGzBgIDZu2qDahIxkYmJiVNt9901EcvIp4zWLVE//8svPcMMNN6o26eQZGRn6WXJcRcZUYYPe7wMYN3a8moK4q1OnjrGPgSp4Tpw4YYwuzPCoVy9MtXlSaoRFbOy1SEg4pWug/oZmzZqpKY4dKYlJaNmyjQpaTxo3aWKMSq7H3r17vI6WiGpTQM5pGF1PP3rXvXt3vQZERDQr75wdOnTE6NF3lk8/mjZtZnQOxzSkYcOGaNGihVqvW7euepR33RJjZCCB0rVrV1UnHbxDhw5qXSQaQ/rOnbsYa/LJzUU0MPZjvaa7rl27GaEzyej4Z9SoZOnSd9SJXW+KjdDo3buf0ZF3l0+Ztm7djP79b8BFL1May549+7B+/RdqkVHQwUMHMGTIbbrVs759++Jcbq4RmMm6hujyqXZoyBDe6jhVUVpagk8++dQYBXyJw4fjceL4Md1SOTnfEBpqhognMuT/4YfDRsdcphYZSUiwePvUQUYIgwYNxuTJD2LUqF+rKZS3d/aSklIVYOHh4cjNyVZTmyJjqtS8eaQxzaj836JP39647bahRlAMVedR5PUaNGigW727bcjt2LZtM0+A0mVX7dBo2bKV8Y5fcb791a6dRggc0SXvjh09iujoFrjnntHo2fN6dL42VrdUTobzFUcOjk7eNKKpmgZJp3Re3KcP8vHop5+u1SVT69bRRsCElH+q4c3ttw/H3n178O23hzBw4CCv50CchYeFqbAJCwv3Ov3xREZn3YwRkbdPZohqS7VDo02btsY7bxFOnTqpa6Cu00hKTjTm/Z11jXcXjXfzrCzzWgR5Z09IOOHc972Szt+8eXN18lHIc0+cOK7WxTWdrsGRI0fUiERI++7dO9W6s1atWiM3N0NNdSzmaOQSGjduYlZ40bJlS/W3xsd/h6s6Xq1ra07/AQPVCCovL0/XENW+gExP7rhjjNFBD6tzAbKsW/cFRo++y6+Tgl27dEVxcZZ6nnwS0qRJBEqMKYs/hg8fib1749Vz5ZOVqKhWugXGkL8hhg4doc4bmPv+B9q376hbHeT4J0y4Dx999M/y45epzJgxY/0aOXTt2h1tYjraPgFaFTIyufnmW3WJ6PL4Wd2NXC4ykxOgQ4cO1zVEFGjVHmlcTjt3blNTEpl6ZGdlYdeuXercAhHVnCt6pCFhkZSUhIMH9yMyMlJd49GwYSPdSkQ1gT+WRES2XNHTEyKqfQwNIrKFoUFEtjA0iMgWhgYR2cLQICJbGBpEZAtDg4hsYWgQkS0MDSKyhaFBRLYwNIjIFoYGEdnC0CAiWxgaRGQLQ4OIbGFoEJEtob169X5Br18Wcss+IqoaO7+dEyi1crs/CQaGA1HtkTCpqUCpsemJhIT1+6wMDKLaVZP9L+DTEzsHyTAhqh5/RxPS12QJxOgjYNMTCQtfnENC1uVHlHv36oOrr+6EyKgWaNSoEUIuwxyN6EpQXFyM3NwcpKel4euDB5B6JrXCNMTfUPDn1wO9qXZoWAlWGed2+YX0cWP/DbGxsUZINK7WwRP9khUXFyEjMxObN2/AN98cdAkQf8LDeXs7qhUavkYXVljIdk2bRmDKAw+hQ4eO6hffiShwzl84j02bNmDHjm3lYeBvINh9465SaPg7urCWsXeNx0033aymI0RUczIyMrB48UJjBJJhKzzshIztE6F2RhcyFZkx4xn07Hk9pyFEtaBhw4YYNOgm5ORk48efftS1/k1XhD/b2QoNO4HRrFlzPPvMc2jZoqWqI6LaIW/QPXr0RGhIKI6fOKZrTb5CQfqwr238fvv3FRgW2a5x48aYaYww5DwGEdU+6fjDh4/EbbcOUUFg9V/rjb0yvvq6X6HhaydyINaBScpN/93jRmA01a1EdLnceec4xMZ2Uet2gqOybXyGhq8XsNqtAxoxfBTatYtR60R0ecmI46EHp6JJE/NN3NcAwCL92lvfrzQ0KnuiM2ub6NbRGDZshFonouAQHl4f48aOL++nVr/21be9beMzNCpj7dTabsydY/kpCVEQ6tWrD2JizBmAc5+1Hr3x1O61h/tzHsP5sU2bNujW9Tq1TkTBRaYpw4aONPqr47yGex/2xr3dY2j4uxPnx379BhgHpopEFITkeqmIiIgK/dcX2c552yqFhnDekYTFDQMGqXUiCk5y6uDqq64x1hzfRHd/9Ma5vUJo+Ptk58d27dqpK9GIKLj17dff6LO6YJD+696nvbHabYWG57ZLiGzeQq8TUTC7+qpOeq3iaEP40/9dQqOyJzhzfbFLaNO2rSpXV0lJCb7//jvExe1FZma6rjVf51TCSeTn56uy3FPg8OF4te5JUnISjh79QZdcnT6dovZlLWfOpOoWU0lpiaq3JCSewoULF3TJITExAQUFBbpEdGWQe9Y0bNjI6FO6QrPT9/0ODatNHh3byToQHd1Gl6vu4MEDuPOukfjs80+x/8A+TJp8H2a98hfVVlZWhgkTxhlhkKjKcXH7MOXB+7Ft+1ZVdiY3Krn33rvw2OOP6BpX8197Ff/xH09jyZJFWLx4EZ555vcYf/do/JT6k2o/l3tOvZb1N06ceC/uu//uCp8mPfTwRCQlJegS0ZXDcbW2o787933ndU88ngitjPsOpdi4UWNdqhrp6NJ5X3j+L/jTH/8TTzw+A//8cA0+/fRjJDi96zuTP3z+/Nm65CAjkLCw+rrk2aiRozHrr3Pwyqw5eO+9VXjkkUfx29/+m26tKNUIlNWrV+kS0ZVN+ofZjV0/FfEVFkK2KQ+Nyp5gtVV8AXOkUd0LusrKSpF3Pg+tW7fWNToU5i0w/sBwXeMqMjLKmFqcQXqG8zTmIl56+c948QVzhOKvO0aN9jgFsbz+2v9g9pxZyMnJ0TVEVy65ZkP6rVN3Vir2b8/8Cg3PzMCQx+pq0KAhnnxyJqY/OhVr136CwsJCVT9w4I1ev8cixztzxrOYM3uWroHq1HIfgd69++ga/yQlJek1z6KjW2Pqw9Px8NTJfl+7TxTcrH7r2n/9yQFbQwT7weK/ByY/hFnGdGHT5o0YOmwwnvz36fjxx9O6tSLpvKNG3YF9cXvLj2vlqg8xbtzdxsil8o69fsMXmDPnFbXItGjyAxPUdKUy06Y9iuzsLGzY8KWuIbpSWW/4wv4UxWdoWDvxtjM/XsMvMsXp26cfXpu/AGv/dwNuHDRYnYCUkYMncjwREc3UzUa2bt2MoqIiLFv2DqY98pi64Wpl2rfvgG7duqtlzJix+Pijz3x+0U6GdCuW/xMvvPj/cN6YShFduaw+rR688tbnVWj4ky4VOadV9Zw2RhQLF76hS3K+IhL33z8JnTp19vgJiUU68u9//zTmzZ+D+Pjv0a5tjLrIzNff071bD4wefZdahgwZ6nIupTIyVZow4X48+thUTlPoyqW6h3Mfce0vvvqP39MT5x1VLWS8a2R09OUr/oEjRw7rGqjzGnItRPuYDrrGM7lYJSsrAy+99J/48/Mv69qaM+P3zyIlJbnSE6dEwczqvc7d2E6ftnVOw8F8gUBlR/PmkXhr0dt49g8zMe13D+Lxx6dhwm/GqbuY9+nTV2/lWb169fDsM3/ChfwL6HFdT11bc0JDQ/DO2yt4CwC6gpXHhsc+7CtA1E8YVDbUtnbgvI359dpLKCsz15+a+awxlZAvwlRPSUkxUlNTjVFGAVq0aKk+VhVyDBkZ6eqeo+Hh4SgoyEd+fgGiosx2+chWPjmJijIvZ5eLweSkpezDXVZWpvopBW/3L5XnyjYtW7ZS5fT0NHWTZAknZ9bxhIWF6RqiK8Pcef+NhIRTxlqI8SYoP10gtSFqum+x3hSd6yxVfrs0s6TyRLKrXr0w9WNKsbFdywNDyIFLJ5bAEPIRrRUYIjS0bnlgCPkxJk+BIWS/ld3wWJ5rBYaQdffAELJ/Bgb9EgVojB3Y8CCi4MWJOdEvmI/TFx4xNIjIFoYGEdnC0CAiW4ImNOSGNkv+/nfMfvVVbNy0SdXJx5/PPvecWnf28erVOJfnein38RMn8Oq8ecYyX62LY8ePqS+jyX5kv3KTH2fvffAB9sXt0yXTm/+zEK+98YZali5fXv6cBYsWqY+dTxj73rLVcZWqXL6+bds2XSL6+QuK0Cg1OvXfZs/GkCFD8Nijj6o7dK1du1a15Xu4O1ZpaanLGRy5OnPea6/hd9OmYdojD2PpsqWqs2dlZSE3N1dd53Hwm2/wz1Ur9TPMQJJwsm6+Y9kXF4cpkyfjwSkP4KZBg/DH//t/1POlXh6zc7Kx5O23kXvunNpe9pPo41uyRD8nQREaaWlpqBcehs7XXIPGjRphxPDh2Oz27p2ckoLnX3oJK95bgW8OHdK1JhkByPUVcjl60yZN8fTMpyp8NyTc2P+Wrdt1Cfg+Ph7//sQTuuRKbvMe0TQCnTt3xtmzaSosnP1u2iOY9bdX+P0T+kUKitA4f/482rdrp0tyZ6EwNex39tbfl+CPf/gDJk2chJgYx7aiSZMmmDxxIl4wQmXBooXqPp/WhWCWOnVCMPXBB3Hy5EkVAoveegvXGqHgSbwRKLKs+vhj9OndWz3XWVRkFAb2H4Cdu3bpGqJfjqAIDQmJ7JxcXTJHDnXrhuqSviw8KxsNGjRQ5ZYervYc0L8/Xnz+edw5ejTmvDq3QuiIAQP6440FC9T5kH59+6KouFi3uDqff0Etv7r+ejw1Y4YRGrrBybhx44zpzirk5Z3XNUS/DEERGq1btUJCQoIKB3H69Gl06OD4dqtMPSKbN1f3EhXy3RBnck5h9Zo1Rueuoy5D79OnD7KyK96HQy4H79C+vTrnMckYmbhPOywDB9yglthrr1X79OYlI6TmvjZfl4h+GYIiNGQE8dj06fjr315Rn4Cs+fQTPPnY47rVNH3aNLz0l5fx+oI3KwRC+5gY5BlTnDlz5+LV+fOQbbS3iY7Wra6mTJmCo8eOo0H9ym8+7I8WLVqgZ48eukT0y1Dlb7lK/cWL5q3Cnpr5jLphTnXJvmRaUd9Lh5aRiByHpy+QCflURbZxP59BRA7O33INCaljLFJbC99yrQlygN4CQ8g0xVtgCPnKOwODqGYFVWgQUfBjaBCRLQwNIrKFoUFEtjA0iMgWhgYR2cLQICJbGBpEZAtDg4hsYWgQkS0MDSKyhaFBRLYwNIjIFoYGEdnC0CAiW4IqNFauWolbbh2Mtxa/pWsc1nyyRrW9+eYbusbh888/w8233IS5c1/VNQ7rN6zH4JtvxCuvzNI1RFQdQRUaixYtRH5+ATZu3KBrHN5443XVJiHgbu68uSgoKMS6det0jcPs2f+NwsIifPHlF7qGiKojqEJj6tSpaNCgPgbfNFjXOEyfPh3164fj5sE36xqHJ554Ut2x6+ZbKrbNmDFT/ebJrbfcqmuIqDqC6h6hRFTzflb3CCWi4MfQICJbGBpEZAtDg4hsYWgQkS0MDSKyhaFBRLYExXUa63d8p9eIyJf+v+qEyIjGumRfda/TCIrQePrlf+g1IvLl8cmj0PmqaF2y72cRGkRUe3hFKBHVKoYGEdnC0CAiWxgaRGQLQ4OIbGFoEJEtDA0isoWhQUS2MDSIyBaGBhHZwtAgIlsYGkRkC0ODiGxhaBCRLQwNIrKFoUFEtjA0iMgWhgYR2cLQICJbGBpEZAtDg4Ka3Nc6KzsPyT+mIz+/UNcGVt75Ahw9maJLNSsz6xxSfspAUXGJrgEyjDrrBt5lZReRnnlOrQcrhgYFLelHH3+xG3OWfIZv409ixotLkWkESKCdM0Lj+MnTulRzlq7aov6WnfsO48GnFyLn3AVV/+Tz76K4pFQFx8vzV+LHs1mqPlgxNChoZeWcw+Y9R/DX5+7HnSMH4oWn7sHi9zeptqTT6Vizbg++OvCD6mwFhcXY981xbPnqe3y2ab/qhCItIwdrvtyDHfv+pX5yQySknMVqI4z+dbzmg8JSZBzPd/9KNv6W3+K342/Fgr9MxeIV63SraeGyLzH4hm7o1f0qXROcGBoUtM5mnEOs048CtYuOwp+eGI+c3PNYuGIDxhlBciY9G3u/PqKmGLMXf4YBvTqjRWRTLFmxHheM6cxTLy/HmOH9Ua9uCJau3Ky2f/vDLRh/xyB8vnGfmvrUhmMnUjB6WG9YPyMS2awx9n6biDL9e0Kr1n5lHGMohg3+lSoHM4YGBS0ZQdQ1Oru7iKaN8dik4diw/SDyLxTgVFKaqo9s1gSNGzVA7NVt8e2xM0g5k4WH7h5kdMa6GNinC34z9hZs2fENru/WERt2HEJMTDT2HIhXz61pcq4iJCRUl0zqh4jMwQ9yjSDcuucHFBojpmDH0KCg1TyiEY7rQBBZOXlY/tFW/HgmU40WRt7WFwP7ddetQIPwenrNVMf4X2GROU0RpaWlKDXe2W/s1wWD+3fHXcP6Ydit/XVrzerYvjXijyTqElBiTFfatWqG0FCzC06dOALPTR+D1975rHwaFawCEhqSokSB1qZVczRvFKbOVaSezca7K7egb89Oakgv5zAkPD5dtweF+vyFuw5tI7Fy3dc4k5aNnXFHsHZjHIbf2hfzl/yvmrp8a3Tic3nmycia1jyiMY4kpmH3gaM4nZqJP85agaemjdGt5qijd89rUD88DFt2f69ra8alSn6G1R+hvXr1fsH6uKcyrtuY61ZV167d0LZtO7NAFCDSkW4b1ANp6Vn44Xgyfn17P1zdIRrNmjZCp/YtcfhoIsaPGoRmTcKNgIlE5w5RaBFlvnvHdoxE2+iW+PVtvYwpyL8Q3SICw27pjSbG9KV/r2uxKy4e7dtEoWNMa3W+I6JJQzRt0ki/cs0YPaQ3MjKzceLUj3hgwu2IbtlM1cd2jEJ06yiEGH/vwD6xyMvNVX+H9XuqgbZl60ZcuCBhaYzFjNeUWZK1brHWnessAfkB6GHDRmDsXeN1KxEFs2f/MANFRUVGIJg/+lxLPwBt7ch8PHMmVT0SUXDLzspCYWGBsVYxDPxV5fGPBJAVQmlpjpNVRBS8jp04ptdMHgYSPgVg0lQHZ8+mIjMzU5eJKFh9fWC/Xqu6AISGafv2LXqNiIJRWVkZTp46bqxVfWoiAhIacrLk0LcHXU6WElFw2bFzGwoLrS/9XYZzGhZzTlQHWVmZ2L17l6ojouAib+jbtm1W69Z5DE+fjPijWqHh+pp18Pnna9VVd0QUXNav/wLp6Rm6VPVRhgjQOQ3zIM7l5WLZ8nfVOhEFh5ycbHz+xedq3ZoZVEcApifmAViP+/fvx4EAnKElouorLSvF66/PQ5nxaKpeYIgAjTSEeTmqLO+8uwQpKcm6noguBzmP8eYb8/FT6k+qrN/Xqy2AoSHMo5JLy1/521+RnJKkykRUu+Tj1TcXzMeRH44YJcd3TMzgcKRHVYIkoCdC1X+NB1nkoP/rv15EXNze8u+vEFHNk++VvPTyn3H4cLzRF60vpFlcClWiQqOqH724cxyglWqh+PvbizF33mz1hxBRzZE3ZwmKmU89iVQ1JZHO6BhleGev/6tvucqLeRsNWPWu33KVOnORavP5qsV4NL8BK2XzZiIX9eMl3D3+Htx++3CEhYXJxkQUANI309LOYt78V9X1UtYbt9wpzHzztr7JKuEhK9abuqPerHOER2XfcvU7NNy3kXAwQ0IO2trO2kaCQm2l2yRIVIXa/rrreuDee36DVq1ao27duh4PjIi8k+l/SUkxDny9Hx9+8B4Ki4p1AAgJAzMcQkKsgJB6+fq7IwxkE7PeChOTtFl9MsChYYaDkGBw3KLMHGkYW5SHifk0CRJze2GFihzTVVd1QpfYLoiMaoFQx19ORE4KCgqQnJKM+PjvkJ/vfhMdS0j5KMF8cB5lyIZWm1UvXO+lYe7TLDvXW1RoyIpzh3ZnhYX/UxRZMbeVNkegmDfusdosevdE5AcP/Vgxw8IKBfmvp2AwQ8YagUjZrHPstLKpibAVGmYwOHq48xRFFudwcG+TdcdLmPsx92U9h4jsko5thYG5OAJDqs1+L+tSabU7t9kbZYjy0HAPBGdWvfs25rqZBOZow7Gt1JvrzsFhtpdvQkQBI33c6uiOEYYVAo7Rg7SZm8l/HCEhZN0qO9c7c+zac7vibSdm2dyFdSCOTdyHQ2at1FnzKce2RFQVVt8yRw+ufc3se9LJzApZtRaTIyAsVtm93ln5SENUbYoi6+Yiq7I4pinCMeKwWNsRUWC4hoFwDQzhevJT2lxDQ9Zth4Z7ILiz2tzDxaw362RVFtfgkHVr3871RBRYVse3FpPreQyzzT0YfJ0AFdLmiCFDZRs7s3ZuMZ9nvaC5WAdpMtvNW6bLdq7PJ6Lq8NS/zM7n3Bed+6O3wPBFnucy0hD+jjY8bWeWHaMQa0DiOuqwSJ2neiKyRwLANQSEhIX5qB4061yjgwoCXefe5szarkJoiMrObQg7wSFFx+K6LREFnhUW0v8dGSArFUcYVhBY65WxRiMexyS+nmzxtJ1Z5z48shbzkxN/909E/pE+5ehfZn9zdDNZqTwwfHHezuNIQ/g72hDeRxxqTS8OVpPbU4ioCqz+XLH/S4VZ6SswfIWH8zkPr6HhKQjcObd7295RJ4+V74+IAsF7WAj7geHYn3DEhxv3HXvi/sKetnfUyyIvJ4tVJqLqq9i/vPVHGTE413vaxpmj7zp4HWlYfE1ThPsIoyrPIaKq86fzu2/j+zmyVBxX+AwN4U8IiKqEBxHVLM/XVfnm7doNz7VuzDmNb+4HIy/qPhwioponfc7qf86qGxgA8P8BUPMz4717YR8AAAAASUVORK5CYII=;" vertex="1" parent="1">
          <mxGeometry x="73.26" y="300" width="133.75" height="89" as="geometry" />
        </mxCell>
        <mxCell id="wkWaENmz2FaomDUTFkqX-38" value="" style="shape=image;verticalLabelPosition=bottom;labelBackgroundColor=default;verticalAlign=top;aspect=fixed;imageAspect=0;image=data:image/png,iVBORw0KGgoAAAANSUhEUgAAAQQAAACSCAYAAACjQLTgAAAAAXNSR0IArs4c6QAAAARnQU1BAACxjwv8YQUAAAAJcEhZcwAADsMAAA7DAcdvqGQAABdESURBVHhe7d13fBRl/gfwL0kglEAgoYQiKHJREE+qUiI1CAoCQYFTBETkUEApQT1/dyeCnviTQECKXjgr5RREz6N3QaUXhSBK7wmkEBJCEkjgN9+nzMxuNsmmkY2/z5vXss88M1vyx/czzzO7M1tm6NDnbhEAgMFL3QMAIBAAwIJAAAATAgEATAgEADAhEADAhEAAABMCAQBM3s2aNX9TtW+LW7fwPSiAgipTpoxqFY9i+aYiFz0KH+D24aAoirAosikDB8DNmzfFDWEAcHsVVf0VesqQnzeAoAAoHHdHAVxrfMvvqKHAUwYOgrzYA4DbPj4+1LxZC7rrroYUEFidKlWqRF7FPCcCKK2uX79OV64kUdylS7R33x6KiY3JNjVwt+C9vNybDOQ7EHTy5Ma+vkKFCtS3zxMUHBxsBICf228MABxdv55B8QkJtHHjOtq/f59DOLgTDPbtc5KvQMhrVKCDgLerUsWfhg4ZRvXrNyBvb2/RDwBF42rqVdqwYR1t3fqdWejuhALLbafsViC4OyrQtz69w6h9+4fFFAEAik98fDxFRc0zRg7x+QqGnLbL86BifkYFPD0YOzac7r//j5gaANwGFStWpLZt21NS0mU6f+G86nVvCsGct8s1EPITBlWrVqOJ4a9Sjeo1RB8A3B68823a9H7y9vKmo8eOqF4pr2DgGrZvk+NuPK8w0Hg7Pz8/GmeMDPi4AQDcflzU3bp1p04dO4si1/Wrd9q5sde6y0DIKwz4RfSLcjqN/PMoIwyqqLUAUFIef7wvBQffI9r5CQW9TbZAyOvBer1+sUe69aC6deuJNgCULB4pDHt2OFWuLHfQee3cNa5rvjkEgu7Mi94mqFYQhYY+ItoA4Bl8fctT3z5hZp3qus6rtnl9tkDIjfMT93q8Dz5NAPBAzZq1oHr15MjdXrP6PidmNbtz3MB+X7t2bWp8732iDQCehacOoV27G/VqHUdwJxREIOS2AXN+Ir5v1epB40XFIgB4IP4+kL+/f7b6zY1bgcB4G70dB8FDD7YVbQDwTDydv+vOu42WdUay870zr5xWaK6eqG7duuIbUgDg2Vq2am3UrFowcP0617RdroHget0tCqhWXbUBwJPddWdD1co+SmDONe7WRwSOT3SLatepI5YL68aNG3Tw4AHatWsHJSTEqV75OidOHqdr166JZT4n/NChaNF25fSZ0/Tbb7+qJUfnzp0Vz6VvsbExao10I/OG6NdOnjpBqampasly6tRJSktLU0sApQNfc6RixUpGTakOxTkItBwDwR4C1oO5TRQUVFstF9y+fXvo8d7dacXKb2n3np30zOA/0dR33xbrsrKyaMCAvkahnxLLu3btpKHPPkXfbdkslu34IhL9+/emF0c9r3oczZw1nV57bQLNn/8BRUV9QOHhL1NYv550IeaCWJ98JVm8lv4bBw3qT396ql+2T12GPTeITp8+qZYASg/rW8RWCNgDwd7Oc4Rg35jxol8lP7VUMFzEXJhvTnqbXv/L32n0qLH05Rff0LffLqOTtr21Hf9RM2dOU0sWHjmUK1deLbnWo3tPmvpOBL07NYIWLVpKzz//Aj399BNqbXYxRlh8/fVStQRQunF9yDK279yz1zZzGQh6w+wPliOEwn4ZKSsrk1KuplCtWrVUjyr4yLnGm/dVPY4CAgKN4X4sxcXbpxY3acpbb9DkN+XIwl2P9ujpclqgvT/rQ5oWMZWSkpJUD0Dpxd9J4Lq1lbPgKhzyUdkyDPi+sCpUqEhjxoyjkS8Mp+XL/0Pp6emiv02bdjmeF8FveNzYiRQxbarqIVGwfB548+YtVI97Tp8+rVquBQXVouHPjaTnhg92+7vgAJ5N161j/dpDgeUaCM4bF6Uhg4fRVGMIv2HjeuoaGkJjXhpJ58+fU2uz48Ls0eNR2rlrh/m+liz9gvr27WeMOHIv2rXrVlFExLvixlOVwUMGiClEbkaMeIEuX06kdetWqx6A0krvzFnu04ZsgaA3yCkMcujON552tGzRimbNnEvL/7uO2rUNEQfzeI/vCr8ff/+q4kIQmzdvpIyMDPr8849pxPMviotP5uaOO+pT48ZNxK1Xrz607KsVeZ6UxcOshQu+pDcn/42uGtMbgNJL17S4yxHXWAGmDIV3zhgJzJs3Wy3x8YEAeuqpZ6hhw0YuP0nQuEhffnkCRc6MoOjog1S3Tj3xBamcwktr0rgp9ezZW9w6d+7qcOwiNzx9GTDgKXrhxeGYOkDpJcrDXiOO9WKvnxwDwb5RXgWXX5WMIl6w8FM6fPiQ6iFxHIE/67+jXn3V4xp/0SIxMZ6mTPk7vTHpLdVbfMa+PJHOnj2T60FIAE+mq9dexjnVtJsjBPngosqFatUC6J8ffEQTXxlHI/78LI0aNYIGDOwrrtbcokVLtZVrZcuWpYnhr1PqtVRqet/9qrf4eHt70ccfLcRp3lCKmZHgsobt4VBm8OBnHTbRK+1DZHkK5S3KypLt8eMmGsN7PmmicG7cuE4xMTHG6CCNqlevIT5aZPwe4uPjxDUafX19KS3tGl27lkaBgXI9f2zJnzAEBsqvUPMXmfgAID+Hs8TEBHE5+Jyu98iP5W1q1KgpluPiLokLxnLw2On3U65cOdUDUDrMiHyPTp48YbS8jB0cX36de73EFFzTOzy3d3syJ1zESyGULVtO/JBLcPC9ZhgwfqNcoBwGjD+m1GHAvL19zDBg/EMwrsKA8fPmdvFXfqwOA8Zt5zBg/PwIA/i9K+A4uGiDAQA8AybGAP+PuDqGYIdAAAATAgEATAgEADCVSCDwhU8++uRjtSQ/4vzXx9ZyQfBHld9t2ULvRUyn2XPnUkqK/Lrxv7/8UtxnZmZS5PuzRNtuxqxZlHL1qlqS5sybR7Nmz6ZZc2bTytWrxXOzTz7/XN1/RhcuyOspsOhD0XTetgxQWpVIIGRm3qD1GzbSsq+/Vj1Ee/ftU62COXX6NB07fpxeGjOaBvbvTxNfe030H4yWV1ri0ImOPuRQyFeuXDH6osX1Gex27tpFQwcPNm5DqHz58rR02Veif//+n8T9vv37aPLbb4srPrG4uDhKScb5DlD6ldiUgS/U+svhw5SYmKh6pLi4eJo2Y7oYMSxYtEicxDRp8mSxjot+RuRM0d6ydQvFxceLNuOi9vHxpgpGAdesWZNemzhRrbF06dxJjAg0Hkk8/aeBaskRX5+hqr8/de3cmdZv3Kh6LQOefNIMCoDfixILBP7yz4jhwykiMlL1SB/Oj6KXRo2m4cOGUUzsBbEdXxeOR+1bt26ly1cui89OVq1eSzWqW19O+kOjRlSlchX66xtviKE9B44zPl+iYoUKYrTA04DYS7Him4qu8JWYDhw8IKYOw4YMVb2WB1u3piNHjohvWgL8XpToQcWgoCBq366dmKcznucfO3aMlny1xBgdLBCXaksziji0a1c6/Osv9PPBg9Tz0cco5uJFylK/SKPxVy/7hYXRlEmTqFWL5jThlewjBP7680ujR9F/ly+n7Tt20CsTwilVXcjV2dXUa0aAZNAT/cKoXVvXv0Hx6sRXaPrMSGPqkKl6AEq3Eg0E9khoKO0wipPx14jr1q1DA/sPpCHPDKFnjT0znxnZ6O67jYBYTE8YBX9fkya0aPFiejKsr3iM9p9vv6ULxt6an6PpfU0pJcXxQCG7dfOW+Ary0mXL6MOoKGpQv4ExUnB9WvNDDz4oRgH1cvllaz71utdjPWnNurWqB6B0K/FA4CnBiy+MFG0+h2H0i6PovYgIen/uHFq4eJHo9/PzEycvcYHy9OHEiRPUqmUrsU7r3r07fblkCUXOmiUe37d3H7XGEb8GT0ce79lT9RROp44dcY4D/G64fbYj99809rB8P35cuLiYSXHh10jPyBAHCPOLjxNwyPBIAQAcz3b08ipj3Li3kGc73k78RgsSBow/JkQYABSMRwYCAJQMBAIAmBAIAGBCIACACYEAACYEAgCYEAgAYEIgAIAJgQAAJgQCAJgQCABgQiAAgAmBAAAmBAIAmBAIAGAq0UBYsnQJdegYQv+M+qfqsXzzn2/EujlzZqsey8qVK+jhDu1pxozpqseydt1aCnm4Hb377lTVY9m0eRO1D2lLU6bIqzjbff/9VvG4Nyb93bxIjLZt24/ivfz1b/+Tbd3OnTupU+cO9PrrrzlcVIbt2buHunTtRK++OjHbxVx/+mk/hXbrQuHhE8S1JO0OHjxAj3QPpXHjx4pL1gPcLiUaCB98ME9c+HT9+nWqxzJ79vtiHRe4sxmRMygtLZ3WrFmjeizTpr0nLo66avUq1WOZOvUdysi4TiuMQHH2jrFOPG7VqmyFPX16hHwva9eav8WgzZk7m65eTaX1GzZQxvUM1StFGUGXnJxiBNFm4/2mqV7p008/paSkK+Jy8qmpqapXWvzvxZSYeJl++OEH8XiA26VEA2H48OFUoUJ5CmkfonosI0eOpPLlfenhkIdVj2X06DHk62us65B93dix44x15ahjh46qxxIeHi6uf9ipUyfVYwkPn2g+Tl9OSnvppZfFlZhCQkLIx8dH9Uoj/zxSXGy1Xbt25FvOV/VKw4Y9R35+lajNQ22Mv7OC6pUGDRpElStXptbqOpF2/fsPIH9/f2rZoqXYBuB28chrKgJA0Sn111QEgJKBQAAAEwIBAEwIBAAwIRAAwIRAAAATAgEATCXyPYS1Ww+oFgDkpfUDDSnA308t5V9+vodQIoEw4a1PVQsA8jJqcA9qdGeQWso/jw8EALh98E1FACgQBAIAmBAIAGBCIACACYEAACYEAgCYEAgAYEIgAIAJgQAAJgQCAJgQCABgQiAAgAmBAAAmBAIAmBAIAGBCIACACYEAACYEAgCYEAgAYEIgAIAJgQAeha/xm3g5hc6cj6Nr19JVb9FKuZpGvx0/q5aKV0JiMp29EE8Z12+oHqJ4o09fzDgr6ybFJSSLtidAIIDH4BpZtmobRcxfQT9HH6exkz+jBCMcilqyEQhHj59TS8Xns6WbxN/y/c5D9OyEeZSUnCr6x0z6hK7fyBSh8NbMJXT+YqLo9wQIBPAYiUnJtHH7YXrn1afo8e5t6M3xT1LU4g1i3elzcfTNmu30455fRSGlpV+nnfuP0qYfD9KKDbtFgbFL8Un0zerttHXnL+JnA9jJsxfpayNofjla/CGgZRjv58AvZ4y/5Wl6OqwjzX17OEUtXKPWSvM+X00hDzWmZk3uVD0lD4EAHuNifDIF236QpG5QIL0+OoySrlyleQvXUV8jJGLjLtOOvYfFsH9a1Ap6sFkjqh5QheYvXEupxhRj/FsLqFe31lTWx4s+W7JRbP/RF5so7NG2tHL9TjEduR2OHDtLPUObk/7pg4CqfrTj51OUpX7vZOnyH4336E2hIQ+IZU+BQACPwXt+H6OQnflX8aMXn+lG67bso2upaXTi9CXRH1C1MvlVqkDBd9Whn4/E0tnYRBrWr61RaD7UpsU9NLBPB9q0dT/9sXEDWrf1J6pXL4i274kWjy1ufGzAy8tbLUnih1HkoIWuGCG3efuvlG6MdDwJAgE8RjX/SnRUFTtLTEqhBV9tpvOxCWIv371TS2rTqolaS1TBt6xqSWWMf+kZcurAMjMzKdPYI7drdQ+FtG5CvUNbUWjH1mpt8WpwRy2KPnxKLRHdMKYQdWtWJW9vWXLDBz1Cr47sRbM+XmFObTxBgQKB0w+gqNWuWY2qVSonjg3EXLxMnyzZRC3vbyiG2XzMgIPh2zXbKV0dL3BWv04ALVmzl2IvXabvdx2m5et3UbeOLWnm/P+K6cTPRoEmp8gDe8Wtmr8fHT51ibbt+Y3OxSTQX6YupPEjeqm1crTQ/P67qbxvOdq07aDqLR63bD/LmBfvBx5o9qZqO9Afi0iyrbvuvbcx1alTVy4AFBEukk5tm9KluET69egZeqxLK7qrfhBVrVKJGt5Rgw79dorCerSlqpV9jfAIoEb1A6l6oNzrBjcIoDpBNeixTs2MacEvFFTdn0I7NKfKxpSidbM/0A+7oumO2oHUoF4tcXzBv3JFqlK5knrl4tGzc3OKT7hMx06cpyEDulBQjaqiP7hBIAXVCiQv4+9t0yKYUq5cEX+H/n3ForZp83pKTeUgNMZQxmvyzEW3Nd0u0I+9hoY+Qn16h6m1AODJJr4yljIyMoyilz/wWgQ/9qofKO9jY2PEPQB4tsuJiZSenma0rOLPjdtjFA4THSiXLlkHfgDAcx05dkS1JNugwKUCTFrK0MWLMZSQkKCWAcBT7d2zW7XcU4BAkLZs2aRaAOCJsrKy6PiJo0bLvekCK1Ag8MGIn37e53DgEQA8y9bvv6P0dH2CWBEfQ9DkHKQMJSYm0LZtP4g+APAsvLP+7ruNoq2PG9g/VchJvgLB8fnK0MqVy8W3wQDAs6xdu4ri4uLVknujA1bAYwjyBZJTrtDnCz4RbQDwDElJl2nlqpWirUf07irAlEE+ub7fvXs37cnnkUwAKB6ZWZn0/vuRlGXcS+6HASvgCIHJr0Dy7eNP5tPZs2dUPwCUBD5uMGf2TLoQc0Esq312vhQiEJh8Rf4687v/+w6dOXtaLAPA7cUfMc6ZO5MO/3rYWLLOWZChYCVDXiFRqIOK4n/jjm/8hv7xj8m0a9cO83wIACh+fJ7ClLfeoEOHoo1a1CcvaQ4LeSrUCMF6cZ1G3vSvj6JoRuQ08SYBoPjwjpdDYNz4MRQjpglcjNboIGc5r3TzbEfukzfu5mW5Gd/LMyF5WV7o4aa6v0X9wp6kLl26Ubly5XhjACgCXJuXLl2kyJnTxfeB9E6Zr9Akd8z6jEYOBm7oHbbVL/usYNBnO+YYCLLIrVVc+DIA+A3p7fQ2HAJiK7WOQ0J0iO3vu68p9X9yINWsWYt8fHwc3ggA5I2n5DduXKc9e3fTF/9eROkZ11VxMy50WfheXrr4uZ9PcVaFrsJA9uugkHidrsl8BIIsfMZFb132SY4QjC3MoJAP45CQ2zMdGPy6d97ZkO4JvocCAquTt/VXAYBNWloanTl7hqKjD9C1a84XONG8zL27vLOPDnhDvU73M8drIeQaCEwHgfvTBm7IbXmdFRbyoip6naaeHgDc4BgAFhkEuuD5f1dFLwNEjxx4WfZZT2pOF4y+XANBFr212j5t4Ju98J3XcdvKE/k88rn0YwAgv6y9ub5ZYcDdss65zZ16vX1dLqMDbucvELgtq1yOEqxtuV+27aEg15ubAECR4TrWxWyNDHSBW3t9Xic34/+sAGAiBNSy2Fa0nNg3sJPL8iH6RaxNnIcosle8iJq/WNsCQEHo2pJ7fcdak7XHRSY7uKlvklX8ml42712NEJje88s9vLWJHgXwjZt8s6YOzBopaHo7ACgajoXOHMOAOR5I5HWOgcBttwOB6SCwH1xksl/26WJ3DAVu6yCx9wNA0dJFrW+S43EDuc4eBsx+MFGz4iQX+oGafAL9ZPKm34Ak18vLPvN2br0MALjFVX3J4rPXor0ecwoDZ2WGDBlm7Mhz3ovrdXzvvJ1ctkYPeiDhOFrQuM9VPwDkDxe3Y4EzDgJ5L+4UfWzPwsu6L9u6oUOfu+U8JXCWn1DgRevmuC0AFD0dBFzbVn1zI/vIILcwYCJLXK1wxdV2ss95yKJv8hMGd58fANzDNWXVl6w3q8y4kXsY5ESMELjh7iiB5TxSEC11s+hVTg8BgALQNZ29tmUQiFYeYZBTMJiB4KrIndnX57S91cf3uT8fABSFnIOAuRsGTEwZmPODXHF+UlfbW/1846fnm14GgMLLXl851SN/mmDvd7WNnTlC0PKaOjDnkUFBHgMABZdnYbsIiLwf4yIQmDsFzgoSDABQvFx/byhv/DjHRyr6Y4y8OL+QeEKnIQoAFD+uOV1/dvkJA3Ev/s9GfpzhDn5B5xe1vzlX6wGgcHRd2evMLj91p8OAiOj/ABuxQIoEUxvdAAAAAElFTkSuQmCC;" vertex="1" parent="1">
          <mxGeometry x="71.67" y="460" width="135.34" height="76" as="geometry" />
        </mxCell>
        <mxCell id="wkWaENmz2FaomDUTFkqX-41" value="Acessar a tela SIM lock por meio do comando:&lt;div&gt;am start -a android.intent.action.MAIN -n com.android.settings/.Settings\$IccLockSettingsActivity&lt;/div&gt;" style="rounded=0;whiteSpace=wrap;html=1;" vertex="1" parent="1">
          <mxGeometry x="217.01" y="40" width="320" height="60" as="geometry" />
        </mxCell>
        <mxCell id="wkWaENmz2FaomDUTFkqX-42" value="" style="endArrow=classic;html=1;rounded=0;exitX=0.5;exitY=1;exitDx=0;exitDy=0;entryX=0.5;entryY=0;entryDx=0;entryDy=0;" edge="1" parent="1" source="wkWaENmz2FaomDUTFkqX-41" target="wkWaENmz2FaomDUTFkqX-10">
          <mxGeometry width="50" height="50" relative="1" as="geometry">
            <mxPoint x="320" y="129" as="sourcePoint" />
            <mxPoint x="207" y="129" as="targetPoint" />
          </mxGeometry>
        </mxCell>
      </root>
    </mxGraphModel>
  </diagram>
</mxfile>
